<svg xmlns="http://www.w3.org/2000/svg" width="22" height="20" viewBox="0 0 22 20" fill="none">
  <path d="M18.3849 2H3.62265C3.45952 2 3.30307 2.0648 3.18772 2.18016C3.07236 2.29551 3.00756 2.45196 3.00756 2.61509C3.00756 2.77823 3.07236 2.93468 3.18772 3.05003C3.30307 3.16538 3.45952 3.23019 3.62265 3.23019H16.8998L3.18778 16.9425C3.12903 16.9992 3.08217 17.0671 3.04994 17.1421C3.0177 17.2172 3.00073 17.2979 3.00002 17.3796C2.99931 17.4612 3.01488 17.5422 3.0458 17.6178C3.07673 17.6934 3.1224 17.7621 3.18016 17.8198C3.23791 17.8776 3.30659 17.9233 3.38218 17.9542C3.45777 17.9851 3.53877 18.0007 3.62044 18C3.70211 17.9993 3.78282 17.9823 3.85787 17.9501C3.93291 17.9178 4.00078 17.871 4.05752 17.8122L17.7698 4.09993V17.3773C17.7698 17.5405 17.8346 17.6969 17.95 17.8123C18.0653 17.9276 18.2218 17.9924 18.3849 17.9924C18.548 17.9924 18.7045 17.9276 18.8198 17.8123C18.9352 17.6969 19 17.5405 19 17.3773V2.61509C19 2.45196 18.9352 2.29551 18.8198 2.18016C18.7045 2.0648 18.548 2 18.3849 2Z" fill="#DD2D34"/>
</svg>