<svg xmlns="http://www.w3.org/2000/svg" width="80" height="17" viewBox="0 0 80 17" fill="none">
          <g clip-path="url(#clip0_1_1896)">
            <path d="M15.8368 14.84H13.1137L8.20873 6.33505V14.84H5.66309V1.92042H8.38612L13.2911 10.4344V1.92042H15.8368V14.84Z" fill="white"/>
            <path d="M28.361 13.5156C27.7696 14.0321 27.1074 14.4285 26.3741 14.7048C25.6409 14.9811 24.881 15.1193 24.0946 15.1193C23.4914 15.1193 22.909 15.0382 22.3472 14.876C21.7914 14.7198 21.2681 14.4976 20.7773 14.2093C20.2924 13.915 19.8489 13.5636 19.4468 13.1552C19.0447 12.7468 18.6988 12.2963 18.409 11.8038C18.1252 11.3053 17.9034 10.7737 17.7438 10.2091C17.59 9.63852 17.5132 9.0469 17.5132 8.43425C17.5132 7.82161 17.59 7.22999 17.7438 6.65939C17.9034 6.0888 18.1252 5.55724 18.409 5.06472C18.6988 4.5662 19.0447 4.11272 19.4468 3.70429C19.8489 3.29587 20.2924 2.9475 20.7773 2.6592C21.2681 2.36489 21.7914 2.13965 22.3472 1.98349C22.909 1.82132 23.4914 1.74023 24.0946 1.74023C24.881 1.74023 25.6409 1.87838 26.3741 2.15467C27.1074 2.42495 27.7696 2.82137 28.361 3.34392L27.0128 5.59628C26.6402 5.18785 26.1997 4.87552 25.6911 4.6593C25.1826 4.43706 24.6504 4.32595 24.0946 4.32595C23.5328 4.32595 23.0065 4.43406 22.5158 4.65029C22.025 4.86651 21.5962 5.16082 21.2296 5.53321C20.863 5.8996 20.5733 6.33505 20.3604 6.83958C20.1475 7.33811 20.0411 7.86966 20.0411 8.43425C20.0411 8.99885 20.1475 9.5304 20.3604 10.0289C20.5733 10.5214 20.863 10.9539 21.2296 11.3263C21.5962 11.6987 22.025 11.993 22.5158 12.2092C23.0065 12.4254 23.5328 12.5336 24.0946 12.5336C24.6504 12.5336 25.1826 12.4254 25.6911 12.2092C26.1997 11.987 26.6402 11.6716 27.0128 11.2632L28.361 13.5156Z" fill="white"/>
            <path d="M32.3879 4.50614V9.67756H34.9335C35.2824 9.67756 35.6106 9.61149 35.9181 9.47935C36.2255 9.34121 36.4946 9.15501 36.7252 8.92076C36.9558 8.68652 37.1362 8.41323 37.2663 8.10091C37.4023 7.78257 37.4703 7.44622 37.4703 7.09185C37.4703 6.73748 37.4023 6.40413 37.2663 6.0918C37.1362 5.77346 36.9558 5.49717 36.7252 5.26293C36.4946 5.02868 36.2255 4.84549 35.9181 4.71335C35.6106 4.57521 35.2824 4.50614 34.9335 4.50614H32.3879ZM32.3879 14.84H29.8422V1.92042H34.9335C35.4006 1.92042 35.8501 1.98349 36.2817 2.10962C36.7134 2.22975 37.1155 2.40393 37.488 2.63217C37.8665 2.8544 38.2094 3.12469 38.5169 3.44302C38.8303 3.75535 39.0964 4.10371 39.3152 4.48812C39.5399 4.87252 39.7114 5.28395 39.8296 5.72241C39.9538 6.16087 40.0159 6.61735 40.0159 7.09185C40.0159 7.53631 39.9597 7.96877 39.8474 8.38921C39.7409 8.80965 39.5842 9.20907 39.3773 9.58746C39.1762 9.96586 38.9279 10.3142 38.6322 10.6326C38.3366 10.9509 38.0054 11.2272 37.6388 11.4614L39.0491 14.84H36.3438L35.2351 12.2362L32.3879 12.2543V14.84Z" fill="white"/>
            <path d="M66.5292 14.84H63.8062L58.9011 6.33505V14.84H56.3555V1.92042H59.0785L63.9836 10.4344V1.92042H66.5292V14.84Z" fill="white"/>
            <path d="M76.3836 9.67756V7.09185C76.3836 6.73748 76.3156 6.40413 76.1796 6.0918C76.0495 5.77346 75.8691 5.49717 75.6385 5.26293C75.4079 5.02868 75.1359 4.84549 74.8225 4.71335C74.515 4.57521 74.1868 4.50614 73.8379 4.50614C73.4891 4.50614 73.1579 4.57521 72.8445 4.71335C72.537 4.84549 72.268 5.02868 72.0374 5.26293C71.8067 5.49717 71.6234 5.77346 71.4874 6.0918C71.3573 6.40413 71.2923 6.73748 71.2923 7.09185V9.67756H76.3836ZM78.9292 14.84H76.3836V12.2543H71.2923V14.84H68.7555V7.09185C68.7555 6.3771 68.8886 5.70739 69.1547 5.08274C69.4208 4.45208 69.7815 3.9025 70.2368 3.43401C70.698 2.96552 71.2361 2.59613 71.8511 2.32585C72.472 2.05557 73.1343 1.92042 73.8379 1.92042C74.5416 1.92042 75.2009 2.05557 75.8159 2.32585C76.4368 2.59613 76.9778 2.96552 77.4391 3.43401C77.9003 3.9025 78.264 4.45208 78.5301 5.08274C78.7962 5.70739 78.9292 6.3771 78.9292 7.09185V14.84Z" fill="white"/>
            <path d="M3.11479 14.4822H0.566406V3.71108C0.566406 3.09813 0.798079 2.61651 1.26142 2.26625C1.72476 1.90348 2.34255 1.72834 3.11479 1.74085V14.4822Z" fill="white"/>
            <path d="M48.0583 1.74023C49.8891 1.74023 51.454 2.39481 52.7531 3.70396C54.0644 5.00087 54.7199 6.59144 54.7199 8.47564C54.7199 10.3476 54.0767 11.9198 52.7901 13.1922C51.4912 14.4769 49.9201 15.1193 48.0768 15.1193C46.1346 15.1193 44.5264 14.4586 43.2523 13.1372C41.978 11.828 41.3408 10.2558 41.3408 8.42058C41.3408 7.3806 41.5079 6.53637 41.8419 5.88791C42.2255 5.11711 42.8687 4.63382 43.7717 4.43806C44.6749 4.23006 45.4541 4.36466 46.1098 4.84181C46.7655 5.31899 46.9696 6.0225 46.7222 6.95236C46.4006 6.57309 46.0048 6.37731 45.5347 6.36509C45.0768 6.35285 44.6687 6.56085 44.3098 6.98906C43.9635 7.4173 43.8027 8.00459 43.8275 8.75093C43.877 10.0234 44.3841 11.045 45.3491 11.8158C46.1408 12.4643 47.0501 12.7885 48.0768 12.7885C49.2274 12.7885 50.2109 12.3725 51.0273 11.5405C51.8438 10.6963 52.2519 9.66854 52.2519 8.45728C52.2519 7.246 51.8438 6.21826 51.0273 5.37405C50.1861 4.54206 49.1841 4.12607 48.0211 4.12607C47.4769 4.12607 46.982 4.2056 46.5367 4.36466C46.0913 3.9609 45.5037 3.74678 44.7737 3.72231C44.0563 3.69784 43.4006 3.86912 42.8069 4.2362C43.3263 3.59996 43.9512 3.06774 44.681 2.63951C45.7325 2.03999 46.8583 1.74023 48.0583 1.74023Z" fill="white"/>
          </g>
          <defs>
            <clipPath id="clip0_1_1896">
              <rect width="79" height="15.9274" fill="white" transform="translate(0.566406 0.466797)"/>
            </clipPath>
          </defs>
        </svg>