<svg width="37" height="36" viewBox="0 0 37 36" fill="none" xmlns="http://www.w3.org/2000/svg">
<rect x="0.714844" width="35.5698" height="35.5698" rx="17.7849" fill="#DD2D34"/>
<path d="M18.1976 10.0522C16.1796 10.0522 15.9264 10.0611 15.1338 10.0971C14.3427 10.1334 13.8028 10.2586 13.3303 10.4423C12.8416 10.6321 12.427 10.886 12.014 11.2992C11.6007 11.7122 11.3468 12.1268 11.1564 12.6153C10.9722 13.0879 10.8468 13.628 10.8112 14.4188C10.7759 15.2113 10.7666 15.4647 10.7666 17.4828C10.7666 19.5008 10.7756 19.7532 10.8115 20.5458C10.8479 21.3369 10.9731 21.8768 11.1567 22.3493C11.3467 22.838 11.6005 23.2525 12.0137 23.6656C12.4266 24.0789 12.8411 24.3334 13.3295 24.5232C13.8023 24.7069 14.3424 24.8321 15.1333 24.8684C15.9259 24.9044 16.179 24.9133 18.1969 24.9133C20.2151 24.9133 20.4675 24.9044 21.2601 24.8684C22.0512 24.8321 22.5918 24.7069 23.0645 24.5232C23.5531 24.3334 23.967 24.0789 24.3799 23.6656C24.7932 23.2525 25.0471 22.838 25.2375 22.3494C25.4202 21.8768 25.5456 21.3367 25.5827 20.546C25.6183 19.7534 25.6276 19.5008 25.6276 17.4828C25.6276 15.4647 25.6183 15.2115 25.5827 14.4189C25.5456 13.6279 25.4202 13.0879 25.2375 12.6155C25.0471 12.1268 24.7932 11.7122 24.3799 11.2992C23.9666 10.8859 23.5532 10.632 23.0641 10.4423C22.5904 10.2586 22.0501 10.1334 21.259 10.0971C20.4665 10.0611 20.2141 10.0522 18.1955 10.0522H18.1976ZM17.5311 11.3913C17.7289 11.391 17.9497 11.3913 18.1976 11.3913C20.1816 11.3913 20.4168 11.3984 21.2002 11.434C21.9247 11.4671 22.3179 11.5882 22.5798 11.6899C22.9266 11.8246 23.1738 11.9856 23.4337 12.2456C23.6938 12.5057 23.8548 12.7534 23.9898 13.1001C24.0915 13.3618 24.2127 13.755 24.2457 14.4794C24.2813 15.2627 24.289 15.498 24.289 17.481C24.289 19.4641 24.2813 19.6994 24.2457 20.4827C24.2125 21.2071 24.0915 21.6003 23.9898 21.862C23.8551 22.2087 23.6938 22.4556 23.4337 22.7155C23.1737 22.9756 22.9267 23.1366 22.5798 23.2713C22.3182 23.3734 21.9247 23.4942 21.2002 23.5273C20.4169 23.5629 20.1816 23.5707 18.1976 23.5707C16.2135 23.5707 15.9784 23.5629 15.1951 23.5273C14.4706 23.4939 14.0774 23.3728 13.8153 23.2711C13.4685 23.1364 13.2209 22.9754 12.9608 22.7154C12.7007 22.4553 12.5397 22.2082 12.4047 21.8613C12.303 21.5997 12.1818 21.2065 12.1488 20.482C12.1132 19.6987 12.1061 19.4634 12.1061 17.4792C12.1061 15.4949 12.1132 15.2609 12.1488 14.4776C12.182 13.7531 12.303 13.3599 12.4047 13.098C12.5394 12.7512 12.7007 12.5035 12.9608 12.2435C13.2209 11.9834 13.4685 11.8224 13.8153 11.6874C14.0772 11.5853 14.4706 11.4645 15.1951 11.4312C15.8805 11.4003 16.1462 11.391 17.5311 11.3894V11.3913ZM22.164 12.6251C21.9877 12.6251 21.8153 12.6774 21.6686 12.7754C21.522 12.8733 21.4077 13.0126 21.3402 13.1756C21.2727 13.3385 21.2551 13.5178 21.2895 13.6908C21.3239 13.8638 21.4089 14.0226 21.5336 14.1473C21.6584 14.272 21.8173 14.3569 21.9903 14.3913C22.1633 14.4257 22.3425 14.408 22.5055 14.3404C22.6684 14.2729 22.8076 14.1585 22.9056 14.0119C23.0035 13.8652 23.0558 13.6928 23.0557 13.5164C23.0557 13.0241 22.6563 12.6247 22.164 12.6247V12.6251ZM18.1976 13.6669C16.0903 13.6669 14.3817 15.3754 14.3817 17.4828C14.3817 19.5901 16.0903 21.2979 18.1976 21.2979C20.305 21.2979 22.0131 19.5901 22.0131 17.4828C22.0131 15.3754 20.305 13.6669 18.1976 13.6669ZM18.1976 15.0059C19.5655 15.0059 20.6745 16.1148 20.6745 17.4828C20.6745 18.8506 19.5655 19.9596 18.1976 19.9596C16.8296 19.9596 15.7208 18.8506 15.7208 17.4828C15.7208 16.1148 16.8296 15.0059 18.1976 15.0059Z" fill="white"/>
</svg>
