<svg width="37" height="36" viewBox="0 0 37 36" fill="none" xmlns="http://www.w3.org/2000/svg">
<rect x="0.5" y="0.214844" width="35.5698" height="35.5698" rx="17.7849" fill="#FF00A7"/>
<path d="M17.9833 10.2666C15.9653 10.2666 15.712 10.2754 14.9194 10.3115C14.1284 10.3477 13.5884 10.473 13.116 10.6567C12.6272 10.8465 12.2127 11.1004 11.7997 11.5135C11.3863 11.9265 11.1325 12.3411 10.942 12.8297C10.7578 13.3023 10.6324 13.8424 10.5968 14.6331C10.5615 15.4257 10.5522 15.6791 10.5522 17.6971C10.5522 19.7151 10.5612 19.9676 10.5971 20.7602C10.6335 21.5512 10.7588 22.0912 10.9424 22.5636C11.1323 23.0523 11.3862 23.4669 11.7993 23.8799C12.2122 24.2932 12.6268 24.5477 13.1152 24.7375C13.5879 24.9213 14.1281 25.0465 14.919 25.0827C15.7115 25.1188 15.9647 25.1276 17.9825 25.1276C20.0007 25.1276 20.2532 25.1188 21.0458 25.0827C21.8368 25.0465 22.3774 24.9213 22.8502 24.7375C23.3387 24.5477 23.7527 24.2932 24.1655 23.8799C24.5789 23.4669 24.8327 23.0523 25.0231 22.5638C25.2058 22.0912 25.3312 21.5511 25.3684 20.7603C25.404 19.9677 25.4133 19.7151 25.4133 17.6971C25.4133 15.6791 25.404 15.4258 25.3684 14.6333C25.3312 13.8422 25.2058 13.3023 25.0231 12.8298C24.8327 12.3411 24.5789 11.9265 24.1655 11.5135C23.7522 11.1002 23.3389 10.8463 22.8497 10.6567C22.376 10.473 21.8357 10.3477 21.0447 10.3115C20.2521 10.2754 19.9998 10.2666 17.9811 10.2666H17.9833ZM17.3167 11.6056C17.5145 11.6053 17.7353 11.6056 17.9833 11.6056C19.9673 11.6056 20.2024 11.6128 20.9859 11.6484C21.7103 11.6815 22.1035 11.8025 22.3655 11.9043C22.7122 12.0389 22.9595 12.1999 23.2194 12.46C23.4794 12.7201 23.6404 12.9677 23.7754 13.3145C23.8771 13.5761 23.9983 13.9693 24.0313 14.6938C24.0669 15.4771 24.0747 15.7124 24.0747 17.6954C24.0747 19.6784 24.0669 19.9137 24.0313 20.697C23.9982 21.4215 23.8771 21.8147 23.7754 22.0763C23.6408 22.4231 23.4794 22.67 23.2194 22.9299C22.9593 23.19 22.7124 23.3509 22.3655 23.4856C22.1039 23.5878 21.7103 23.7085 20.9859 23.7417C20.2026 23.7773 19.9673 23.785 17.9833 23.785C15.9992 23.785 15.764 23.7773 14.9807 23.7417C14.2562 23.7082 13.863 23.5872 13.601 23.4855C13.2542 23.3508 13.0065 23.1898 12.7464 22.9297C12.4864 22.6697 12.3254 22.4226 12.1904 22.0757C12.0887 21.8141 11.9675 21.4209 11.9345 20.6964C11.8989 19.9131 11.8918 19.6778 11.8918 17.6935C11.8918 15.7093 11.8989 15.4752 11.9345 14.6919C11.9676 13.9675 12.0887 13.5743 12.1904 13.3123C12.3251 12.9656 12.4864 12.7179 12.7464 12.4578C13.0065 12.1978 13.2542 12.0368 13.601 11.9018C13.8629 11.7996 14.2562 11.6789 14.9807 11.6456C15.6662 11.6146 15.9318 11.6053 17.3167 11.6038V11.6056ZM21.9497 12.8394C21.7733 12.8394 21.6009 12.8917 21.4543 12.9897C21.3076 13.0877 21.1933 13.227 21.1259 13.3899C21.0584 13.5529 21.0407 13.7322 21.0752 13.9051C21.1096 14.0781 21.1945 14.237 21.3193 14.3617C21.444 14.4864 21.6029 14.5713 21.7759 14.6056C21.9489 14.64 22.1282 14.6223 22.2911 14.5548C22.454 14.4872 22.5933 14.3729 22.6912 14.2262C22.7892 14.0796 22.8414 13.9071 22.8413 13.7308C22.8413 13.2385 22.442 12.8391 21.9497 12.8391V12.8394ZM17.9833 13.8812C15.8759 13.8812 14.1674 15.5898 14.1674 17.6971C14.1674 19.8044 15.8759 21.5122 17.9833 21.5122C20.0906 21.5122 21.7987 19.8044 21.7987 17.6971C21.7987 15.5898 20.0906 13.8812 17.9833 13.8812ZM17.9833 15.2203C19.3511 15.2203 20.4602 16.3291 20.4602 17.6971C20.4602 19.0649 19.3511 20.1739 17.9833 20.1739C16.6153 20.1739 15.5064 19.0649 15.5064 17.6971C15.5064 16.3291 16.6153 15.2203 17.9833 15.2203Z" fill="white"/>
</svg>
