<svg xmlns="http://www.w3.org/2000/svg" width="113" height="140" viewBox="0 0 113 115" fill="none">
  <path d="M90.0639 3.44485L42.9418 0L18.6208 17.2242L0 62.0073L21.0909 107.556H34.2015V114.828L93.864 107.556L112.485 63.5383L109.065 30.2381L99.0101 24.0202L106.04 19.3333L90.0639 3.44485Z" fill="white"/>
  <g transform="translate(35, 30)" clip-path="url(#clip0_1_887)">
    <path d="M48.7236 21.4199C48.2052 20.6371 47.4193 20.0976 46.5058 19.8932C47.0951 18.766 47.0711 17.3596 46.3203 16.2262C45.7863 15.4194 44.9807 14.8983 44.1036 14.7011C44.262 14.3988 44.3768 14.0757 44.4446 13.7413C44.6361 12.7971 44.4492 11.835 43.9171 11.0321C43.3986 10.2489 42.6128 9.70955 41.6992 9.50545C42.2886 8.3782 42.2647 6.97176 41.5139 5.83797C40.4163 4.18055 38.174 3.72469 36.5162 4.82254L32.9266 7.19988C31.0147 6.23005 28.9736 5.5393 26.8657 5.14871C26.1982 4.13504 25.4219 3.19285 24.5529 2.35057L23.0679 0.911308C21.9803 -0.143086 20.2747 -0.301387 19.0121 0.535136C17.5183 1.52439 17.1078 3.54461 18.097 5.03846C18.1358 5.09754 18.174 5.15711 18.2117 5.21658C13.3439 6.20154 8.90732 8.78484 5.62363 12.5701C2.06035 16.6783 0.0976562 21.9394 0.0976562 27.3846C0.0976562 28.4283 0.168945 29.4739 0.310156 30.4917C1.39775 38.4038 6.66807 45.2221 14.0641 48.2866C16.8068 49.4231 19.717 50 22.7127 50C27.457 50 31.9984 48.5469 35.8463 45.7985C39.6106 43.1091 42.4271 39.3978 43.9915 35.0658C44.0275 34.9695 44.044 34.867 44.0401 34.7643C44.0362 34.6616 44.012 34.5606 43.9688 34.4673C43.9256 34.374 43.8644 34.2902 43.7886 34.2207C43.7128 34.1513 43.624 34.0975 43.5273 34.0626C43.4306 34.0277 43.3279 34.0123 43.2253 34.0174C43.1226 34.0224 43.0219 34.0477 42.9291 34.0919C42.8363 34.1361 42.7532 34.1983 42.6845 34.2749C42.6159 34.3514 42.5631 34.4408 42.5293 34.5379C41.0725 38.5719 38.4491 42.0281 34.9423 44.5332C31.3599 47.0925 27.1309 48.4451 22.7128 48.4451C20.4284 48.4451 18.198 48.0846 16.0634 47.3735L22.3889 43.1846L22.3899 43.1839L22.3907 43.1831L27.6478 39.7018C27.8804 39.5486 28.0807 39.3508 28.2364 39.1199C28.3921 38.889 28.5005 38.6295 28.5554 38.3564C28.6683 37.8013 28.5583 37.2353 28.2455 36.7634L28.1762 36.6581L29.1973 35.9817C29.9235 35.4998 30.8047 35.3094 31.665 35.4485C32.9107 35.6498 34.1864 35.3739 35.2375 34.676L43.7076 29.0669C43.6502 29.7992 43.5546 30.528 43.4212 31.2504C43.4025 31.3508 43.4038 31.4539 43.425 31.5538C43.4462 31.6536 43.4868 31.7484 43.5446 31.8326C43.6025 31.9167 43.6763 31.9887 43.7619 32.0443C43.8476 32.0999 43.9433 32.1381 44.0438 32.1567C44.0914 32.1659 44.1395 32.1701 44.1863 32.1701C44.3678 32.1698 44.5434 32.1061 44.6828 31.9899C44.8222 31.8738 44.9166 31.7126 44.9497 31.5342C45.1652 30.375 45.2893 29.1874 45.3213 27.9983L47.7081 26.4176C48.5111 25.8857 49.0593 25.0728 49.2508 24.1291C49.4427 23.1849 49.2554 22.2228 48.7236 21.4199ZM31.417 8.1992L29.0417 9.77244L28.5739 8.51248C28.3786 7.9868 28.1548 7.47146 27.9068 6.96717C29.1112 7.27253 30.286 7.68485 31.417 8.1992ZM6.79824 13.5891C9.9542 9.95105 14.2529 7.50545 18.9557 6.6575C19.7103 8.48553 19.8911 10.5279 19.4401 12.4745L17.5446 20.6636C17.2456 20.3432 16.8539 20.1243 16.4243 20.0376C16.1515 19.9811 15.8702 19.9794 15.5967 20.0326C15.3232 20.0857 15.063 20.1927 14.8313 20.3472L9.46211 23.9026L9.46094 23.9034L1.71699 29.0312C1.6743 28.4833 1.6528 27.934 1.65254 27.3845C1.65254 22.3139 3.48027 17.4145 6.79824 13.5891ZM27.0318 38.0464C27.0171 38.1193 26.9881 38.1887 26.9465 38.2504C26.9048 38.312 26.8514 38.3648 26.7892 38.4057L22.1723 41.4632L13.6025 28.6828C13.4877 28.5116 13.3096 28.3929 13.1073 28.3531C12.905 28.3132 12.6952 28.3553 12.5239 28.4701C12.3527 28.5849 12.2341 28.7631 12.1942 28.9654C12.1543 29.1676 12.1964 29.3775 12.3112 29.5487L20.8757 42.3219L14.2843 46.6871C7.73447 43.8221 3.04727 37.772 1.92041 30.732L9.67334 25.6146L10.5656 26.946C10.6368 27.0521 10.7331 27.1391 10.8459 27.1991C10.9586 27.2592 11.0845 27.2906 11.2123 27.2904C11.3531 27.2903 11.4913 27.2519 11.612 27.1793C11.7327 27.1068 11.8314 27.0028 11.8976 26.8785C11.9639 26.7542 11.9951 26.6143 11.988 26.4737C11.9809 26.333 11.9357 26.1969 11.8573 26.08L10.9712 24.7582L15.6899 21.6435C15.7516 21.6023 15.8209 21.5738 15.8938 21.5597C15.9666 21.5455 16.0415 21.546 16.1142 21.5611C16.1871 21.5758 16.2564 21.6047 16.318 21.6463C16.3797 21.6879 16.4326 21.7412 16.4735 21.8033L26.9492 37.6221C26.9903 37.6838 27.0188 37.7531 27.033 37.8259C27.0471 37.8987 27.0469 37.9737 27.0318 38.0464ZM47.7272 23.8193C47.6743 24.0836 47.5695 24.3348 47.4188 24.5583C47.2681 24.7817 47.0746 24.9731 46.8494 25.1213L44.1208 26.9283L44.1182 26.9299L34.3789 33.3798C33.6528 33.8619 32.7715 34.0523 31.9111 33.913C30.6655 33.7119 29.3899 33.9877 28.3386 34.6854L27.3174 35.3618L18.7374 22.4059L20.9553 12.8254C21.5264 10.3573 21.2254 7.7575 20.1374 5.49275C20.1276 5.4692 20.1167 5.44616 20.1046 5.42371C19.8947 4.99404 19.6571 4.57851 19.3932 4.17977C18.8774 3.40076 19.0914 2.34754 19.8707 1.83143C20.5292 1.39539 21.4188 1.47781 21.9856 2.02752L23.4707 3.46717C25.0772 5.02479 26.3379 6.95642 27.116 9.05379L27.9247 11.2324L27.9293 11.2438L27.9354 11.2591C27.9411 11.2724 27.9465 11.2846 27.9522 11.2949C27.9678 11.3277 27.985 11.3601 28.0056 11.3911C28.0619 11.4763 28.1345 11.5495 28.2191 11.6066C28.3037 11.6637 28.3988 11.7035 28.4989 11.7239C28.5989 11.7442 28.702 11.7446 28.8022 11.7251C28.9024 11.7055 28.9978 11.6665 29.0829 11.61L37.3749 6.11912C38.3179 5.49471 39.5932 5.75369 40.2177 6.69666C40.8422 7.63963 40.583 8.91492 39.64 9.53943L38.9202 10.0162L37.3139 11.0801C37.3115 11.0817 37.31 11.0832 37.3077 11.0844C37.2985 11.0908 37.2898 11.097 37.2825 11.103C36.9507 11.3468 36.8648 11.8102 37.0949 12.1574C37.1513 12.2426 37.2239 12.3158 37.3085 12.3729C37.3932 12.43 37.4883 12.4699 37.5884 12.4902C37.6884 12.5105 37.7916 12.5109 37.8918 12.4914C37.992 12.4719 38.0874 12.4328 38.1726 12.3763L39.7793 11.3121C40.0035 11.163 40.2551 11.0598 40.5194 11.0084C40.7837 10.9571 41.0556 10.9586 41.3193 11.013C41.5836 11.0659 41.8346 11.1708 42.0581 11.3214C42.2815 11.4721 42.4727 11.6657 42.6208 11.8908C42.7702 12.115 42.8737 12.3666 42.9253 12.6311C42.9768 12.8955 42.9754 13.1676 42.9211 13.4315C42.8682 13.6958 42.7633 13.947 42.6127 14.1705C42.462 14.394 42.2684 14.5853 42.0433 14.7335L39.7171 16.2742C39.6319 16.3305 39.5587 16.4031 39.5016 16.4877C39.4444 16.5723 39.4046 16.6674 39.3842 16.7675C39.3639 16.8675 39.3635 16.9706 39.383 17.0708C39.4026 17.1711 39.4417 17.2665 39.4981 17.3515C39.5544 17.4367 39.627 17.51 39.7116 17.5671C39.7963 17.6242 39.8913 17.664 39.9914 17.6844C40.0914 17.7047 40.1945 17.7051 40.2947 17.6856C40.3949 17.666 40.4903 17.6269 40.5754 17.5705L40.9356 17.332L42.1814 16.5069C43.1247 15.8825 44.3996 16.1415 45.0241 17.0845C45.6485 18.0278 45.3896 19.3027 44.4466 19.9276L43.2846 20.697C43.2785 20.7009 43.2724 20.7051 43.2663 20.7092L42.1203 21.4679C42.0351 21.5243 41.9619 21.5969 41.9048 21.6816C41.8477 21.7662 41.8079 21.8613 41.7875 21.9614C41.7672 22.0615 41.7668 22.1646 41.7863 22.2648C41.8058 22.3651 41.8449 22.4605 41.9014 22.5456C41.9577 22.6308 42.0302 22.704 42.1149 22.7611C42.1995 22.8183 42.2946 22.8581 42.3946 22.8785C42.4947 22.8988 42.5978 22.8992 42.698 22.8797C42.7982 22.8601 42.8936 22.821 42.9787 22.7645L43.3388 22.5262L44.5851 21.7011C44.8092 21.5516 45.0609 21.4481 45.3254 21.3966C45.5898 21.3452 45.8619 21.3467 46.1258 21.4013C46.6629 21.5099 47.1253 21.822 47.4277 22.2786C47.577 22.5029 47.6803 22.7545 47.7317 23.019C47.7831 23.2834 47.7816 23.5555 47.7272 23.8193Z" fill="#090909"/>
    <path d="M10 24.5L22 42.5" stroke="#DD2D34" stroke-width="1.7" stroke-linecap="round"/>
  </g>
  <defs>
    <clipPath id="clip0_1_887">
      <rect width="50" height="50" fill="white"/>
    </clipPath>
  </defs>
  <g transform="translate(50, 100)">
    <rect x="4.38086" width="19.6127" height="19.6127" transform="rotate(12.906 4.38086 0)" fill="#DD2D34"/>
    <path d="M16.1594 7.74902L10.0452 13.4212L7.45949 10.6618L5.74902 12.2646L9.92638 16.7226L17.749 9.47215L16.1594 7.74902Z" fill="white"/>
  </g>
</svg>
