<svg width="36" height="36" viewBox="0 0 36 36" fill="none" xmlns="http://www.w3.org/2000/svg">
<rect x="0.238281" width="35.5698" height="35.5698" rx="17.7849" fill="#DD2D34"/>
<g clip-path="url(#clip0_580_2559)">
<path d="M24.218 23.9828L24.2211 23.9823V19.4404C24.2211 17.2185 23.7428 15.5069 21.1452 15.5069C19.8964 15.5069 19.0584 16.1921 18.7163 16.8418H18.6802V15.7143H16.2173V23.9823H18.7819V19.8883C18.7819 18.8104 18.9862 17.768 20.3211 17.768C21.6364 17.768 21.656 18.9982 21.656 19.9574V23.9828H24.218ZM12.0413 15.7148H14.6089V23.9828H12.0413V15.7148ZM13.324 11.5986C12.5031 11.5986 11.8369 12.2648 11.8369 13.0858C11.8369 13.9067 12.5031 14.5868 13.324 14.5868C14.145 14.5868 14.8112 13.9067 14.8112 13.0858C14.8109 12.6914 14.6541 12.3133 14.3753 12.0345C14.0965 11.7557 13.7184 11.5989 13.324 11.5986Z" fill="white"/>
</g>
<defs>
<clipPath id="clip0_580_2559">
<rect width="12.3842" height="12.3842" fill="white" transform="translate(11.8369 11.5986)"/>
</clipPath>
</defs>
</svg>
