<svg width="37" height="36" viewBox="0 0 37 36" fill="none" xmlns="http://www.w3.org/2000/svg">
<rect x="0.930176" y="0.214844" width="35.5698" height="35.5698" rx="17.7849" fill="#4800FF"/>
<g clip-path="url(#clip0_139_253)">
<path d="M24.9104 24.1977L24.9135 24.1971V19.6552C24.9135 17.4333 24.4351 15.7217 21.8376 15.7217C20.5888 15.7217 19.7508 16.407 19.4087 17.0566H19.3726V15.9292H16.9097V24.1971H19.4742V20.1031C19.4742 19.0252 19.6786 17.9829 21.0135 17.9829C22.3288 17.9829 22.3484 19.213 22.3484 20.1723V24.1977H24.9104ZM12.7336 15.9297H15.3013V24.1977H12.7336V15.9297ZM14.0164 11.8135C13.1955 11.8135 12.5293 12.4796 12.5293 13.3006C12.5293 14.1216 13.1955 14.8017 14.0164 14.8017C14.8374 14.8017 15.5036 14.1216 15.5036 13.3006C15.5033 12.9063 15.3465 12.5282 15.0677 12.2493C14.7889 11.9705 14.4108 11.8137 14.0164 11.8135Z" fill="white"/>
</g>
<defs>
<clipPath id="clip0_139_253">
<rect width="12.3842" height="12.3842" fill="white" transform="translate(12.5293 11.8135)"/>
</clipPath>
</defs>
</svg>
