<svg xmlns="http://www.w3.org/2000/svg" width="15" height="12" viewBox="0 0 15 12" fill="none">
  <path fill-rule="evenodd" clip-rule="evenodd" d="M1.37635 0.910754L5.58386 5.12009C6.50152 6.03599 8.00159 6.03678 8.92002 5.12009L13.1275 0.910754C13.1375 0.900863 13.1451 0.888905 13.1499 0.875727C13.1547 0.862549 13.1566 0.848474 13.1554 0.834499C13.1541 0.820525 13.1498 0.806994 13.1428 0.794866C13.1357 0.782737 13.1261 0.772308 13.1146 0.764319C12.6854 0.46503 12.1633 0.287598 11.6008 0.287598H2.90306C2.34059 0.287598 1.81845 0.46506 1.38931 0.764319C1.37778 0.772308 1.36814 0.782737 1.36109 0.794866C1.35404 0.806994 1.34975 0.820525 1.34851 0.834499C1.34727 0.848474 1.34913 0.862549 1.35394 0.875727C1.35875 0.888905 1.3664 0.900863 1.37635 0.910754ZM0.251954 2.93867C0.251611 2.51098 0.355552 2.08965 0.554772 1.71119C0.561726 1.69785 0.571731 1.68633 0.583973 1.67759C0.596214 1.66884 0.610347 1.6631 0.625223 1.66084C0.640099 1.65858 0.655297 1.65987 0.669584 1.66459C0.68387 1.66931 0.696841 1.67733 0.707443 1.68801L4.86169 5.84225C6.1772 7.15969 8.32591 7.16045 9.64222 5.84225L13.7965 1.68801C13.8071 1.67733 13.82 1.66931 13.8343 1.66459C13.8486 1.65987 13.8638 1.65858 13.8787 1.66084C13.8936 1.6631 13.9077 1.66884 13.9199 1.67759C13.9322 1.68633 13.9422 1.69785 13.9491 1.71119C14.1483 2.08966 14.2523 2.51098 14.252 2.93867V8.47295C14.252 9.93587 13.0619 11.1241 11.6008 11.1241H2.90306C1.44199 11.1241 0.251954 9.93587 0.251954 8.47295V2.93867Z" fill="#DD2D34"/>
</svg>