<svg xmlns="http://www.w3.org/2000/svg" width="1000" height="1000" viewBox="0 0 520 287" fill="none">
  <path d="M519.794 120.44L514.234 134.738L511.057 165.716L503.908 182.396L488.817 191.928L461.016 221.317L443.541 226.878L391.911 213.374L377.613 224.495L364.11 226.083L342.664 235.615L329.161 249.118L320.423 255.473L310.891 257.856L304.537 261.827L293.417 280.096L287.062 286.451L272.765 284.068L271.176 263.416L279.119 241.175L295.005 228.466L298.183 222.906L300.566 216.552L302.154 210.197L301.36 203.048L298.977 199.871L295.005 198.283L283.885 192.722L255.29 190.339L244.17 194.311L237.815 204.637L227.489 230.055L218.752 237.204L210.015 234.026L205.249 223.7L209.22 207.814L199.688 189.545L193.334 182.396L183.802 179.219H173.476L140.91 191.928L132.967 175.248L126.612 144.27L125.024 139.504L119.464 134.738L109.932 130.766H98.8115L87.6912 133.149L56.713 152.213L46.3871 151.418L41.6212 136.327L43.2099 133.149L29.7066 127.589L18.5864 126L0.317383 122.029L26.5294 33.0665L42.4156 0.5L50.3587 7.64872L51.9474 14.0032L53.5358 22.7405L57.5074 29.095L63.862 33.8609L70.2164 36.2438L75.7766 37.0381H93.2512L118.669 45.7755L133.761 48.1585L143.293 52.13L162.356 47.3641L187.774 45.7755L198.894 44.1869L206.043 40.2154L229.078 22.7405L236.227 18.769L244.17 15.5918L248.936 16.3862L252.907 20.3577L256.879 25.1235L264.027 29.8894L277.531 37.8324H286.268L298.977 40.2154L333.927 56.1015L341.87 57.6901L349.018 56.8958L367.287 44.9811L377.613 42.5982L386.351 44.9811L480.079 97.4055L484.845 98.1997L494.377 93.434L498.348 95.8169L501.525 99.7884L503.908 104.554L508.674 110.909L519.794 120.44Z" fill="#F8F8F8"/>
<path d="M382.062 164.457L382.856 198.612L390.005 217.676L422.572 252.625H413.04L366.97 268.511L362.204 274.072L358.233 284.398L353.467 308.227L348.701 316.17L343.141 319.347L331.226 320.936L324.872 325.701L316.929 339.205L315.34 353.502L320.106 385.275V397.984L316.134 413.075L309.78 425.784L301.043 430.55L281.979 429.756L276.419 431.345L272.447 437.699L257.356 509.187L256.561 522.69L252.59 519.512L232.732 523.484L219.229 517.924L193.017 504.421L184.279 496.478L177.925 489.329L173.159 478.209V476.62L172.365 471.06L173.159 459.145V454.379V448.819L171.57 442.465L169.982 435.316L164.422 427.373L158.067 422.607L147.741 416.253L143.769 410.692L141.387 405.132L140.592 394.012L137.415 386.863L130.266 380.509L103.26 361.445L95.3169 352.708L90.551 343.971L85.7851 329.673L81.8136 324.907L73.0762 320.141L71.4877 316.17L70.6933 311.404L72.2818 305.844L75.4592 300.284L84.1964 289.958L86.5795 284.398L88.168 277.249V274.866L87.3738 273.277L71.4877 263.746L68.3103 258.98L66.7218 255.008L65.9274 246.271V243.094L66.7218 238.328L67.5161 233.562L69.899 221.647L70.6933 213.704V206.555L68.3103 195.435L64.3387 188.286L55.6015 176.372L27.0064 118.387L23.8292 108.061L23.0349 103.295L23.8292 96.941V90.5865L21.4462 87.4092L16.6803 86.615L11.1203 85.8206L7.14872 84.232L3.97154 79.4662V74.7004L4.76565 70.7288L6.35436 63.58V61.1972V56.4313L5.56001 50.8712L0 38.9565L0.794114 33.3964L5.56001 28.6305L74.6649 11.95L95.3169 0.0354004L113.586 4.00694L124.706 5.59565L138.209 11.1558L136.621 14.333L141.387 29.4249L151.713 30.2191L182.691 11.1558L193.811 8.77283H204.931L214.463 12.7444L220.023 17.5103L221.612 22.276L227.966 53.2541L235.909 69.9345L268.476 57.2256H278.802L288.334 60.4028L294.688 67.5515L304.22 85.8206L300.248 101.707L305.014 112.033L313.751 115.21L322.489 108.061L332.815 82.6435L339.169 72.3174L350.289 68.3459L378.885 70.7288L390.005 76.289L393.976 77.8776L396.359 81.0549L397.154 88.2036L395.565 94.5581L393.182 100.913L390.005 106.473L374.119 119.182L366.176 141.422L367.764 162.074L382.062 164.457Z" fill="#F8F8F8"/>
<path d="M134.015 36.3129L129.249 55.3762L125.277 67.2908L117.334 72.0567L57.7615 70.468L15.6631 52.9933L5.33718 56.9648L0.571289 41.0787L3.74847 28.3698L12.4859 14.0723L22.0177 1.36328H81.5908L89.5336 5.33482L101.448 22.0153L110.186 28.3698L134.015 36.3129Z" fill="#DD2D34" stroke="white" stroke-linecap="round" stroke-linejoin="round"/>
<path d="M63.0186 47.3604L53.4868 60.0694L44.7494 74.367L41.5722 87.0758L46.3381 102.962L56.664 98.9904L98.7625 116.465L94.7909 126.791L91.6138 144.266L90.025 162.535L92.4079 172.861L88.4363 182.393L82.8763 187.953L75.7276 187.159L63.813 167.301L48.721 159.358L41.5722 150.62L9.00558 115.671L1.85686 96.6075L1.0625 62.4524L7.41711 56.0979L18.5374 37.8288L24.8917 33.8572L34.4235 31.4743L43.1609 25.1198L56.664 11.6166L78.1104 2.08493L91.6138 0.496338L97.1738 9.23365L95.5853 23.5312L91.6138 29.0913L71.7561 39.4174L63.0186 47.3604Z" fill="#DD2D34" stroke="white" stroke-linecap="round" stroke-linejoin="round"/>
<path d="M149.56 43.4066L153.532 91.8594L150.354 106.951L146.383 114.894L141.617 120.454L138.44 127.603V137.929L129.702 140.312L122.553 136.341L116.199 128.398L104.284 106.951L97.1354 103.774L39.9454 114.1L30.4139 111.717L13.7334 96.6253L3.40724 91.8594L1.02441 81.5333L2.61313 63.2642L5.79031 45.7895L9.76185 35.4635L69.3347 37.0522L77.2777 32.2863L81.2493 20.3717L86.0154 1.30835L108.256 8.45707L129.702 22.7546L149.56 43.4066Z" fill="#DD2D34" stroke="white" stroke-linecap="round" stroke-linejoin="round"/>
<path d="M217.407 22.8644L227.734 27.6303L244.414 42.7221L253.946 45.1051L311.136 34.779L318.285 37.9562L330.199 59.4026L336.554 67.3457L343.702 71.3172L352.44 68.9343L354.823 84.0261L346.879 95.9408L334.965 106.267L327.022 119.77L325.434 161.074L322.256 178.549L311.93 212.704V230.179L314.313 245.271L315.902 273.866L316.696 280.22L327.816 290.546L322.256 299.283L306.37 309.609L256.329 366.005L255.534 368.388L254.74 377.126L238.854 380.303L215.025 366.005L209.464 366.799L205.493 369.977L202.316 375.537L195.961 379.508L182.458 384.274L176.104 381.892L172.926 377.92L171.338 372.36L168.955 366.799L163.395 362.034L156.246 356.474L150.686 357.268L147.508 360.445L142.743 370.771L139.565 376.331L134.799 380.303L116.53 389.04L37.8941 407.309L29.1566 400.955L28.3623 396.983L29.1566 392.217L31.5395 388.246L36.3054 383.48L44.2484 372.36L43.4541 367.594L41.8656 365.211L32.3338 359.651L26.7736 350.913L24.3908 340.587L22.0079 321.524L18.0364 312.787L12.4761 307.226L7.71024 303.255L2.94435 296.901L1.35588 289.752L0.561523 270.688L1.35588 257.185L16.4477 185.697L20.4192 179.343L25.9795 177.754L45.0428 178.549L53.7802 173.783L60.1346 161.074L64.1061 145.982V133.273L59.3402 101.501L60.9289 87.2034L68.872 73.7001L75.2264 68.9343L87.141 67.3457L92.7012 64.1684L97.4671 56.2253L102.233 32.3961L106.204 22.0701L110.97 16.5099L157.04 0.623779H166.572L173.72 9.36121L188.813 17.3043L200.727 37.162L207.876 37.9562L213.436 32.3961L217.407 22.8644Z" fill="#DD2D34" stroke="white" stroke-linecap="round" stroke-linejoin="round"/>
<path d="M587.734 211.46L586.145 228.935L584.556 233.701L579.791 238.467L575.024 240.055H556.755L550.401 241.644L548.812 245.616L551.195 249.587L559.138 255.942V260.707L555.961 264.679L548.812 271.033L544.841 277.388L543.252 285.331V290.097L544.047 292.48L544.841 293.274L548.018 294.068L554.373 293.274H556.755L558.344 294.863L559.933 296.451L562.316 302.806L566.287 306.777L571.053 309.954L573.436 314.72L575.024 319.486L575.819 325.046L578.996 337.755L579.791 346.493L575.024 365.556L575.819 375.088L577.407 381.442L582.173 384.619L586.939 383.825L597.265 380.648H600.442L604.414 382.236L607.591 388.591L620.3 405.271L596.471 425.923L586.939 441.015L582.968 455.313L578.996 465.639L573.436 470.405L567.081 472.787H559.933L551.99 475.17L548.812 477.553L548.018 482.319L550.401 487.085L555.961 496.617L556.755 499L555.167 503.765L544.047 513.297L540.869 518.857L540.075 523.623L545.635 535.538L546.43 538.715L545.635 542.687L542.458 553.013L540.869 561.75L543.252 569.693L528.955 584.785L521.012 599.877L517.04 602.26H511.48L501.154 598.288L495.594 597.494L441.581 607.025L432.844 606.231L426.489 603.848L400.277 601.465L394.717 602.26L389.951 604.643L387.568 606.231L382.802 610.203L379.625 610.997L352.618 610.203L349.441 613.38L347.058 616.557L345.47 622.117L343.881 630.06L343.087 634.032L339.91 638.798L338.321 643.564L336.732 649.124V653.89V660.244V665.01L338.321 670.57L340.704 676.13L343.881 680.896L346.264 686.456L344.675 691.222L342.292 695.988L339.115 700.754L338.321 701.548L333.555 712.668L331.172 717.434L324.818 724.583L307.343 732.526L301.783 737.292L297.811 742.058L295.428 746.823L293.84 756.355L292.251 765.887L289.868 777.007L235.855 796.865L227.912 797.659L219.175 795.276V790.51L221.558 785.745L223.94 780.979L222.352 777.007L215.997 773.83L200.906 775.419L192.963 778.596L187.402 783.362L183.431 788.922L177.871 795.276L166.751 801.631L159.602 804.014L85.7312 798.453L76.9936 799.248L57.9305 804.808H49.9874L42.0443 803.219L37.2782 799.248L33.3066 795.276L32.5125 789.716L33.3066 784.95L36.4841 780.185L40.4556 777.007L45.2213 776.213L58.7246 779.39H61.1074L64.2848 776.213L65.0789 771.447L63.4907 767.476L60.3133 760.327V758.738V757.15L65.8736 746.823L67.4623 742.058V736.498L63.4907 729.349L56.3418 721.406L26.1582 701.548L25.3636 699.959L24.5695 697.577L16.6264 666.598L14.2436 659.45L5.50589 648.329L0.740234 649.124L1.53435 640.386L2.32895 638.004L52.3702 581.608L68.2564 571.281L73.8166 562.544L62.6961 552.218L61.902 545.864L60.3133 517.269L57.9305 502.177V484.702L68.2564 450.547L71.4338 433.072L73.022 391.768L80.9651 378.265L92.8797 367.939L100.823 356.024L98.44 340.932V330.606L101.617 323.458L106.383 317.897L110.355 309.954L113.532 294.863L109.56 246.41L107.972 232.907L98.44 205.106L99.2346 192.397L107.178 168.568L109.56 155.064V143.15L97.6459 112.966L99.2346 104.229L102.411 95.4913L100.029 87.5482L94.4684 82.7825L88.9082 80.3995L96.0571 63.719L99.2346 32.7411L104.794 18.4435L128.624 8.11747L141.333 10.5004L150.865 21.6208L157.219 25.5923H162.779L174.694 20.8264L179.459 22.415L184.225 27.9752L187.402 29.5639L192.963 32.7411H197.728L202.495 30.3581L204.877 27.1809L208.054 22.415L213.615 17.6493L219.175 16.8549L223.94 17.6493L254.125 26.3866L296.223 18.4435L304.96 15.2663L310.52 17.6493L318.463 24.0036L322.435 23.2094L331.172 16.0605L338.321 12.8834L346.264 12.089H354.207L360.561 9.70618L372.476 0.96875L405.837 11.2948L410.603 16.8549L415.369 24.0036L424.106 42.2727L424.901 50.2158L422.517 58.9532L420.929 63.719L419.34 68.4849V72.4564L420.929 79.6051L424.901 85.1654L502.743 154.27L509.097 156.653L517.834 151.093L521.806 150.299L525.777 153.476L528.161 158.242L530.543 170.951L531.338 181.277L532.132 186.837L536.898 194.78L555.961 209.077L564.699 213.049L572.642 213.843L587.734 211.46Z" fill="#DD2D34" stroke="white" stroke-linecap="round" stroke-linejoin="round"/>





</svg>
