<svg xmlns="http://www.w3.org/2000/svg" width="113" height="115" viewBox="0 0 113 115" fill="none">
  <path d="M4 26V59L22.5 36.5L4 26Z" fill="#DD2D34"/>
  <path d="M8 25.3125L29.2679 38.3125L29.2679 18.827L8 25.3125Z" fill="#DD2D34"/>
  <path d="M95.8408 92.7705L108.401 87.9225L105.933 74.1053L95.8408 92.7705Z" fill="#DD2D34"/>
  <path d="M90.0639 3.44485L42.9418 0L18.6208 17.2242L0 62.0073L21.0909 107.556H34.2015V114.828L93.864 107.556L112.485 63.5383L109.065 30.2381L99.0101 24.0202L106.04 19.3333L90.0639 3.44485Z" fill="white"/>
  <g clip-path="url(#clip0_1_739)" transform="translate(30, 30)">
    <path d="M31.7582 25.417C31.7582 34.1913 24.6502 41.3008 15.8791 41.3008C7.10795 41.3008 0 34.1897 0 25.417C0 16.6443 7.10969 9.5332 15.8791 9.5332C24.6485 9.5332 31.7582 16.6443 31.7582 25.417Z" fill="#797979"/>
    <path d="M34.95 9.5332C31.3888 9.5332 28.1103 10.7197 25.4609 12.7005L25.4736 12.7021C25.9947 13.2056 26.5696 13.5599 27.0128 14.1395L23.7089 14.1919C23.1911 14.7146 22.7194 15.2832 22.2746 15.8741H28.1007C28.5439 16.4061 28.9537 16.8685 29.3254 17.4561H21.2184C20.9214 17.9676 20.6466 18.4934 20.4067 19.0397H30.2484C30.5057 19.5844 30.736 19.9959 30.9315 20.5726H19.8238C19.6475 21.1206 19.4967 21.6812 19.3822 22.253H31.3968C31.5144 22.8026 31.6048 23.3108 31.6668 23.8287H19.1439C19.0915 24.3513 19.0645 24.8818 19.0645 25.4172H31.7572C31.7572 25.9795 31.7175 26.5004 31.6604 27.0056H19.1439C19.1979 27.5441 19.2773 28.073 19.3822 28.5941H31.3776C31.2538 29.1087 31.1107 29.6264 30.9313 30.1633H19.7873C19.9555 30.7065 20.1606 31.2339 20.3844 31.7485H30.2484C29.9752 32.3267 29.6655 32.7889 29.324 33.3305H21.19C21.5109 33.8864 21.8651 34.4169 22.2494 34.9252L28.1009 35.0125C27.6021 35.6112 26.9621 35.9719 26.379 36.4961C26.4107 36.5215 25.4466 36.4929 23.5484 36.4628C26.4362 39.4426 30.4723 41.3009 34.9498 41.3009C43.7225 41.3009 50.8336 34.1897 50.8336 25.4172C50.8336 16.6446 43.7241 9.5332 34.95 9.5332Z" fill="#A6A6A6"/>
  </g>
  <defs>
    <clipPath id="clip0_1_739">
      <rect width="50.833" height="50.833" fill="white"/>
    </clipPath>
  </defs>
</svg>
