<svg width="98" height="100" viewBox="0 0 98 100" fill="none" xmlns="http://www.w3.org/2000/svg">
<path d="M3.4834 22.6421V51.3803L19.5942 31.7861L3.4834 22.6421Z" fill="#DD2D34"/>
<path d="M6.9668 22.0435L25.4881 33.3646L25.4881 16.3955L6.9668 22.0435Z" fill="#DD2D34"/>
<path d="M83.4639 80.7896L94.4016 76.5676L92.2531 64.5349L83.4639 80.7896Z" fill="#DD2D34"/>
<path d="M78.4327 2.99997L37.3962 0L16.216 14.9998L0 53.9994L18.3671 93.6656H29.7846L29.7846 99.9989L81.7421 93.6656L97.9581 55.3327L94.9796 26.333L86.2235 20.9181L92.3459 16.8365L78.4327 2.99997Z" fill="#F5F5F5"/>
<g clip-path="url(#clip0_1_1379)">
<path d="M54.6529 50.0014C54.6529 57.6426 48.4629 63.8339 40.8245 63.8339C33.1861 63.8339 26.9961 57.6412 26.9961 50.0014C26.9961 42.3617 33.1876 36.1689 40.8245 36.1689C48.4614 36.1689 54.6529 42.3617 54.6529 50.0014Z" fill="#797979"/>
<path d="M57.4317 36.1689C54.3304 36.1689 51.4753 37.2023 49.1681 38.9272L49.1791 38.9286C49.6329 39.367 50.1336 39.6756 50.5195 40.1804L47.6423 40.226C47.1914 40.6812 46.7806 41.1763 46.3933 41.691H51.467C51.8529 42.1543 52.2097 42.5569 52.5335 43.0687H45.4734C45.2148 43.5141 44.9755 43.9719 44.7666 44.4477H53.3373C53.5613 44.9221 53.7619 45.2805 53.9321 45.7826H44.259C44.1054 46.2599 43.9741 46.7481 43.8744 47.246H54.3373C54.4398 47.7247 54.5185 48.1672 54.5725 48.6183H43.6668C43.6212 49.0734 43.5977 49.5354 43.5977 50.0016H54.6512C54.6512 50.4913 54.6166 50.9449 54.5669 51.3849H43.6668C43.7139 51.8538 43.783 52.3144 43.8744 52.7682H54.3207C54.2128 53.2164 54.0882 53.6672 53.932 54.1348H44.2271C44.3737 54.6079 44.5522 55.0671 44.7472 55.5153H53.3373C53.0994 56.0188 52.8296 56.4213 52.5323 56.893H45.4487C45.7281 57.3771 46.0366 57.839 46.3713 58.2817L51.4671 58.3577C51.0328 58.8792 50.4754 59.1932 49.9676 59.6497C49.9952 59.6719 49.1556 59.647 47.5026 59.6207C50.0173 62.2158 53.5322 63.8341 57.4315 63.8341C65.0713 63.8341 71.264 57.6412 71.264 50.0016C71.264 42.362 65.0726 36.1689 57.4317 36.1689Z" fill="#A6A6A6"/>
</g>
<defs>
<clipPath id="clip0_1_1379">
<rect width="44.2682" height="44.2682" fill="white" transform="translate(26.9961 27.8672)"/>
</clipPath>
</defs>
</svg>
