<svg xmlns="http://www.w3.org/2000/svg" width="113" height="115" viewBox="0 0 113 115" fill="none">
  <path d="M4 26V59L22.5 36.5L4 26Z" fill="#DD2D34"/>
  <path d="M8 25.3125L29.2679 38.3125L29.2679 18.827L8 25.3125Z" fill="#DD2D34"/>
  <path d="M95.8408 92.7705L108.401 87.9225L105.933 74.1053L95.8408 92.7705Z" fill="#DD2D34"/>
  <path d="M90.0639 3.44485L42.9418 0L18.6208 17.2242L0 62.0073L21.0909 107.556H34.2015V114.828L93.864 107.556L112.485 63.5383L109.065 30.2381L99.0101 24.0202L106.04 19.3333L90.0639 3.44485Z" fill="white"/>
  <g clip-path="url(#clip0_1_761)"  transform="translate(36, 36)">
    <path d="M20.3091 0.797852C23.4171 0.797852 26.3745 1.50996 29.0281 2.78977C29.4451 2.97776 29.8622 3.20247 30.278 3.42719L28.4585 5.03877L25.7308 2.2283L21.0311 6.34908L18.2624 3.38299L9.61932 11.0656L15.1531 17.0986L12.9931 18.9722L18.4522 25.0053L16.2922 26.8777L24.1012 35.4591L28.7231 31.2618L32.743 35.7598C31.9462 36.3592 31.0748 36.9599 30.1286 37.484C27.1404 39.1565 23.7727 40.0331 20.3483 40.0299C9.39211 40.0299 0.4845 31.2263 0.4845 20.3971C0.445906 9.64135 9.35477 0.797852 20.3091 0.797852ZM16.6688 19.197L21.4071 14.9996L25.6536 19.6837L20.9141 23.8805L16.6688 19.197ZM20.0427 27.291L24.7423 23.0569L29.0262 27.7404L24.2873 31.9378L20.0427 27.291ZM13.2975 11.2156L18.0283 7.01824L22.2736 11.7024L17.5347 15.8991L13.2975 11.2156ZM21.9767 8.96036L25.508 5.81936L28.6926 9.30521L25.1669 12.4898L21.9767 8.96036ZM28.2637 23.3875L31.795 20.2458L34.9796 23.7672L31.4539 26.9169L28.2637 23.3875ZM31.3717 30.4712L34.8974 27.3227L38.0795 30.8086L34.555 33.9932L31.3717 30.4712ZM32.8127 14.2825L35.1626 12.1835L37.2852 14.5079L34.936 16.6056L32.8127 14.2825ZM29.78 7.35002L32.1299 5.21493L34.2538 7.57536L31.902 9.6731L29.78 7.35002ZM35.8068 21.2156L38.1567 19.1179L40.3229 21.446L37.9357 23.5437L35.8068 21.2156ZM25.2248 16.0068L28.7505 12.8589L31.9338 16.3435L28.4093 19.492L25.2248 16.0068Z" fill="#C1C1C1"/>
  </g>
  <defs>
    <clipPath id="clip0_1_761">
      <rect width="39.8384" height="39.8384" fill="white" transform="translate(0.484375 0.494141)"/>
    </clipPath>
  </defs>
</svg>
