<svg width="98" height="100" viewBox="0 0 98 100" fill="none" xmlns="http://www.w3.org/2000/svg">
<path d="M3.50391 22.6421V51.3803L19.6147 31.7861L3.50391 22.6421Z" fill="#DD2D34"/>
<path d="M6.9873 22.0435L25.5086 33.3646L25.5086 16.3955L6.9873 22.0435Z" fill="#DD2D34"/>
<path d="M83.4844 80.7896L94.4221 76.5676L92.2736 64.5349L83.4844 80.7896Z" fill="#DD2D34"/>
<path d="M78.4532 2.99997L37.4167 0L16.2365 14.9998L0.0205078 53.9994L18.3877 93.6656H29.8051L29.8051 99.9989L81.7626 93.6656L97.9786 55.3327L95.0002 26.333L86.244 20.9181L92.3664 16.8365L78.4532 2.99997Z" fill="#F5F5F5"/>
<g clip-path="url(#clip0_1_1402)">
<path d="M48.6356 32.9165C51.3422 32.9165 53.9176 33.5367 56.2286 34.6512C56.5917 34.8149 56.9549 35.0106 57.3171 35.2063L55.7325 36.6097L53.3571 34.1622L49.2644 37.7508L46.8532 35.1678L39.3263 41.8582L44.1455 47.1121L42.2644 48.7438L47.0185 53.9977L45.1375 55.6283L51.9379 63.1015L55.9629 59.4462L59.4637 63.3633C58.7699 63.8853 58.0109 64.4084 57.187 64.8649C54.5847 66.3213 51.6518 67.0848 48.6697 67.082C39.1285 67.082 31.3712 59.4153 31.3712 49.9846C31.3376 40.6179 39.0959 32.9165 48.6356 32.9165ZM45.4654 48.9395L49.5918 45.2842L53.2899 49.3634L49.1625 53.0181L45.4654 48.9395ZM48.4035 55.9882L52.4963 52.301L56.2269 56.3796L52.1 60.0349L48.4035 55.9882ZM42.5295 41.9889L46.6494 38.3336L50.3464 42.4128L46.2195 46.0675L42.5295 41.9889ZM50.0878 40.0249L53.1631 37.2895L55.9364 40.3252L52.866 43.0985L50.0878 40.0249ZM55.5629 52.5888L58.6381 49.8529L61.4114 52.9195L58.3411 55.6624L55.5629 52.5888ZM58.2695 58.7577L61.3399 56.0159L64.111 59.0515L61.0417 61.8249L58.2695 58.7577ZM59.5244 44.6597L61.5708 42.8318L63.4193 44.8559L61.3735 46.6828L59.5244 44.6597ZM56.8834 38.6225L58.9298 36.7631L60.7794 38.8187L58.7314 40.6456L56.8834 38.6225ZM62.1319 50.6975L64.1782 48.8706L66.0647 50.898L63.9858 52.7249L62.1319 50.6975ZM52.9164 46.1613L55.9868 43.42L58.759 46.4546L55.6897 49.1964L52.9164 46.1613Z" fill="#C1C1C1"/>
</g>
<defs>
<clipPath id="clip0_1_1402">
<rect width="34.6935" height="34.6935" fill="white" transform="translate(31.3711 32.6523)"/>
</clipPath>
</defs>
</svg>
