<svg xmlns="http://www.w3.org/2000/svg" width="253" height="254" viewBox="0 0 253 254" fill="none">
  <g clip-path="url(#clip0_1_1121)">
    <path d="M231.752 192.29C241.814 174.636 247.565 154.208 247.565 132.435C247.565 65.5719 193.363 11.3691 126.5 11.3691C59.6373 11.3691 5.43457 65.5719 5.43457 132.435C5.43457 154.208 11.1864 174.636 21.2476 192.29H231.752Z" fill="#EBEBEB"/>
    <path d="M113.892 252.849C118.08 253.282 122.289 253.5 126.5 253.5C130.809 253.5 135.065 253.271 139.258 252.831V186.791H113.892L113.892 252.849Z" fill="#EC4040"/>
    <path d="M139.258 186.791H113.892V202.046C117.958 203.397 122.215 204.085 126.501 204.086C130.9 204.086 135.2 203.36 139.257 201.996V186.791H139.258Z" fill="#C14040"/>
    <path d="M154.575 175.594L166.525 157.139C164.025 156.366 161.498 155.685 158.949 155.095C153.932 150.079 152.66 140.568 152.431 133.914C149.813 136.963 147.066 139.514 144.441 141.552C139.325 145.525 133.013 147.682 126.512 147.682C120.011 147.682 113.699 145.525 108.584 141.552C105.959 139.514 103.211 136.963 100.593 133.914C100.364 140.568 99.0924 150.079 94.0759 155.095C91.5211 155.686 88.9886 156.369 86.4834 157.144L98.4258 175.591C101.459 180.277 105.618 184.13 110.522 186.797C115.426 189.464 120.919 190.861 126.501 190.861C132.083 190.862 137.576 189.465 142.48 186.798C147.384 184.131 151.542 180.28 154.575 175.594Z" fill="#FFAA7B"/>
    <path d="M108.585 141.552C105.96 139.514 103.213 136.963 100.594 133.914C100.365 140.568 99.0934 150.079 94.0768 155.095C91.522 155.686 88.9895 156.369 86.4844 157.144L94.7612 169.93C100.588 172.556 106.829 173.9 112.141 171.72C123.612 167.013 125.974 153.562 126.454 147.682C119.975 147.668 113.685 145.513 108.585 141.552Z" fill="#FC9460"/>
    <path d="M103.886 163.9C103.317 164.052 102.756 164.232 102.205 164.442C98.1726 165.977 92.7687 169.853 89.7228 179.599C86.7787 179.649 73.3297 180.36 64.5483 189.005C59.5515 193.925 57.0176 200.53 57.0176 208.636V231.577C74.018 243.512 94.2259 251.188 116.095 253.05V170.11L103.886 163.9Z" fill="#547557"/>
    <path d="M89.0807 156.37C42.7901 171.465 29.5877 174.164 24.0133 185.534C23.023 187.553 22.1034 189.825 21.2471 192.29C30.2839 208.147 42.8015 221.761 57.7586 232.096V208.635C57.7586 179.831 90.2726 180.337 90.2726 180.337C93.6599 168.946 100.195 165.416 104.905 164.418L89.0807 156.37Z" fill="#415E49"/>
    <path d="M231.752 192.29C230.896 189.825 229.976 187.553 228.986 185.534C223.412 174.164 210.209 171.465 163.918 156.37L147.987 164.473V251.598C183.894 245.166 214.306 222.902 231.752 192.29Z" fill="#54755D"/>
    <path d="M173.658 78.6147C176.872 65.5086 179.496 45.8705 172.548 29.5303C159.11 -2.06707 122.541 -0.11917 112.849 0.993635C111.832 1.11025 111.322 2.27099 111.9 3.11547C117.709 11.5959 94.9507 3.91252 82.5809 29.8598C74.7408 46.3044 76.711 65.6658 79.577 78.6152L173.658 78.6147Z" fill="#56415E"/>
    <path d="M125.969 35.3142C125.969 35.3142 122.326 26.9365 131.551 20.0185C140.764 13.1095 127.03 0.696149 126.995 0.664029C120.816 0.27267 115.682 0.667983 112.848 0.993621C111.831 1.11024 111.321 2.27097 111.899 3.11546C117.708 11.5959 94.9497 3.91251 82.5799 29.8598C74.7399 46.3043 76.71 65.6657 79.576 78.6152H101.082L107.913 75.9014L125.969 35.3142Z" fill="#45304C"/>
    <path d="M175.547 76.9539C173.519 75.0959 168.986 76.0378 167.24 77.1753C167.621 79.5671 167.646 82.002 167.314 84.4011L165.254 99.4091C165.254 100.619 165.216 101.806 165.146 102.972C170.17 104.487 173.16 99.9764 173.581 96.8806C173.761 95.5479 174.058 94.2336 174.468 92.9527C175.805 88.7792 180.626 81.6092 175.547 76.9539Z" fill="#FFAA7B"/>
    <path d="M77.4539 76.9539C79.4814 75.0959 84.0141 76.0378 85.7604 77.1753C85.3794 79.5671 85.3546 82.0021 85.6868 84.4011L87.7473 99.4091C87.7473 100.619 87.7854 101.806 87.8556 102.972C82.8307 104.487 79.8406 99.9764 79.4201 96.8806C79.2396 95.5479 78.9427 94.2336 78.5326 92.9527C77.196 88.7792 72.3741 81.6092 77.4539 76.9539Z" fill="#FC9460"/>
    <path d="M164.709 68.9474C162.426 65.3653 163.182 62.4395 163.219 59.0136C163.219 59.0136 165.146 43.2422 145.721 37.6421C140.098 36.0208 132.163 35.0513 124.032 35.3631C118.373 39.3523 114.647 45.2059 114.647 53.5005C114.647 57.3133 115.469 60.292 113.13 64.1572C110.607 68.3252 109.139 74.3374 109.973 80.7316L112.072 96.8352C112.072 119.986 123.807 135.723 133.789 143.886C135.198 145.033 136.71 146.047 138.306 146.915C140.489 145.955 142.545 144.731 144.429 143.269C154.228 135.659 165.748 120.99 165.748 99.4091L167.808 84.4011C168.62 78.4882 167.211 72.8723 164.709 68.9474Z" fill="#FFC7AB"/>
    <path d="M133.89 142.943C124.09 134.929 112.57 119.481 112.57 96.7531L110.509 80.9441C109.691 74.6675 111.131 68.765 113.608 64.673C115.905 60.8785 115.098 57.9542 115.098 54.2111C115.098 45.2805 119.49 39.2243 125.969 35.3137C108.705 35.5523 89.7802 41.4039 89.7802 59.0136C89.7802 62.5675 90.5866 65.3446 88.2903 68.9478C85.8137 72.8333 84.3728 78.4378 85.1911 84.3981L87.2522 99.4096C87.2522 120.991 98.772 135.659 108.572 143.269C113.687 147.241 119.999 149.398 126.5 149.398C130.972 149.398 135.355 148.377 139.32 146.447C137.384 145.486 135.563 144.31 133.89 142.943Z" fill="#FFAA7B"/>
    <path d="M136.905 253.05C141.414 252.668 145.898 252.033 150.336 251.148V164.222L136.905 170.11V253.05Z" fill="#6D9375"/>
    <path d="M169.799 155.09C165.607 150.517 160.699 146.656 155.268 143.658C155.136 143.585 154.989 143.544 154.838 143.539C154.687 143.534 154.538 143.564 154.401 143.627C154.264 143.691 154.144 143.785 154.05 143.904C153.957 144.022 153.893 144.161 153.863 144.309C153.065 148.217 149.752 160.056 137.93 167.883C135.487 169.501 135.037 172.905 136.964 175.112L148.844 188.718C151.702 192.01 156.964 191.418 159.027 187.577C162.514 181.084 167.373 171.202 170.97 160.576C171.614 158.674 171.156 156.57 169.799 155.09Z" fill="#8BBC99"/>
    <path d="M115.078 167.884C113.081 166.562 111.219 165.048 109.517 163.362C108.081 163.247 105.328 163.253 102.206 164.441C98.2061 165.964 92.86 169.793 89.8008 179.361C91.1333 182.13 92.5271 184.87 93.9812 187.578C96.0442 191.418 101.306 192.011 104.164 188.719L116.044 175.112C117.971 172.905 117.521 169.501 115.078 167.884Z" fill="#6D9375"/>
    <path d="M110.416 164.222C102.344 156.757 99.8261 147.645 99.1452 144.309C99.1154 144.161 99.0511 144.023 98.9577 143.904C98.8642 143.786 98.7442 143.691 98.6073 143.627C98.4704 143.564 98.3204 143.534 98.1697 143.539C98.0189 143.544 97.8714 143.585 97.7393 143.658C92.3084 146.656 87.4011 150.517 83.2096 155.09C81.8522 156.57 81.3946 158.674 82.0385 160.577C84.4766 167.781 87.4948 174.641 90.2734 180.337C95.9387 161.284 110.415 164.221 110.416 164.222Z" fill="#54755B"/>
    <path d="M204.625 39.9581C198.997 47.1908 193.154 57.7699 193.154 70.5247C193.154 95.1284 162.517 135.615 193.154 143.538C218.34 150.051 232.247 152.953 241.858 169.262C245.564 157.65 247.566 145.277 247.566 132.435C247.565 95.3493 230.885 62.1658 204.625 39.9581ZM48.3754 39.9581C54.0032 47.1908 59.8464 57.7699 59.8464 70.5247C59.8464 95.1284 90.4831 135.615 59.8464 143.538C34.66 150.051 20.7529 152.953 11.1424 169.262C7.43683 157.65 5.43457 145.277 5.43457 132.435C5.43457 95.3493 22.1148 62.1658 48.3754 39.9581Z" fill="white"/>
    <path d="M216.24 213.681C213.844 203.779 207.736 198.059 202.796 194.936C199.707 192.983 195.68 195.181 195.68 198.836V231.789C203.193 226.546 210.09 220.472 216.24 213.681Z" fill="#415E47"/>
  </g>
  <defs>
    <clipPath id="clip0_1_1121">
      <rect width="253" height="253" fill="white" transform="translate(0 0.5)"/>
    </clipPath>
  </defs>
</svg>
