<svg xmlns="http://www.w3.org/2000/svg" width="113" height="140" viewBox="0 0 113 115" fill="none">
  <path d="M90.0639 3.44485L42.9418 0L18.6208 17.2242L0 62.0073L21.0909 107.556H34.2015V114.828L93.864 107.556L112.485 63.5383L109.065 30.2381L99.0101 24.0202L106.04 19.3333L90.0639 3.44485Z" fill="white"/>
  <g transform="translate(20, 30)">
    <path d="M1.48438 4.1062H18.1658" stroke="#090909" stroke-width="1.15044" stroke-linecap="round"/>
    <path d="M4.36035 7.55762H15.2896" stroke="#DD2D34" stroke-width="1.15044" stroke-linecap="round"/>
    <path d="M8.38672 0.655029L16.4398 0.65503" stroke="#090909" stroke-width="1.15044" stroke-linecap="round"/>
    <path d="M13.5645 11.5842L18.1662 11.5842" stroke="#090909" stroke-width="1.15044" stroke-linecap="round"/>
  </g>
  <g transform="translate(35, 30)" clip-path="url(#clip0_1_902)">
    <path d="M15.1165 43.7138C14.9979 43.7139 14.8807 43.688 14.7732 43.6378C14.6657 43.5876 14.5706 43.5144 14.4946 43.4233C14.4185 43.3322 14.3635 43.2256 14.3333 43.1108C14.3031 42.9961 14.2985 42.8762 14.3198 42.7595C15.9036 34.0866 12.4189 28.9329 12.3827 28.8819C12.2908 28.7494 12.2404 28.5925 12.2381 28.4312C12.2357 28.27 12.2814 28.1117 12.3693 27.9765C12.8872 27.1842 13.2623 24.8873 13.2815 22.3906C13.305 19.3026 12.8013 17.8149 12.5677 17.6102C12.2767 17.4115 11.9412 17.2877 11.5909 17.2498C11.2406 17.2119 10.8863 17.2611 10.5596 17.393C10.3106 17.4908 10.0927 17.6538 9.92859 17.8651C9.76453 18.0763 9.66045 18.3278 9.62732 18.5932C9.46999 19.6169 8.98262 21.0673 8.41841 22.747C7.79596 24.6 7.09019 26.7001 6.75793 28.4873C6.3792 30.6391 6.19719 32.8208 6.21415 35.0055C6.21913 35.2109 6.14574 35.4106 6.00889 35.5639L2.84 39.1121C2.76924 39.1913 2.68357 39.2559 2.58787 39.302C2.49218 39.3481 2.38834 39.3749 2.28228 39.3809C2.17622 39.3869 2.07001 39.372 1.96973 39.3369C1.86945 39.3018 1.77706 39.2474 1.69783 39.1766C1.6186 39.1059 1.55408 39.0202 1.50796 38.9245C1.46183 38.8288 1.43501 38.725 1.42902 38.6189C1.42303 38.5128 1.43799 38.4066 1.47304 38.3064C1.5081 38.2061 1.56256 38.1137 1.63332 38.0345L4.5931 34.7208C4.59235 32.5319 4.78454 30.3472 5.16742 28.1921C5.52071 26.2932 6.24549 24.1358 6.88493 22.2323C7.40283 20.6903 7.89202 19.2341 8.02852 18.3477C8.10428 17.8087 8.32023 17.299 8.65478 16.8695C8.98933 16.4401 9.43075 16.1061 9.93491 15.9008C10.5182 15.662 11.1522 15.5736 11.7786 15.6437C12.405 15.7139 13.0037 15.9403 13.5198 16.3022C15.4336 17.6844 15.1758 25.6165 13.9764 28.38C14.8411 29.8528 17.3762 35.0286 15.9113 43.0499C15.8774 43.236 15.7793 43.4044 15.6341 43.5257C15.4889 43.647 15.3058 43.7135 15.1165 43.7138ZM13.736 50.9828C13.5773 50.9828 13.4221 50.9361 13.2897 50.8486C13.1573 50.761 13.0536 50.6365 12.9915 50.4904C12.9294 50.3444 12.9117 50.1833 12.9404 50.0272C12.9692 49.8712 13.0432 49.727 13.1533 49.6127L15.9125 46.7476C16.0055 46.6509 16.1211 46.579 16.2489 46.5381C16.3766 46.4973 16.5125 46.4889 16.6444 46.5136C16.6741 46.5193 19.8193 47.0768 22.5006 45.7362C22.5411 45.716 25.2432 44.3999 26.1868 42.1073C26.2685 41.9088 26.4256 41.751 26.6237 41.6684C26.8217 41.5858 27.0445 41.5853 27.2429 41.6669C27.4414 41.7486 27.5993 41.9057 27.6818 42.1038C27.7644 42.3019 27.7649 42.5246 27.6833 42.7231C26.4988 45.6011 23.3437 47.1269 23.2098 47.1904C20.6606 48.4645 17.8599 48.2968 16.7904 48.1688L14.319 50.7351C14.2435 50.8136 14.153 50.876 14.0528 50.9185C13.9526 50.9611 13.8448 50.983 13.736 50.9828Z" fill="#090909"/>
    <path d="M36.2384 24.1741C36.0239 24.1741 35.8181 24.0889 35.6664 23.9372C35.5147 23.7855 35.4295 23.5798 35.4295 23.3652V3.78972C35.4295 2.71792 34.3959 1.84693 33.1253 1.84693H16.1585C14.8878 1.84693 13.8532 2.71853 13.8532 3.78972V16.9583C13.8532 17.1728 13.7679 17.3786 13.6162 17.5303C13.4645 17.682 13.2588 17.7672 13.0443 17.7672C12.8297 17.7672 12.624 17.682 12.4723 17.5303C12.3206 17.3786 12.2354 17.1728 12.2354 16.9583V3.78911C12.2354 1.8259 13.9947 0.228516 16.1585 0.228516H33.1253C35.2879 0.228516 37.0473 1.8261 37.0473 3.78911V23.3646C37.0474 23.4709 37.0265 23.5761 36.9859 23.6743C36.9453 23.7726 36.8857 23.8618 36.8106 23.937C36.7355 24.0122 36.6463 24.0718 36.5481 24.1125C36.4499 24.1532 36.3447 24.1741 36.2384 24.1741ZM22.1639 42.1628H15.6394C15.4249 42.1628 15.2191 42.0775 15.0674 41.9258C14.9157 41.7741 14.8305 41.5684 14.8305 41.3538C14.8305 41.1393 14.9157 40.9336 15.0674 40.7819C15.2191 40.6302 15.4249 40.5449 15.6394 40.5449H22.1649C22.3794 40.5449 22.5851 40.6302 22.7368 40.7819C22.8885 40.9336 22.9738 41.1393 22.9738 41.3538C22.9738 41.5684 22.8885 41.7741 22.7368 41.9258C22.5851 42.0775 22.3794 42.1628 22.1649 42.1628H22.1639Z" fill="#090909"/>
    <path d="M36.1101 6.20448H13.1029C12.8883 6.20448 12.6826 6.11926 12.5309 5.96756C12.3792 5.81586 12.2939 5.61011 12.2939 5.39557C12.2939 5.18104 12.3792 4.97529 12.5309 4.82359C12.6826 4.67189 12.8883 4.58667 13.1029 4.58667H36.1101C36.3247 4.58667 36.5304 4.67189 36.6821 4.82359C36.8338 4.97529 36.919 5.18104 36.919 5.39557C36.919 5.61011 36.8338 5.81586 36.6821 5.96756C36.5304 6.11926 36.3247 6.20448 36.1101 6.20448ZM19.6337 37.5645H15.8177C15.6032 37.5645 15.3975 37.4793 15.2458 37.3276C15.0941 37.1759 15.0088 36.9701 15.0088 36.7556C15.0088 36.5411 15.0941 36.3353 15.2458 36.1836C15.3975 36.0319 15.6032 35.9467 15.8177 35.9467H19.6337C19.8483 35.9467 20.054 36.0319 20.2057 36.1836C20.3574 36.3353 20.4427 36.5411 20.4427 36.7556C20.4427 36.9701 20.3574 37.1759 20.2057 37.3276C20.054 37.4793 19.8483 37.5645 19.6337 37.5645ZM36.8667 51.9493C36.7095 51.9494 36.5557 51.9037 36.4241 51.8178C36.2924 51.7318 36.1887 51.6095 36.1255 51.4655L35.4092 49.8348L31.1366 47.8849C31.0436 47.8423 30.9594 47.7825 30.8884 47.7088L22.729 39.1967C22.7204 39.1875 22.7119 39.1782 22.7035 39.1688C22.5933 39.0426 21.639 37.9016 22.0202 36.7093C22.2647 35.9437 22.9535 35.4205 24.0667 35.1544C26.0372 34.6834 28.45 36.0587 30.0407 37.2104L23.4886 22.296C23.1697 21.579 23.1437 20.7657 23.416 20.0297C23.5483 19.6656 23.7532 19.3322 24.0182 19.0496C24.2832 18.7671 24.6027 18.5412 24.9576 18.3858C25.6786 18.0805 26.4913 18.0737 27.2174 18.3668C27.9435 18.6599 28.5237 19.2289 28.8308 19.9492C28.9152 20.1453 28.9187 20.3668 28.8405 20.5655C28.7623 20.7641 28.6087 20.9238 28.4132 21.0097C28.2178 21.0955 27.9963 21.1007 27.797 21.0239C27.5978 20.9472 27.437 20.7948 27.3497 20.6C27.2153 20.2723 26.9566 20.0113 26.6302 19.8739C26.3039 19.7365 25.9363 19.734 25.6081 19.8669C25.4525 19.9358 25.3124 20.0356 25.1964 20.1601C25.0803 20.2847 24.9908 20.4315 24.9331 20.5917C24.8074 20.9342 24.8205 21.3123 24.9697 21.6453L32.0947 37.8652C32.1618 38.0177 32.1802 38.1872 32.1473 38.3506L31.9528 39.3192C31.9245 39.4602 31.8592 39.591 31.7635 39.6983C31.6679 39.8057 31.5454 39.8855 31.4086 39.9298C31.2719 39.974 31.1258 39.981 30.9854 39.9501C30.845 39.9191 30.7154 39.8513 30.61 39.7536C29.5341 38.7595 26.327 36.2753 24.4421 36.7287C23.8607 36.8676 23.6057 37.064 23.561 37.2013C23.4892 37.4211 23.7209 37.8634 23.9141 38.0964L31.9485 46.4782L36.3609 48.4918C36.5416 48.5744 36.6855 48.7206 36.7653 48.9025L37.606 50.8156C37.6601 50.9387 37.6827 51.0733 37.6717 51.2073C37.6607 51.3414 37.6165 51.4705 37.543 51.5832C37.4695 51.6958 37.3691 51.7883 37.2509 51.8524C37.1327 51.9164 37.0003 51.95 36.8658 51.9501L36.8667 51.9493Z" fill="#090909"/>
    <path d="M34.1201 34.808C33.9629 34.8081 33.8091 34.7624 33.6775 34.6765C33.5458 34.5906 33.4421 34.4682 33.3789 34.3242L27.3501 20.5998C27.2657 20.4037 27.2622 20.1821 27.3404 19.9835C27.4186 19.7848 27.5722 19.6252 27.7677 19.5393C27.9632 19.4534 28.1846 19.4483 28.3839 19.525C28.5831 19.6018 28.7439 19.7542 28.8312 19.949L34.8602 33.6735C34.9143 33.7966 34.9369 33.9312 34.9259 34.0652C34.9149 34.1993 34.8707 34.3284 34.7972 34.4411C34.7237 34.5537 34.6233 34.6462 34.5051 34.7103C34.3869 34.7743 34.2545 34.8079 34.1201 34.808Z" fill="#090909"/>
    <path d="M32.1577 30.3408C32.0006 30.3408 31.8469 30.2951 31.7153 30.2093C31.5837 30.1234 31.48 30.0011 31.4168 29.8572C31.0979 29.1402 31.0718 28.3269 31.3442 27.5909C31.4768 27.227 31.6818 26.8937 31.9467 26.6112C32.2116 26.3286 32.531 26.1026 32.8856 25.9469C33.2402 25.7911 33.6227 25.7087 34.01 25.7047C34.3973 25.7008 34.7814 25.7753 35.1391 25.9237C35.8652 26.2212 36.4464 26.7906 36.7588 27.5104C36.803 27.6079 36.8275 27.7132 36.8308 27.8202C36.8341 27.9272 36.816 28.0339 36.7778 28.1339C36.7395 28.2339 36.6818 28.3253 36.608 28.4028C36.5341 28.4804 36.4456 28.5425 36.3476 28.5855C36.2495 28.6286 36.1439 28.6517 36.0369 28.6537C35.9298 28.6556 35.8234 28.6363 35.7239 28.5968C35.6244 28.5573 35.5337 28.4984 35.4571 28.4236C35.3805 28.3488 35.3195 28.2595 35.2777 28.161C35.1334 27.8258 34.8639 27.5604 34.5266 27.4212C34.3697 27.3549 34.201 27.3213 34.0307 27.3226C33.8604 27.3238 33.6922 27.3597 33.5363 27.4282C33.3804 27.4967 33.2401 27.5963 33.124 27.7209C33.0079 27.8455 32.9185 27.9925 32.8613 28.1529C32.7355 28.4953 32.7487 28.8734 32.8981 29.2063C32.9522 29.3294 32.9748 29.464 32.9638 29.5981C32.9528 29.7321 32.9085 29.8613 32.835 29.9739C32.7615 30.0865 32.6611 30.1791 32.5428 30.2431C32.4246 30.3072 32.2922 30.3407 32.1577 30.3408Z" fill="#090909"/>
    <path d="M38.1311 33.4529C37.9739 33.453 37.8201 33.4072 37.6884 33.3213C37.5568 33.2354 37.4531 33.1129 37.3899 32.969L35.2779 28.161C35.1934 27.9649 35.1899 27.7434 35.2682 27.5448C35.3464 27.3461 35.5 27.1864 35.6954 27.1006C35.8909 27.0147 36.1124 27.0096 36.3116 27.0863C36.5108 27.163 36.6716 27.3155 36.759 27.5103L38.8712 32.3184C38.9253 32.4415 38.9479 32.5762 38.9369 32.7102C38.9259 32.8442 38.8817 32.9734 38.8082 33.086C38.7347 33.1986 38.6343 33.2911 38.5161 33.3552C38.3979 33.4193 38.2655 33.4528 38.1311 33.4529Z" fill="#090909"/>
    <path d="M36.7829 30.3831C36.6258 30.3832 36.472 30.3376 36.3404 30.2517C36.2087 30.1658 36.105 30.0435 36.0418 29.8996C35.7229 29.1825 35.6968 28.3693 35.9692 27.6332C36.1018 27.2693 36.3067 26.936 36.5716 26.6534C36.8365 26.3708 37.1559 26.1449 37.5105 25.9891C37.8652 25.8333 38.2477 25.7509 38.635 25.747C39.0223 25.743 39.4064 25.8176 39.7641 25.9661C40.4903 26.2635 41.0715 26.8329 41.3838 27.5528C41.428 27.6503 41.4525 27.7556 41.4558 27.8626C41.4591 27.9696 41.441 28.0762 41.4028 28.1762C41.3645 28.2762 41.3068 28.3677 41.233 28.4452C41.1591 28.5227 41.0706 28.5848 40.9726 28.6279C40.8745 28.6709 40.7689 28.6941 40.6619 28.696C40.5548 28.698 40.4484 28.6786 40.3489 28.6391C40.2494 28.5997 40.1587 28.5408 40.0821 28.466C40.0055 28.3912 39.9445 28.3019 39.9027 28.2033C39.7584 27.8682 39.4889 27.6027 39.1516 27.4636C38.9947 27.3972 38.826 27.3636 38.6557 27.3648C38.4854 27.366 38.3171 27.4019 38.1612 27.4704C38.0053 27.5389 37.865 27.6385 37.7489 27.7632C37.6329 27.8878 37.5435 28.0348 37.4863 28.1952C37.3605 28.5377 37.3737 28.9158 37.5231 29.2486C37.5772 29.3717 37.5998 29.5064 37.5888 29.6404C37.5778 29.7744 37.5335 29.9036 37.4601 30.0162C37.3866 30.1288 37.2862 30.2214 37.168 30.2854C37.0497 30.3495 36.9174 30.3831 36.7829 30.3831Z" fill="#090909"/>
    <path d="M42.3715 32.622C42.2143 32.622 42.0606 32.5763 41.929 32.4904C41.7974 32.4045 41.6937 32.2821 41.6305 32.1382L39.9019 28.2035C39.8174 28.0074 39.814 27.7859 39.8922 27.5873C39.9704 27.3886 40.124 27.2289 40.3195 27.143C40.5149 27.0572 40.7364 27.052 40.9356 27.1288C41.1349 27.2055 41.2957 27.3579 41.383 27.5528L43.1116 31.4875C43.1657 31.6106 43.1883 31.7452 43.1773 31.8792C43.1663 32.0133 43.1221 32.1424 43.0486 32.255C42.9751 32.3677 42.8747 32.4602 42.7565 32.5243C42.6383 32.5883 42.5059 32.6219 42.3715 32.622Z" fill="#090909"/>
    <path d="M41.3741 30.3509C41.2169 30.3509 41.0632 30.3052 40.9316 30.2193C40.8 30.1334 40.6963 30.011 40.6331 29.8671C40.4669 29.5145 40.373 29.1322 40.357 28.7427C40.3409 28.3532 40.4031 27.9645 40.5398 27.5994C40.6764 27.2343 40.8849 26.9004 41.1528 26.6172C41.4207 26.334 41.7426 26.1073 42.0995 25.9506C42.4564 25.7939 42.8411 25.7102 43.2309 25.7046C43.6207 25.699 44.0076 25.7716 44.3689 25.918C44.7302 26.0644 45.0585 26.2817 45.3344 26.5571C45.6103 26.8325 45.8282 27.1603 45.9753 27.5213C46.0617 27.7177 46.0664 27.9404 45.9886 28.1404C45.9107 28.3403 45.7566 28.5011 45.5602 28.5874C45.3637 28.6738 45.1411 28.6785 44.9411 28.6007C44.7412 28.5228 44.5804 28.3687 44.494 28.1723C44.4318 28.0067 44.3364 27.8557 44.2138 27.7282C44.0912 27.6008 43.9439 27.4996 43.781 27.431C43.618 27.3624 43.4427 27.3277 43.2659 27.329C43.089 27.3304 42.9143 27.3678 42.7524 27.4389C42.5905 27.51 42.4448 27.6134 42.3242 27.7427C42.2035 27.872 42.1105 28.0245 42.0508 28.191C41.9911 28.3574 41.9659 28.5343 41.9768 28.7108C41.9877 28.8873 42.0345 29.0597 42.1142 29.2176C42.1683 29.3407 42.1909 29.4753 42.1798 29.6093C42.1688 29.7433 42.1246 29.8724 42.0511 29.985C41.9776 30.0976 41.8772 30.1901 41.759 30.2542C41.6408 30.3182 41.5085 30.3518 41.3741 30.3519V30.3509Z" fill="#090909"/>
    <path d="M50.9635 46.0641C50.8063 46.0642 50.6525 46.0185 50.5209 45.9326C50.3893 45.8467 50.2855 45.7243 50.2223 45.5804L49.4429 43.8059C49.3908 43.6873 49.3679 43.558 49.3762 43.4287L49.6082 39.8135L44.4941 28.1716C44.4078 27.9751 44.4031 27.7525 44.481 27.5526C44.5589 27.3527 44.713 27.1919 44.9094 27.1056C45.1059 27.0194 45.3285 27.0147 45.5284 27.0926C45.7283 27.1705 45.8891 27.3246 45.9754 27.521L51.1687 39.3438C51.2209 39.4624 51.2438 39.5918 51.2355 39.7211L51.0035 43.3363L51.7036 44.9303C51.7578 45.0534 51.7803 45.188 51.7693 45.322C51.7583 45.456 51.7141 45.5852 51.6406 45.6978C51.5671 45.8105 51.4667 45.903 51.3485 45.967C51.2303 46.0311 51.098 46.0647 50.9635 46.0647V46.0641Z" fill="#090909"/>
  </g>
  <defs>
    <clipPath id="clip0_1_902">
      <rect width="51.7699" height="51.7699" fill="white" transform="translate(0.714844 0.203613)"/>
    </clipPath>
  </defs>
  <g transform="translate(50, 100)">
    <rect x="4.38086" width="19.6127" height="19.6127" transform="rotate(12.906 4.38086 0)" fill="#DD2D34"/>
    <path d="M16.1594 7.74902L10.0452 13.4212L7.45949 10.6618L5.74902 12.2646L9.92638 16.7226L17.749 9.47215L16.1594 7.74902Z" fill="white"/>
  </g>
</svg>
