<svg xmlns="http://www.w3.org/2000/svg" width="114" height="125" viewBox="0 0 114 125" fill="none">
  <path d="M91.0336 3.44485L43.9116 0L19.5905 17.2242L0.969727 62.0073L22.0606 107.556H35.1712V114.828L94.8338 107.556L113.455 63.5383L110.034 30.2381L99.9798 24.0202L107.01 19.3333L91.0336 3.44485Z" fill="white"/>
  <path d="M83.6943 48.031C82.7692 47.8574 81.8127 48.0444 81.0211 48.5536C80.2296 49.0629 79.6629 49.8558 79.4374 50.7696L77.3117 58.6894C76.7545 58.3207 76.1056 58.1148 75.4379 58.0948C74.7701 58.0748 74.11 58.2414 73.5318 58.576L67.3778 62.1858C66.161 62.9021 65.1517 63.9229 64.4493 65.1478C63.747 66.3727 63.3757 67.7593 63.372 69.1713V76.0003H61.5721C61.3334 76.0003 61.1045 76.0951 60.9357 76.2639C60.7669 76.4327 60.6721 76.6616 60.6721 76.9003V84.1C60.6721 84.3387 60.7669 84.5676 60.9357 84.7364C61.1045 84.9052 61.3334 85 61.5721 85H77.7716C78.0102 85 78.2392 84.9052 78.4079 84.7364C78.5767 84.5676 78.6715 84.3387 78.6715 84.1V76.9003C78.6715 76.6616 78.5767 76.4327 78.4079 76.2639C78.2392 76.0951 78.0102 76.0003 77.7716 76.0003H75.9716V74.9563C75.9715 74.5669 76.0557 74.182 76.2183 73.8281C76.381 73.4742 76.6183 73.1597 76.9139 72.9062L81.1105 69.3063C81.7998 68.7169 82.2943 67.9325 82.5288 67.0564L86.4338 52.4841C86.5158 52.1786 86.5566 51.8635 86.5553 51.5472C86.5508 50.7227 86.2647 49.9245 85.7443 49.285C85.224 48.6455 84.5006 48.203 83.6943 48.031ZM76.8716 83.2001H62.4721V77.8002H76.8716V83.2001ZM84.6959 52.017L80.7901 66.5911C80.6499 67.1169 80.3533 67.5876 79.9396 67.9411L75.743 71.5409C75.2503 71.9633 74.8548 72.4871 74.5836 73.0767C74.3124 73.6662 74.1718 74.3074 74.1717 74.9563V76.0003H65.172V69.1713C65.1743 68.0733 65.4624 66.9948 66.0081 66.042C66.5538 65.0892 67.3382 64.2949 68.2841 63.7373L74.4309 60.1311C74.7047 59.9738 75.015 59.8909 75.3308 59.8908C75.6649 59.8878 75.993 59.9792 76.2775 60.1543C76.562 60.3294 76.7913 60.5812 76.9391 60.8808C77.1359 61.3158 77.1608 61.8092 77.0087 62.2618C76.8566 62.7145 76.5388 63.0927 76.1192 63.3206L71.0794 66.2248C70.9769 66.2839 70.8871 66.3626 70.815 66.4564C70.743 66.5502 70.6901 66.6573 70.6594 66.7715C70.6288 66.8858 70.6209 67.0049 70.6363 67.1222C70.6517 67.2395 70.69 67.3526 70.7491 67.4551C70.8082 67.5575 70.8869 67.6474 70.9807 67.7194C71.0745 67.7915 71.1816 67.8443 71.2958 67.875C71.4101 67.9057 71.5292 67.9136 71.6465 67.8982C71.7638 67.8828 71.8769 67.8445 71.9794 67.7854L77.0192 64.8812C77.7741 64.4604 78.3566 63.787 78.6643 62.9793C78.9719 62.1717 78.985 61.2814 78.7012 60.465L81.177 51.2403C81.2893 50.7746 81.5724 50.3681 81.9703 50.1014C82.3682 49.8346 82.8519 49.7272 83.3253 49.8004C83.7268 49.8858 84.0872 50.1055 84.3471 50.4232C84.6071 50.7409 84.751 51.1376 84.7553 51.5481C84.7565 51.7063 84.7365 51.864 84.6959 52.017ZM57.9722 76.0003H56.1723V69.1713C56.1693 67.7596 55.7987 66.373 55.0971 65.148C54.3956 63.923 53.3871 62.9018 52.171 62.1848L46.0098 58.5706C45.4311 58.2369 44.7709 58.0711 44.1032 58.0918C43.4356 58.1125 42.7869 58.3188 42.2299 58.6876L40.1051 50.7678C39.8784 49.8543 39.3113 49.0619 38.5196 48.5528C37.7279 48.0438 36.7717 47.8564 35.8464 48.0292C35.368 48.1303 34.9151 48.3276 34.5154 48.6092C34.1156 48.8908 33.7773 49.2508 33.5211 49.6673C33.2648 50.0837 33.0959 50.548 33.0247 51.0318C32.9536 51.5155 32.9815 52.0087 33.1069 52.4814L37.0128 67.0555C37.2466 67.9317 37.7409 68.7163 38.4303 69.3054L42.6268 72.9053C42.9232 73.1586 43.1613 73.4731 43.3245 73.8272C43.4878 74.1812 43.5725 74.5664 43.5727 74.9563V76.0003H41.7728C41.5341 76.0003 41.3052 76.0951 41.1364 76.2639C40.9676 76.4327 40.8728 76.6616 40.8728 76.9003V84.1C40.8728 84.3387 40.9676 84.5676 41.1364 84.7364C41.3052 84.9052 41.5341 85 41.7728 85H57.9722C58.2109 85 58.4398 84.9052 58.6086 84.7364C58.7774 84.5676 58.8722 84.3387 58.8722 84.1V76.9003C58.8722 76.6616 58.7774 76.4327 58.6086 76.2639C58.4398 76.0951 58.2109 76.0003 57.9722 76.0003ZM43.8013 71.5391L39.6047 67.9393C39.1907 67.5861 38.8941 67.1152 38.7543 66.5893L34.8484 52.0161C34.8078 51.8634 34.7878 51.706 34.789 51.5481C34.7915 51.136 34.9349 50.7372 35.1954 50.4178C35.4558 50.0984 35.8177 49.8777 36.2208 49.7923C36.6942 49.7197 37.1775 49.8274 37.5752 50.0941C37.973 50.3607 38.2563 50.7668 38.3691 51.2322L40.8449 60.456C40.5609 61.2725 40.5739 62.163 40.8815 62.9709C41.1891 63.7787 41.7718 64.4523 42.5269 64.8731L47.5668 67.7773C47.7737 67.8966 48.0196 67.9289 48.2503 67.8669C48.481 67.805 48.6777 67.6539 48.797 67.447C48.9164 67.24 48.9486 66.9942 48.8867 66.7634C48.8247 66.5327 48.6737 66.3361 48.4667 66.2167L43.4269 63.3125C43.0071 63.0848 42.6892 62.7066 42.5369 62.2539C42.3846 61.8013 42.4094 61.3078 42.6061 60.8727C42.7551 60.5752 42.9846 60.3255 43.2684 60.152C43.5522 59.9784 43.879 59.8879 44.2117 59.8908C44.5253 59.8901 44.8337 59.9714 45.1062 60.1266L51.2602 63.7382C52.2062 64.2955 52.9906 65.0896 53.5363 66.0423C54.082 66.995 54.3702 68.0734 54.3723 69.1713V76.0003H45.3726V74.9563C45.3727 74.3071 45.2323 73.6655 44.9611 73.0757C44.6899 72.4858 44.2942 71.9617 43.8013 71.5391ZM57.0722 83.2001H42.6727V77.8002H57.0722V83.2001ZM74.1717 43.2414V31.9017C74.172 31.7436 74.1306 31.5882 74.0518 31.4511C73.9729 31.3141 73.8593 31.2002 73.7225 31.121C73.5856 31.0418 73.4303 31.0001 73.2722 31C73.114 30.9999 72.9587 31.0415 72.8217 31.1206L71.5393 31.8532C70.1251 32.6633 68.5325 33.111 66.9033 33.1563C65.2742 33.2017 63.6591 32.8434 62.2021 32.1132L60.1672 31.0963C60.0423 31.0339 59.9046 31.0014 59.765 31.0014C59.6253 31.0014 59.4876 31.0339 59.3627 31.0963L57.3422 32.1096C55.885 32.841 54.2694 33.2003 52.6395 33.1554C51.0096 33.1105 49.4162 32.6628 48.0014 31.8523L46.7226 31.1206C46.5856 31.0415 46.4303 30.9999 46.2722 31C46.114 31.0001 45.9587 31.0418 45.8218 31.121C45.685 31.2002 45.5714 31.3141 45.4925 31.4511C45.4137 31.5882 45.3723 31.7436 45.3726 31.9017V43.2414C45.3683 47.3201 46.4747 51.3231 48.5731 54.8206C50.6716 58.3181 53.6828 61.1782 57.2837 63.0938L59.3483 64.1945C59.4787 64.2641 59.6243 64.3006 59.7722 64.3006C59.92 64.3006 60.0656 64.2641 60.196 64.1945L62.2606 63.0938C65.8616 61.1783 68.873 58.3183 70.9714 54.8207C73.0699 51.3232 74.1762 47.3202 74.1717 43.2414ZM59.7722 62.381L58.1315 61.5054C54.8186 59.7431 52.048 57.112 50.1173 53.8943C48.1866 50.6766 47.1686 46.9939 47.1726 43.2414V33.4524C48.8392 34.3934 50.7117 34.9102 52.6251 34.9573C54.5385 35.0043 56.4341 34.5803 58.145 33.7224L59.765 32.9124L61.3975 33.7278C63.1091 34.5852 65.0053 35.0086 66.919 34.9606C68.8328 34.9126 70.7053 34.3946 72.3717 33.4524V43.2414C72.3759 46.9939 71.358 50.6767 69.4272 53.8944C67.4965 57.1122 64.7259 59.7433 61.4128 61.5054L59.7722 62.381Z" fill="#090909"/>
  <path d="M70.572 37.3322C70.572 37.1979 70.542 37.0652 70.4841 36.944C70.4262 36.8228 70.3419 36.716 70.2374 36.6316C70.1329 36.5472 70.0108 36.4873 69.8801 36.4562C69.7494 36.4251 69.6134 36.4237 69.4821 36.4521C66.4789 37.0923 63.3475 36.698 60.5967 35.3334L60.1719 35.1219C60.0463 35.0586 59.9076 35.0256 59.7669 35.0256C59.6262 35.0256 59.4875 35.0586 59.3619 35.1219L58.9461 35.3298C56.195 36.6963 53.0624 37.0915 50.058 36.4512C49.927 36.4236 49.7915 36.4256 49.6614 36.457C49.5312 36.4884 49.4098 36.5485 49.3058 36.6328C49.2018 36.7171 49.1179 36.8236 49.0603 36.9444C49.0027 37.0653 48.9727 37.1975 48.9727 37.3313V43.2414C48.9688 46.6676 49.8982 50.0301 51.6611 52.968C53.4239 55.9059 55.9536 58.3082 58.9785 59.917L59.3484 60.115C59.4787 60.1845 59.6242 60.2208 59.7719 60.2208C59.9196 60.2208 60.065 60.1845 60.1953 60.115L60.5661 59.917C63.5911 58.3082 66.1208 55.9059 67.8836 52.968C69.6464 50.0301 70.5758 46.6676 70.572 43.2414V37.3322ZM68.772 43.2414C68.7754 46.3311 67.94 49.3637 66.3551 52.0158C64.7701 54.668 62.495 56.8401 59.7723 58.3006C57.0497 56.8401 54.7745 54.668 53.1895 52.0158C51.6046 49.3637 50.7692 46.3311 50.7726 43.2414V38.4059C53.8462 38.8325 56.977 38.3222 59.7561 36.9416L59.7723 36.9326L59.7939 36.9443C62.5712 38.3243 65.7003 38.834 68.772 38.4068V43.2414Z" fill="#090909"/>
  <path d="M64.8637 41.7374L57.9726 48.6285L55.1629 45.8188C54.9931 45.6548 54.7658 45.5641 54.5298 45.5662C54.2939 45.5682 54.0682 45.6629 53.9013 45.8297C53.7344 45.9966 53.6398 46.2223 53.6377 46.4583C53.6357 46.6942 53.7264 46.9216 53.8903 47.0913L57.3363 50.5373C57.5051 50.706 57.734 50.8008 57.9726 50.8008C58.2112 50.8008 58.4401 50.706 58.6089 50.5373L66.1362 43.01C66.2222 42.9269 66.2907 42.8276 66.3379 42.7178C66.3851 42.608 66.4099 42.4899 66.4109 42.3704C66.412 42.2509 66.3892 42.1324 66.344 42.0218C66.2987 41.9112 66.2319 41.8107 66.1474 41.7262C66.0629 41.6417 65.9624 41.5749 65.8518 41.5297C65.7412 41.4844 65.6227 41.4616 65.5032 41.4627C65.3837 41.4637 65.2656 41.4885 65.1558 41.5357C65.046 41.5829 64.9467 41.6514 64.8637 41.7374Z" fill="#DD2D34"/>
  <rect x="57.3506" y="101" width="19.6127" height="19.6127" transform="rotate(12.906 57.3506 101)" fill="#DD2D34"/>
  <path d="M69.1291 108.749L63.015 114.421L60.4292 111.662L58.7188 113.265L62.8961 117.723L70.7188 110.472L69.1291 108.749Z" fill="white"/>
</svg>
