<svg width="79" height="48" viewBox="0 0 79 48" fill="none" xmlns="http://www.w3.org/2000/svg">
<mask id="path-1-outside-1_310_2504" maskUnits="userSpaceOnUse" x="0" y="0" width="79" height="49" fill="black">
<rect fill="white" width="79" height="49"/>
<path d="M42.6729 47.0562L41.4937 45.3267C46.7345 24.8348 51.3727 10.1341 55.4082 1.22461H77.2627C73.7513 17.5762 71.1833 32.8534 69.5586 47.0562H42.6729ZM2.58008 47.0562L1.40088 45.3267C6.64176 24.8348 11.2799 10.1341 15.3154 1.22461H37.1699C33.6585 17.5762 31.0905 32.8534 29.4658 47.0562H2.58008Z"/>
</mask>
<path d="M42.6729 47.0562L41.8466 47.6195L42.1443 48.0562H42.6729V47.0562ZM41.4937 45.3267L40.5248 45.0789L40.4129 45.5167L40.6674 45.89L41.4937 45.3267ZM55.4082 1.22461V0.224609H54.7633L54.4973 0.812018L55.4082 1.22461ZM77.2627 1.22461L78.2404 1.43457L78.5002 0.224609H77.2627V1.22461ZM69.5586 47.0562V48.0562H70.4507L70.5521 47.1698L69.5586 47.0562ZM2.58008 47.0562L1.75385 47.6195L2.05158 48.0562H2.58008V47.0562ZM1.40088 45.3267L0.432062 45.0789L0.3201 45.5167L0.574652 45.89L1.40088 45.3267ZM15.3154 1.22461V0.224609H14.6706L14.4045 0.812018L15.3154 1.22461ZM37.1699 1.22461L38.1476 1.43457L38.4075 0.224609H37.1699V1.22461ZM29.4658 47.0562V48.0562H30.358L30.4593 47.1698L29.4658 47.0562ZM43.4991 46.4928L42.3199 44.7633L40.6674 45.89L41.8466 47.6195L43.4991 46.4928ZM42.4625 45.5744C47.7015 25.0897 52.3222 10.4615 56.3191 1.6372L54.4973 0.812018C50.4232 9.80672 45.7675 24.5799 40.5248 45.0789L42.4625 45.5744ZM55.4082 2.22461H77.2627V0.224609H55.4082V2.22461ZM76.285 1.01465C72.7679 17.3929 70.194 32.7025 68.5651 46.9425L70.5521 47.1698C72.1725 33.0042 74.7347 17.7595 78.2404 1.43457L76.285 1.01465ZM69.5586 46.0562H42.6729V48.0562H69.5586V46.0562ZM3.40631 46.4928L2.22711 44.7633L0.574652 45.89L1.75385 47.6195L3.40631 46.4928ZM2.3697 45.5744C7.60877 25.0897 12.2295 10.4615 16.2263 1.6372L14.4045 0.812018C10.3304 9.80672 5.67476 24.5799 0.432062 45.0789L2.3697 45.5744ZM15.3154 2.22461H37.1699V0.224609H15.3154V2.22461ZM36.1922 1.01465C32.6751 17.3929 30.1012 32.7025 28.4723 46.9425L30.4593 47.1698C32.0798 33.0042 34.642 17.7595 38.1476 1.43457L36.1922 1.01465ZM29.4658 46.0562H2.58008V48.0562H29.4658V46.0562Z" fill="#DD2D34" mask="url(#path-1-outside-1_310_2504)"/>
</svg>
