<svg xmlns="http://www.w3.org/2000/svg" width="113" height="125" viewBox="0 0 113 125" fill="none">
  <path d="M90.519 3.44485L43.3969 0L19.0759 17.2242L0.455078 62.0073L21.546 107.556H34.6566V114.828L94.3191 107.556L112.94 63.5383L109.52 30.2381L99.4652 24.0202L106.495 19.3333L90.519 3.44485Z" fill="white"/>
  <path d="M74.8256 48.7478V57.3405C74.8256 63.6368 69.5409 68.7422 63.0208 68.7422H54.2375C47.7185 68.7422 42.4326 63.638 42.4326 57.3405V48.8459C48.5619 48.6757 61.7119 45.9456 66.5638 41.2594C66.5638 41.2594 69.7894 47.6256 74.8256 48.7478Z" stroke="#090909" stroke-width="1.792" stroke-miterlimit="10" stroke-linecap="round" stroke-linejoin="round"/>
  <path d="M74.8262 54.3173C74.8262 51.438 79.1068 50.9773 79.7633 53.7859C79.8461 54.1408 79.8878 54.5035 79.8876 54.8673C79.8876 57.5671 77.6215 59.7559 74.8262 59.7559" stroke="#090909" stroke-width="1.792" stroke-miterlimit="10" stroke-linejoin="round"/>
  <path d="M42.4335 59.7559C39.6382 59.7559 37.3721 57.5672 37.3721 54.8673C37.3721 54.4957 37.415 54.1338 37.4963 53.7861C38.1529 50.9774 42.4335 51.438 42.4335 54.3173" stroke="#090909" stroke-width="1.792" stroke-miterlimit="10" stroke-linejoin="round"/>
  <path d="M58.6301 74.9612C56.4888 74.9612 54.7529 73.2846 54.7529 71.2164V68.742H62.5072V71.2164C62.5072 73.2846 60.7714 74.9612 58.6301 74.9612Z" stroke="#090909" stroke-width="1.792" stroke-miterlimit="10" stroke-linecap="round" stroke-linejoin="round"/>
  <path d="M42.4333 55.8655C42.4333 55.8655 41.2593 54.2409 39.752 54.8282" stroke="#090909" stroke-width="1.792" stroke-miterlimit="10" stroke-linecap="round" stroke-linejoin="round"/>
  <path d="M74.8262 55.8655C74.8262 55.8655 76.0001 54.2409 77.5075 54.8282" stroke="#090909" stroke-width="1.792" stroke-miterlimit="10" stroke-linecap="round" stroke-linejoin="round"/>
  <path d="M39.6846 51.9116V45.195C39.6846 36.2508 47.1905 29.0001 56.451 29.0001H60.8071C70.0675 29.0001 77.5746 36.2508 77.5746 45.195V51.9116" stroke="#090909" stroke-width="1.792" stroke-miterlimit="10" stroke-linecap="round" stroke-linejoin="round"/>
  <path d="M57.0527 55.5625H60.2071" stroke="#090909" stroke-width="1.792" stroke-miterlimit="10" stroke-linecap="round" stroke-linejoin="round"/>
  <path d="M55.5576 59.4115C56.0628 60.5687 57.248 61.3811 58.6293 61.3811C60.0105 61.3811 61.1958 60.5687 61.7009 59.4115" stroke="#090909" stroke-width="1.792" stroke-miterlimit="10" stroke-linecap="round" stroke-linejoin="round"/>
  <path d="M39.6846 51.9116V45.195C39.6846 36.2508 47.1916 29.0001 56.451 29.0001H60.8071C70.0675 29.0001 77.5746 36.2508 77.5746 45.195V51.9116" stroke="#090909" stroke-width="1.792" stroke-miterlimit="10" stroke-linejoin="round"/>
  <path d="M39.6846 58.972V71.6604H49.953" stroke="#090909" stroke-width="1.792" stroke-miterlimit="10" stroke-linejoin="round"/>
  <path d="M77.5743 65.9274V71.6604H67.2988" stroke="#090909" stroke-width="1.792" stroke-miterlimit="10" stroke-linecap="round" stroke-linejoin="round"/>
  <path d="M77.5742 62.5471V58.973" stroke="#090909" stroke-width="1.792" stroke-miterlimit="10" stroke-linecap="round" stroke-linejoin="round"/>
  <path d="M47.3711 85H69.8807" stroke="#090909" stroke-width="1.792" stroke-miterlimit="10" stroke-linejoin="round"/>
  <path d="M62.5068 71.2164H64.7187C68.2675 71.2164 71.3263 73.6265 72.0403 76.9843L72.7414 80.2834" stroke="#090909" stroke-width="1.792" stroke-miterlimit="10" stroke-linejoin="round"/>
  <path d="M45.7607 75.3796C46.967 72.885 49.5814 71.2163 52.534 71.2163H54.7447" stroke="#090909" stroke-width="1.792" stroke-miterlimit="10" stroke-linecap="round" stroke-linejoin="round"/>
  <path d="M44.8596 78.6406L44.5107 80.2834" stroke="#090909" stroke-width="1.792" stroke-miterlimit="10" stroke-linecap="round" stroke-linejoin="round"/>
  <path d="M72.7416 80.2829H79.2263V85H69.8813C68.7182 85 67.7754 84.0894 67.7754 82.966V80.2829" stroke="#090909" stroke-width="1.792" stroke-miterlimit="10" stroke-linecap="round" stroke-linejoin="round"/>
  <path d="M81.4419 85H79.2266V80.2829H85.1521V81.4166C85.1521 83.3956 83.491 85 81.4419 85Z" stroke="#090909" stroke-width="1.792" stroke-miterlimit="10" stroke-linejoin="round"/>
  <path d="M44.511 80.2829H38.0264V85H47.3712C48.5343 85 49.4773 84.0894 49.4773 82.966V80.2829" stroke="#090909" stroke-width="1.792" stroke-miterlimit="10" stroke-linecap="round" stroke-linejoin="round"/>
  <path d="M35.8107 85H38.0262V80.2829H32.1006V81.4166C32.1006 83.3956 33.7617 85 35.8107 85Z" stroke="#090909" stroke-width="1.792" stroke-miterlimit="10" stroke-linejoin="round"/>
  <path d="M62.8818 53.2677C63.387 54.4249 64.5722 55.2373 65.9535 55.2373C67.3348 55.2373 68.52 54.4249 69.0252 53.2677" stroke="#090909" stroke-width="1.792" stroke-miterlimit="10" stroke-linecap="round" stroke-linejoin="round"/>
  <path d="M48.2324 53.2677C48.7376 54.4249 49.9228 55.2373 51.3041 55.2373C52.6853 55.2373 53.8706 54.4249 54.3757 53.2677" stroke="#090909" stroke-width="1.792" stroke-miterlimit="10" stroke-linecap="round" stroke-linejoin="round"/>
  <path d="M79.0195 30.7357V36.1313" stroke="#DD2D34" stroke-width="1.792" stroke-miterlimit="10" stroke-linecap="round" stroke-linejoin="round"/>
  <path d="M81.8129 33.4336H76.2266" stroke="#DD2D34" stroke-width="1.792" stroke-miterlimit="10" stroke-linecap="round" stroke-linejoin="round"/>
  <path d="M33.248 45.4655V50.8611" stroke="#DD2D34" stroke-width="1.792" stroke-miterlimit="10" stroke-linecap="round" stroke-linejoin="round"/>
  <path d="M36.0415 48.1633H30.4551" stroke="#DD2D34" stroke-width="1.792" stroke-miterlimit="10" stroke-linecap="round" stroke-linejoin="round"/>
  <path d="M83.6621 65.549V70.9446" stroke="#DD2D34" stroke-width="1.792" stroke-miterlimit="10" stroke-linecap="round" stroke-linejoin="round"/>
  <path d="M86.4555 68.2466H80.8691" stroke="#DD2D34" stroke-width="1.792" stroke-miterlimit="10" stroke-linecap="round" stroke-linejoin="round"/>
  <rect x="56.8359" y="101" width="19.6127" height="19.6127" transform="rotate(12.906 56.8359 101)" fill="#DD2D34"/>
  <path d="M68.6145 108.749L62.5003 114.421L59.9146 111.662L58.2041 113.265L62.3815 117.723L70.2041 110.472L68.6145 108.749Z" fill="white"/>
</svg>
