<?xml version="1.0" encoding="utf-8"?><svg xmlns="http://www.w3.org/2000/svg" xmlns:xlink="http://www.w3.org/1999/xlink"><symbol fill="none" viewBox="0 0 11 12" id="arrow1"><g clip-path="url(#aaa)"><path d="M9.175 1.587H3.833V.544h7.123v7.113H9.912V2.325l-9.13 9.13-.738-.737 9.13-9.13z" fill="#090909"/></g><defs><clipPath id="aaa"><path fill="#fff" transform="translate(0 .5)" d="M0 0h11v11H0z"/></clipPath></defs></symbol><symbol fill="none" viewBox="0 0 22 20" id="arrow2"><path d="M18.385 2H3.623a.615.615 0 1 0 0 1.23H16.9L3.188 16.942a.615.615 0 1 0 .87.87L17.77 4.1v13.277a.615.615 0 1 0 1.23 0V2.615A.615.615 0 0 0 18.385 2z" fill="#DD2D34"/></symbol><symbol fill="none" viewBox="0 0 11 12" id="arrow3"><g clip-path="url(#aca)"><path d="M9.175 1.545H3.833V.502h7.123v7.113H9.912V2.283l-9.13 9.131-.738-.738 9.13-9.13z" fill="#fff"/></g><defs><clipPath id="aca"><path fill="#fff" transform="translate(0 .458)" d="M0 0h11v11H0z"/></clipPath></defs></symbol><symbol fill="none" viewBox="0 0 130 51" id="banner_item1"><path fill-rule="evenodd" clip-rule="evenodd" d="M106 0H0v51h130l-10-25.5L130 0h-24z" fill="#fff"/><path d="M18 24.5 0 33.593V15.407L18 24.5z" fill="#DD2D34"/><text x="50%" y="57%" dominant-baseline="middle" text-anchor="middle" fill="#333" font-size="32" font-family="Open Sans" font-weight="800">150€</text></symbol><symbol fill="none" viewBox="0 0 131 67" id="banner_item2"><path fill-rule="evenodd" clip-rule="evenodd" d="M131 43V0H0v67l65.5-10L131 67V43z" fill="#fff"/><text x="50%" y="50%" dominant-baseline="middle" text-anchor="middle" fill="#333" font-size="32" font-family="Open Sans" font-weight="800">150€</text></symbol><symbol fill="none" viewBox="0 0 9 8" id="check"><g clip-path="url(#afa)"><path d="M8.314 1.307a.635.635 0 0 0-.897 0l-4.039 4.04L1.583 3.55a.635.635 0 1 0-.897.898l2.243 2.243a.633.633 0 0 0 .898 0l4.487-4.487a.635.635 0 0 0 0-.898z" fill="#fff"/></g><defs><clipPath id="afa"><path fill="#fff" transform="translate(.5)" d="M0 0h8v8H0z"/></clipPath></defs></symbol><symbol fill="none" viewBox="0 0 31 21" id="fast"><path d="M1 7h29" stroke="#090909" stroke-width="2" stroke-linecap="round"/><path d="M6 13h19" stroke="#DD2D34" stroke-width="2" stroke-linecap="round"/><path d="M13 1h14m-5 19h8" stroke="#090909" stroke-width="2" stroke-linecap="round"/></symbol><symbol fill="none" viewBox="0 0 36 36" id="fb"><rect x=".07" y=".215" width="35.57" height="35.57" rx="17.785" fill="#4800FF"/><g clip-path="url(#aia)"><path d="M18.82 24.198v-5.649h1.896L21 16.347h-2.18v-1.406c0-.637.177-1.071 1.092-1.071h1.165V11.9a15.794 15.794 0 0 0-1.698-.087c-1.681 0-2.832 1.026-2.832 2.91v1.624h-1.901v2.202h1.901v5.649h2.273z" fill="#fff"/></g><defs><clipPath id="aia"><path fill="#fff" transform="translate(11.669 11.813)" d="M0 0h12.384v12.384H0z"/></clipPath></defs></symbol><symbol fill="none" viewBox="0 0 36 36" id="fb-icon"><rect x=".192" width="35.57" height="35.57" rx="17.785" fill="#DD2D34"/><g clip-path="url(#aha)"><path d="M18.942 23.983v-5.649h1.895l.285-2.202h-2.18v-1.406c0-.637.176-1.071 1.091-1.071h1.165v-1.97a15.822 15.822 0 0 0-1.698-.086c-1.68 0-2.831 1.026-2.831 2.91v1.623h-1.901v2.202h1.9v5.649h2.274z" fill="#fff"/></g><defs><clipPath id="aha"><path fill="#fff" transform="translate(11.791 11.599)" d="M0 0h12.384v12.384H0z"/></clipPath></defs></symbol><symbol fill="none" viewBox="0 0 16 15" id="header-date"><path d="M1.438 4.688V3.28c0-.775.63-1.406 1.406-1.406h.469v-.469a.469.469 0 0 1 .937 0v.469h1.875v-.469a.469.469 0 0 1 .938 0v.469h1.875v-.469a.469.469 0 0 1 .937 0v.469h1.875v-.469a.469.469 0 0 1 .938 0v.469h.468c.776 0 1.406.63 1.406 1.406v1.406H1.438zm0 1.937v6.031c0 .776.63 1.406 1.406 1.406h10.312c.776 0 1.406-.63 1.406-1.406V6.625H1.438z" fill="#DD2D34"/></symbol><symbol fill="none" viewBox="0 0 10 15" id="header-marker"><path d="M5 0C2.243 0 0 2.243 0 5c0 .828.207 1.648.6 2.376l4.127 7.463a.312.312 0 0 0 .546 0l4.128-7.465A5.009 5.009 0 0 0 10 5c0-2.757-2.243-5-5-5zm0 7.5A2.503 2.503 0 0 1 2.5 5c0-1.378 1.122-2.5 2.5-2.5S7.5 3.622 7.5 5 6.378 7.5 5 7.5z" fill="#DD2D34"/></symbol><symbol fill="none" viewBox="0 0 15 15" id="header-time"><g clip-path="url(#ala)"><path d="M7.5 15c4.141 0 7.5-3.359 7.5-7.5S11.641 0 7.5 0A7.501 7.501 0 0 0 0 7.5C0 11.641 3.359 15 7.5 15zM6.964 3.214a.537.537 0 0 1 1.072 0v4.029l2.477 1.982a.536.536 0 0 1-.67.836L7.166 7.918a.538.538 0 0 1-.2-.418V3.214z" fill="#DD2D34"/></g><defs><clipPath id="ala"><path fill="#fff" d="M0 0h15v15H0z"/></clipPath></defs></symbol><symbol fill="none" viewBox="0 0 80 17" id="incrona"><g clip-path="url(#ama)" fill="#fff"><path d="M15.837 14.84h-2.723L8.209 6.335v8.505H5.663V1.92h2.723l4.905 8.514V1.92h2.546v12.92zm12.524-1.324a6.459 6.459 0 0 1-1.987 1.189 6.412 6.412 0 0 1-2.28.414 6.268 6.268 0 0 1-1.747-.243 6.624 6.624 0 0 1-1.57-.667 6.925 6.925 0 0 1-2.368-2.405 7.13 7.13 0 0 1-.665-1.595 6.79 6.79 0 0 1-.23-1.775c0-.612.076-1.204.23-1.775.16-.57.381-1.102.665-1.594.29-.499.636-.952 1.038-1.36a6.58 6.58 0 0 1 2.9-1.722 6.269 6.269 0 0 1 1.748-.243c.786 0 1.546.138 2.28.415.732.27 1.395.666 1.986 1.189l-1.348 2.252a3.76 3.76 0 0 0-1.322-.937 3.945 3.945 0 0 0-1.596-.333c-.562 0-1.088.108-1.58.324a4.113 4.113 0 0 0-2.155 2.19 4.017 4.017 0 0 0-.319 1.594c0 .565.107 1.096.32 1.595.212.492.502.925.869 1.297a4.09 4.09 0 0 0 1.286.883c.49.216 1.017.325 1.579.325a4.04 4.04 0 0 0 1.596-.325c.509-.222.95-.537 1.322-.946l1.348 2.253zm4.027-9.01v5.172h2.546c.348 0 .677-.067.984-.199a2.64 2.64 0 0 0 .807-.558c.23-.234.411-.508.541-.82.136-.318.204-.655.204-1.01a2.48 2.48 0 0 0-.204-1 2.514 2.514 0 0 0-1.348-1.378 2.375 2.375 0 0 0-.984-.207h-2.546zm0 10.334h-2.546V1.92h5.092c.467 0 .916.063 1.348.19.431.12.834.294 1.206.522.379.222.721.493 1.029.811.313.312.58.66.798 1.045.225.385.396.796.515 1.234a5 5 0 0 1 .186 1.37c0 .444-.056.877-.169 1.297-.106.42-.263.82-.47 1.198a4.93 4.93 0 0 1-.745 1.046 5.09 5.09 0 0 1-.993.828l1.41 3.379h-2.705l-1.109-2.604-2.847.018v2.586zm34.142 0h-2.724l-4.905-8.505v8.505h-2.546V1.92h2.724l4.905 8.514V1.92h2.545v12.92zm9.854-5.162V7.092c0-.355-.068-.688-.204-1a2.488 2.488 0 0 0-1.357-1.378 2.375 2.375 0 0 0-.985-.208c-.349 0-.68.07-.993.207a2.513 2.513 0 0 0-.808.55 2.574 2.574 0 0 0-.745 1.829v2.586h5.092zm2.545 5.162h-2.545v-2.586h-5.092v2.586h-2.537V7.092c0-.715.134-1.385.4-2.01a5.29 5.29 0 0 1 1.082-1.648 5.15 5.15 0 0 1 1.614-1.108 4.924 4.924 0 0 1 1.987-.406c.704 0 1.363.136 1.978.406a5.123 5.123 0 0 1 2.714 2.757c.266.624.4 1.294.4 2.009v7.748zm-75.814-.358H.566V3.712c0-.614.232-1.095.695-1.446.464-.363 1.082-.538 1.854-.525v12.741zM48.058 1.74c1.831 0 3.396.655 4.695 1.964 1.311 1.297 1.967 2.887 1.967 4.772 0 1.872-.643 3.444-1.93 4.716-1.299 1.285-2.87 1.927-4.713 1.927-1.942 0-3.55-.66-4.825-1.982-1.274-1.309-1.911-2.881-1.911-4.716 0-1.04.167-1.885.5-2.533.384-.77 1.028-1.254 1.93-1.45.904-.208 1.683-.073 2.339.404.656.477.86 1.18.612 2.11-.321-.379-.717-.575-1.187-.587-.458-.012-.866.196-1.225.624-.346.428-.507 1.016-.483 1.762.05 1.272.557 2.294 1.522 3.065a4.182 4.182 0 0 0 2.728.973c1.15 0 2.134-.416 2.95-1.248.817-.845 1.225-1.872 1.225-3.084 0-1.211-.408-2.239-1.225-3.083-.84-.832-1.843-1.248-3.006-1.248-.544 0-1.039.08-1.484.239-.446-.404-1.033-.618-1.763-.643a3.436 3.436 0 0 0-1.967.514A6.91 6.91 0 0 1 44.68 2.64c1.052-.6 2.177-.9 3.377-.9z"/></g><defs><clipPath id="ama"><path fill="#fff" transform="translate(.566 .467)" d="M0 0h79v15.927H0z"/></clipPath></defs></symbol><symbol fill="none" viewBox="0 0 37 36" id="inst"><rect x=".5" y=".215" width="35.57" height="35.57" rx="17.785" fill="#FF00A7"/><path d="M17.983 10.267c-2.018 0-2.271.008-3.064.045-.79.036-1.33.161-1.803.345-.489.19-.903.443-1.316.857a3.648 3.648 0 0 0-.858 1.316c-.184.472-.31 1.012-.345 1.803-.035.793-.045 1.046-.045 3.064s.01 2.27.045 3.063c.037.791.162 1.331.345 1.804.19.488.444.903.857 1.316a3.64 3.64 0 0 0 1.316.858c.473.183 1.013.309 1.804.345.792.036 1.046.045 3.064.045s2.27-.01 3.063-.045c.79-.036 1.331-.162 1.804-.345.489-.19.903-.445 1.316-.858.413-.413.667-.828.857-1.316.183-.473.308-1.013.345-1.804.036-.792.045-1.045.045-3.063 0-2.018-.009-2.271-.045-3.064-.037-.79-.162-1.33-.345-1.803a3.646 3.646 0 0 0-.857-1.316 3.63 3.63 0 0 0-1.316-.857c-.474-.184-1.014-.31-1.805-.345-.793-.037-1.045-.045-3.064-.045h.002zm-.666 1.339h.666c1.984 0 2.22.007 3.003.042.724.034 1.117.155 1.38.256.346.135.593.296.853.556.26.26.421.508.556.854.102.262.223.655.256 1.38.036.783.044 1.018.044 3.001 0 1.983-.008 2.219-.044 3.002-.033.725-.154 1.118-.256 1.38a2.297 2.297 0 0 1-.556.853c-.26.26-.507.42-.854.556-.261.102-.655.223-1.38.256-.782.035-1.018.043-3.002.043-1.984 0-2.219-.008-3.002-.043-.725-.034-1.118-.155-1.38-.257a2.302 2.302 0 0 1-.855-.555 2.303 2.303 0 0 1-.556-.854c-.101-.262-.223-.655-.255-1.38-.036-.783-.043-1.018-.043-3.003 0-1.984.007-2.218.043-3.001.033-.725.154-1.118.255-1.38a2.31 2.31 0 0 1 .556-.854c.26-.26.508-.421.855-.556.262-.102.655-.223 1.38-.256.685-.031.95-.04 2.336-.042v.002zm4.633 1.233a.891.891 0 1 0 0 1.784.891.891 0 0 0 0-1.784zm-3.967 1.042a3.816 3.816 0 1 0 0 7.632 3.816 3.816 0 0 0 0-7.632zm0 1.34a2.477 2.477 0 1 1 0 4.953 2.477 2.477 0 0 1 0-4.954z" fill="#fff"/></symbol><symbol fill="none" viewBox="0 0 37 36" id="insta-icon"><rect x=".715" width="35.57" height="35.57" rx="17.785" fill="#DD2D34"/><path d="M18.198 10.052c-2.018 0-2.272.01-3.064.045-.791.036-1.331.162-1.804.345-.488.19-.903.444-1.316.857a3.648 3.648 0 0 0-.858 1.316c-.184.473-.31 1.013-.345 1.804-.035.792-.044 1.046-.044 3.064s.009 2.27.045 3.063c.036.79.161 1.33.345 1.803.19.489.444.904.857 1.317a3.64 3.64 0 0 0 1.316.857c.472.184 1.012.31 1.803.345.793.036 1.046.045 3.064.045s2.27-.009 3.063-.045c.791-.036 1.332-.161 1.804-.345.49-.19.903-.444 1.316-.857a3.66 3.66 0 0 0 .858-1.317c.182-.472.308-1.012.345-1.803.035-.793.045-1.045.045-3.063 0-2.018-.01-2.272-.045-3.064-.037-.791-.163-1.331-.345-1.803a3.647 3.647 0 0 0-.858-1.317 3.633 3.633 0 0 0-1.316-.857c-.474-.183-1.014-.309-1.805-.345-.793-.036-1.045-.045-3.064-.045h.003zm-.667 1.34h.667c1.984 0 2.219.006 3.002.042.725.033 1.118.154 1.38.256.347.135.594.296.854.556.26.26.42.507.556.854.102.262.223.655.256 1.38.035.783.043 1.018.043 3.001 0 1.983-.008 2.218-.043 3.002-.034.724-.154 1.117-.256 1.379a2.298 2.298 0 0 1-.556.854 2.3 2.3 0 0 1-.854.555c-.262.102-.655.223-1.38.256-.783.036-1.018.044-3.002.044-1.985 0-2.22-.008-3.003-.044-.724-.033-1.118-.154-1.38-.256a2.302 2.302 0 0 1-.854-.556 2.303 2.303 0 0 1-.556-.854c-.102-.261-.223-.655-.256-1.379-.036-.783-.043-1.019-.043-3.003 0-1.984.007-2.218.043-3.001.033-.725.154-1.118.256-1.38.134-.347.296-.595.556-.855.26-.26.508-.42.854-.556.262-.102.656-.223 1.38-.256.685-.03.951-.04 2.336-.042v.002zm4.633 1.233a.892.892 0 1 0 0 1.785.892.892 0 0 0 0-1.785zm-3.966 1.042a3.816 3.816 0 1 0 0 7.632 3.816 3.816 0 0 0 0-7.632zm0 1.339a2.477 2.477 0 1 1 0 4.954 2.477 2.477 0 0 1 0-4.954z" fill="#fff"/></symbol><symbol viewBox="0 0 113 115" fill="none" id="like"><path d="M90.064 3.445 42.942 0 18.62 17.224 0 62.007l21.09 45.549h13.112v7.272l59.662-7.272 18.621-44.018-3.42-33.3L99.01 24.02l7.03-4.687L90.064 3.445z" fill="#fff"/><g transform="translate(35 30)" clip-path="url(#apa)"><path d="M48.724 21.42a3.581 3.581 0 0 0-2.218-1.527 3.609 3.609 0 0 0-.186-3.667 3.593 3.593 0 0 0-2.216-1.525 3.616 3.616 0 0 0-.187-3.669A3.579 3.579 0 0 0 41.7 9.505a3.61 3.61 0 0 0-.185-3.667 3.61 3.61 0 0 0-4.998-1.015L32.926 7.2a22.432 22.432 0 0 0-6.06-2.051 16.658 16.658 0 0 0-2.313-2.798L23.068.91a3.268 3.268 0 0 0-4.056-.376 3.253 3.253 0 0 0-.915 4.503l.115.179A22.625 22.625 0 0 0 .31 30.492c1.088 7.912 6.358 14.73 13.754 17.795A22.479 22.479 0 0 0 22.713 50c4.744 0 9.285-1.453 13.133-4.202a22.553 22.553 0 0 0 8.146-10.732.777.777 0 1 0-1.463-.528 21.005 21.005 0 0 1-7.587 9.995 20.917 20.917 0 0 1-12.23 3.912c-2.284 0-4.514-.36-6.649-1.072l6.326-4.188v-.001h.002l5.257-3.482a2.11 2.11 0 0 0 .907-1.346 2.105 2.105 0 0 0-.31-1.593l-.069-.105 1.021-.676a3.463 3.463 0 0 1 2.468-.533 5.013 5.013 0 0 0 3.572-.773l8.47-5.61a21.107 21.107 0 0 1-.286 2.184.777.777 0 1 0 1.529.284c.215-1.159.34-2.347.371-3.536l2.387-1.58a3.582 3.582 0 0 0 1.543-2.289 3.582 3.582 0 0 0-.527-2.71zM31.417 8.2l-2.375 1.572-.468-1.26a16.618 16.618 0 0 0-.667-1.545c1.204.306 2.379.718 3.51 1.232zM6.798 13.59a21.063 21.063 0 0 1 12.158-6.933 9.603 9.603 0 0 1 .484 5.818l-1.895 8.189a2.1 2.1 0 0 0-1.12-.626 2.102 2.102 0 0 0-1.594.31l-5.369 3.555h-.001l-7.744 5.128A21.055 21.055 0 0 1 6.798 13.59zm20.234 24.456a.565.565 0 0 1-.243.36l-4.617 3.057-8.57-12.78a.777.777 0 1 0-1.29.866l8.564 12.773-6.592 4.365C7.734 43.822 3.047 37.772 1.92 30.732l7.753-5.117.893 1.331a.777.777 0 0 0 1.291-.866l-.886-1.322 4.719-3.114a.558.558 0 0 1 .628.002.563.563 0 0 1 .155.157l10.476 15.82a.562.562 0 0 1 .083.423zM47.727 23.82a2.037 2.037 0 0 1-.878 1.302l-2.728 1.807-.003.002-9.74 6.45a3.461 3.461 0 0 1-2.467.533 5.015 5.015 0 0 0-3.572.772l-1.022.677-8.58-12.956 2.218-9.58a11.17 11.17 0 0 0-1.562-8.646 1.696 1.696 0 0 1 .478-2.349 1.705 1.705 0 0 1 2.115.197l1.485 1.44a15.187 15.187 0 0 1 3.645 5.586l.809 2.178.004.012.006.015a.77.77 0 0 0 1.147.35l8.293-5.49a2.054 2.054 0 0 1 2.843.578 2.054 2.054 0 0 1-.578 2.842l-.72.477-1.606 1.064-.006.004a.776.776 0 0 0 .865 1.292l1.606-1.064a2.04 2.04 0 0 1 1.54-.299 2.038 2.038 0 0 1 1.302.878 2.039 2.039 0 0 1 .3 1.54 2.039 2.039 0 0 1-.878 1.303l-2.326 1.54a.777.777 0 1 0 .858 1.296l.36-.238 1.246-.825a2.053 2.053 0 0 1 2.843.577 2.054 2.054 0 0 1-.577 2.844l-1.162.769-.019.012-1.146.759a.777.777 0 1 0 .859 1.297l.36-.239 1.246-.825a2.035 2.035 0 0 1 1.54-.3c.538.109 1 .421 1.303.878a2.038 2.038 0 0 1 .3 1.54z" fill="#090909"/><path d="m10 24.5 12 18" stroke="#DD2D34" stroke-width="1.7" stroke-linecap="round"/></g><defs><clipPath id="apa"><path fill="#fff" d="M0 0h50v50H0z"/></clipPath></defs><path fill="#DD2D34" d="m54.381 100 19.118 4.38-4.381 19.118L50 119.118z"/><path d="m66.16 107.749-6.115 5.672-2.586-2.76-1.71 1.604 4.177 4.458 7.823-7.25-1.59-1.724z" fill="#fff"/></symbol><symbol fill="none" viewBox="0 0 37 36" id="link"><rect x=".93" y=".215" width="35.57" height="35.57" rx="17.785" fill="#4800FF"/><g clip-path="url(#ara)"><path d="M24.91 24.198h.003v-4.543c0-2.222-.478-3.933-3.075-3.933-1.25 0-2.087.685-2.43 1.335h-.035v-1.128H16.91v8.268h2.564v-4.094c0-1.078.205-2.12 1.54-2.12 1.315 0 1.334 1.23 1.334 2.19v4.025h2.562zM12.734 15.93H15.3v8.268h-2.567V15.93zm1.282-4.117c-.82 0-1.487.667-1.487 1.488a1.5 1.5 0 0 0 1.487 1.5 1.5 1.5 0 0 0 1.488-1.5 1.489 1.489 0 0 0-1.488-1.488z" fill="#fff"/></g><defs><clipPath id="ara"><path fill="#fff" transform="translate(12.53 11.813)" d="M0 0h12.384v12.384H0z"/></clipPath></defs></symbol><symbol fill="none" viewBox="0 0 36 36" id="link-icon"><rect x=".238" width="35.57" height="35.57" rx="17.785" fill="#DD2D34"/><g clip-path="url(#aqa)"><path d="M24.218 23.983h.003V19.44c0-2.222-.478-3.933-3.076-3.933-1.249 0-2.087.685-2.429 1.335h-.036v-1.128h-2.463v8.268h2.565v-4.094c0-1.078.204-2.12 1.54-2.12 1.314 0 1.334 1.23 1.334 2.19v4.025h2.562zm-12.177-8.268h2.568v8.268H12.04v-8.268zm1.283-4.116c-.82 0-1.487.666-1.487 1.487a1.5 1.5 0 0 0 1.487 1.5 1.5 1.5 0 0 0 1.487-1.5 1.488 1.488 0 0 0-1.487-1.487z" fill="#fff"/></g><defs><clipPath id="aqa"><path fill="#fff" transform="translate(11.837 11.599)" d="M0 0h12.384v12.384H0z"/></clipPath></defs></symbol><symbol fill="none" viewBox="0 0 15 12" id="mail"><path fill-rule="evenodd" clip-rule="evenodd" d="m1.376.91 4.208 4.21a2.368 2.368 0 0 0 3.336 0L13.127.91a.095.095 0 0 0 .028-.076.097.097 0 0 0-.04-.07A2.64 2.64 0 0 0 11.6.288H2.903A2.64 2.64 0 0 0 1.39.764a.096.096 0 0 0-.013.147zM.252 2.94c0-.428.104-.85.303-1.228a.096.096 0 0 1 .152-.023l4.155 4.154a3.384 3.384 0 0 0 4.78 0l4.155-4.154a.095.095 0 0 1 .152.023c.2.379.303.8.303 1.228v5.534a2.654 2.654 0 0 1-2.651 2.651H2.903A2.654 2.654 0 0 1 .252 8.473V2.939z" fill="#DD2D34"/></symbol><symbol viewBox="0 0 520 287" fill="none" id="map"><path d="m519.794 120.44-5.56 14.298-3.177 30.978-7.149 16.68-15.091 9.532-27.801 29.389-17.475 5.561-51.63-13.504-14.298 11.121-13.503 1.588-21.446 9.532-13.503 13.503-8.738 6.355-9.532 2.383-6.354 3.971-11.12 18.269-6.355 6.355-14.297-2.383-1.589-20.652 7.943-22.241 15.886-12.709 3.178-5.56 2.383-6.354 1.588-6.355-.794-7.149-2.383-3.177-3.972-1.588-11.12-5.561-28.595-2.383-11.12 3.972-6.355 10.326-10.326 25.418-8.737 7.149-8.737-3.178-4.766-10.326 3.971-15.886-9.532-18.269-6.354-7.149-9.532-3.177h-10.326l-32.566 12.709-7.943-16.68-6.355-30.978-1.588-4.766-5.56-4.766-9.532-3.972h-11.12l-11.12 2.383-30.979 19.064-10.326-.795-4.766-15.091 1.589-3.178-13.503-5.56L18.587 126l-18.27-3.971L26.53 33.066 42.416.5l7.943 7.149 1.588 6.354 1.589 8.738 3.971 6.354 6.355 4.766 6.354 2.383 5.56.794h17.475l25.418 8.738 15.092 2.382 9.532 3.972 19.063-4.766 25.418-1.588 11.12-1.59 7.149-3.97 23.035-17.476 7.149-3.971 7.943-3.177 4.766.794 3.971 3.972 3.972 4.765 7.148 4.766 13.504 7.943h8.737l12.709 2.383 34.95 15.886 7.943 1.59 7.148-.795 18.269-11.915 10.326-2.383 8.738 2.383 93.728 52.425 4.766.794 9.532-4.766 3.971 2.383 3.177 3.971 2.383 4.766 4.766 6.355 11.12 9.531z" fill="#F8F8F8"/><path d="m382.062 164.457.794 34.155 7.149 19.064 32.567 34.949h-9.532l-46.07 15.886-4.766 5.561-3.971 10.326-4.766 23.829-4.766 7.943-5.56 3.177-11.915 1.589-6.354 4.765-7.943 13.504-1.589 14.297 4.766 31.773v12.709l-3.972 15.091-6.354 12.709-8.737 4.766-19.064-.794-5.56 1.589-3.972 6.354-15.091 71.488-.795 13.503-3.971-3.178-19.858 3.972-13.503-5.56-26.212-13.503-8.738-7.943-6.354-7.149-4.766-11.12v-1.589l-.794-5.56.794-11.915v-10.326l-1.589-6.354-1.588-7.149-5.56-7.943-6.355-4.766-10.326-6.354-3.972-5.561-2.382-5.56-.795-11.12-3.177-7.149-7.149-6.354-27.006-19.064-7.943-8.737-4.766-8.737-4.766-14.298-3.971-4.766-8.738-4.766-1.588-3.971-.795-4.766 1.589-5.56 3.177-5.56 8.737-10.326 2.383-5.56 1.589-7.149v-2.383l-.794-1.589-15.886-9.531-3.178-4.766-1.588-3.972-.795-8.737v-3.177l.795-4.766.794-4.766 2.383-11.915.794-7.943v-7.149l-2.383-11.12-3.971-7.149-8.737-11.914-28.596-57.985-3.177-10.326-.794-4.766.794-6.354v-6.355l-2.383-3.177-4.766-.794-5.56-.794-3.971-1.589-3.177-4.766V74.7l.794-3.971 1.588-7.149v-7.149l-.794-5.56L0 38.956l.794-5.56 4.766-4.765L74.665 11.95 95.317.035l18.269 3.972 11.12 1.589 13.503 5.56-1.588 3.177 4.766 15.092 10.326.794 30.978-19.063 11.12-2.383h11.12l9.532 3.971 5.56 4.766 1.589 4.766 6.354 30.978 7.943 16.68 32.567-12.708h10.326l9.532 3.177 6.354 7.149 9.532 18.269-3.972 15.886 4.766 10.326 8.737 3.177 8.738-7.149 10.326-25.418 6.354-10.326 11.12-3.971 28.596 2.383 11.12 5.56 3.971 1.589 2.383 3.177.795 7.149-1.589 6.354-2.383 6.355-3.177 5.56-15.886 12.709-7.943 22.24 1.588 20.652 14.298 2.383z" fill="#F8F8F8"/><path d="m134.015 36.313-4.766 19.063-3.972 11.915-7.943 4.766-59.573-1.589-42.098-17.475-10.326 3.972L.571 41.079l3.177-12.71 8.738-14.297 9.532-12.709H81.59l7.943 3.972 11.914 16.68 8.738 6.355 23.829 7.943z" fill="#DD2D34" stroke="#fff" stroke-linecap="round" stroke-linejoin="round"/><path d="m63.019 47.36-9.532 12.71-8.738 14.297-3.177 12.709 4.766 15.886 10.326-3.972 42.099 17.475-3.972 10.326-3.177 17.475-1.589 18.269 2.383 10.326-3.972 9.532-5.56 5.56-7.148-.794-11.915-19.858-15.092-7.943-7.149-8.738-32.566-34.949-7.15-19.064-.794-34.155 6.355-6.354 11.12-18.27 6.355-3.97 9.531-2.384 8.738-6.354 13.503-13.503L78.11 2.085 91.614.496l5.56 8.738-1.589 14.297-3.971 5.56-19.858 10.326-8.737 7.943z" fill="#DD2D34" stroke="#fff" stroke-linecap="round" stroke-linejoin="round"/><path d="m149.56 43.407 3.972 48.452-3.178 15.092-3.971 7.943-4.766 5.56-3.177 7.149v10.326l-8.738 2.383-7.149-3.971-6.354-7.943-11.915-21.447-7.149-3.177-57.19 10.326-9.531-2.383-16.68-15.092L3.406 91.86 1.024 81.533l1.59-18.269L5.79 45.79l3.972-10.325 59.573 1.588 7.943-4.766 3.971-11.914 4.766-19.064 22.241 7.15 21.446 14.297 19.858 20.652z" fill="#DD2D34" stroke="#fff" stroke-linecap="round" stroke-linejoin="round"/><path d="m217.407 22.864 10.327 4.766 16.68 15.092 9.532 2.383 57.19-10.326 7.149 3.177 11.914 21.447 6.355 7.943 7.148 3.971 8.738-2.383 2.383 15.092-7.944 11.915-11.914 10.326-7.943 13.503-1.588 41.304-3.178 17.475-10.326 34.155v17.475l2.383 15.092 1.589 28.595.794 6.354 11.12 10.326-5.56 8.737-15.886 10.326-50.041 56.396-.795 2.383-.794 8.738-15.886 3.177-23.829-14.298-5.561.794-3.971 3.178-3.177 5.56-6.355 3.971-13.503 4.766-6.354-2.382-3.178-3.972-1.588-5.56-2.383-5.561-5.56-4.765-7.149-5.56-5.56.794-3.178 3.177-4.765 10.326-3.178 5.56-4.766 3.972-18.269 8.737-78.636 18.269-8.737-6.354-.795-3.972.795-4.766 2.383-3.971 4.765-4.766 7.943-11.12-.794-4.766-1.588-2.383-9.532-5.56-5.56-8.738-2.383-10.326-2.383-19.063-3.972-8.737-5.56-5.561-4.766-3.971-4.766-6.354-1.588-7.149-.794-19.064.794-13.503 15.092-71.488 3.971-6.354 5.56-1.589 19.064.795 8.737-4.766 6.355-12.709 3.971-15.092v-12.709l-4.766-31.772 1.589-14.298L68.872 73.7l6.354-4.766 11.915-1.588 5.56-3.178 4.766-7.943 4.766-23.829 3.971-10.326 4.766-5.56L157.04.624h9.532l7.148 8.737 15.093 7.943 11.914 19.858 7.149.794 5.56-5.56 3.971-9.532z" fill="#DD2D34" stroke="#fff" stroke-linecap="round" stroke-linejoin="round"/><path d="m587.734 211.46-1.589 17.475-1.589 4.766-4.765 4.766-4.767 1.588h-18.269l-6.354 1.589-1.589 3.972 2.383 3.971 7.943 6.355v4.765l-3.177 3.972-7.149 6.354-3.971 6.355-1.589 7.943v4.766l.795 2.383.794.794 3.177.794 6.355-.794h2.382l1.589 1.589 1.589 1.588 2.383 6.355 3.971 3.971 4.766 3.177 2.383 4.766 1.588 4.766.795 5.56 3.177 12.709.795 8.738-4.767 19.063.795 9.532 1.588 6.354 4.766 3.177 4.766-.794 10.326-3.177h3.177l3.972 1.588 3.177 6.355 12.709 16.68-23.829 20.652-9.532 15.092-3.971 14.298-3.972 10.326-5.56 4.766-6.355 2.382h-7.148l-7.943 2.383-3.178 2.383-.794 4.766 2.383 4.766 5.56 9.532.794 2.383-1.588 4.765-11.12 9.532-3.178 5.56-.794 4.766 5.56 11.915.795 3.177-.795 3.972-3.177 10.326-1.589 8.737 2.383 7.943-14.297 15.092-7.943 15.092-3.972 2.383h-5.56l-10.326-3.972-5.56-.794-54.013 9.531-8.737-.794-6.355-2.383-26.212-2.383-5.56.795-4.766 2.383-2.383 1.588-4.766 3.972-3.177.794-27.007-.794-3.177 3.177-2.383 3.177-1.588 5.56-1.589 7.943-.794 3.972-3.177 4.766-1.589 4.766-1.589 5.56v15.886l1.589 5.56 2.383 5.56 3.177 4.766 2.383 5.56-1.589 4.766-2.383 4.766-3.177 4.766-.794.794-4.766 11.12-2.383 4.766-6.354 7.149-17.475 7.943-5.56 4.766-3.972 4.766-2.383 4.765-1.588 9.532-1.589 9.532-2.383 11.12-54.013 19.858-7.943.794-8.737-2.383v-4.766l2.383-4.765 2.382-4.766-1.588-3.972-6.355-3.177-15.091 1.589-7.943 3.177-5.561 4.766-3.971 5.56-5.56 6.354-11.12 6.355-7.149 2.383-73.87-5.561-8.738.795-19.063 5.56h-7.944l-7.943-1.589-4.766-3.971-3.971-3.972-.794-5.56.794-4.766 3.177-4.765 3.972-3.178 4.765-.794 13.504 3.177h2.382l3.178-3.177.794-4.766-1.588-3.971-3.178-7.149v-3.177l5.56-10.327 1.59-4.765v-5.56l-3.972-7.149-7.15-7.943-30.183-19.858-.794-1.589-.794-2.382-7.944-30.979-2.382-7.148-8.738-11.121-4.766.795.794-8.738.795-2.382 50.041-56.396 15.886-10.327 5.56-8.737-11.12-10.326-.794-6.354-1.589-28.595-2.383-15.092v-17.475l10.326-34.155 3.178-17.475 1.588-41.304 7.943-13.503 11.915-10.326 7.943-11.915-2.383-15.092v-10.326l3.177-7.148 4.766-5.561 3.972-7.943 3.177-15.091-3.972-48.453-1.588-13.503-9.532-27.801.795-12.709 7.943-23.829 2.382-13.504V143.15l-11.914-30.184 1.589-8.737 3.176-8.738-2.382-7.943-5.56-4.766-5.56-2.382 7.148-16.681 3.178-30.978 5.559-14.297 23.83-10.327 12.709 2.383 9.532 11.12 6.354 3.972h5.56l11.915-4.766 4.765 1.589 4.766 5.56 3.177 1.589 5.561 3.177h4.765l4.767-2.383 2.382-3.177 3.177-4.766 5.561-4.766 5.56-.794 4.765.794 30.185 8.738 42.098-7.944 8.737-3.177 5.56 2.383 7.943 6.355 3.972-.795 8.737-7.148 7.149-3.178 7.943-.794h7.943l6.354-2.383L372.476.97l33.361 10.326 4.766 5.56 4.766 7.149 8.737 18.269.795 7.943-2.384 8.737-1.588 4.766-1.589 4.766v3.971l1.589 7.15 3.972 5.56 77.842 69.104 6.354 2.383 8.737-5.56 3.972-.794 3.971 3.177 2.384 4.766 2.382 12.709.795 10.326.794 5.56 4.766 7.943 19.063 14.297 8.738 3.972 7.943.794 15.092-2.383z" fill="#DD2D34" stroke="#fff" stroke-linecap="round" stroke-linejoin="round"/></symbol><symbol fill="none" viewBox="0 0 113 115" id="master"><path d="M4 26v33l18.5-22.5L4 26zm4-.687 21.268 13V18.826L8 25.312zM95.84 92.77l12.561-4.847-2.468-13.818L95.841 92.77z" fill="#DD2D34"/><path d="M90.064 3.445 42.942 0 18.62 17.224 0 62.007l21.09 45.549h13.112v7.272l59.662-7.272 18.621-44.018-3.42-33.3L99.01 24.02l7.03-4.687L90.064 3.445z" fill="#fff"/><g clip-path="url(#aua)" transform="translate(30 30)"><path d="M31.758 25.417c0 8.774-7.108 15.884-15.879 15.884S0 34.19 0 25.417 7.11 9.533 15.88 9.533c8.768 0 15.878 7.111 15.878 15.884z" fill="#797979"/><path d="M34.95 9.533c-3.561 0-6.84 1.187-9.49 3.168l.014.001c.52.504 1.096.858 1.539 1.438l-3.304.052c-.518.523-.99 1.091-1.434 1.682H28.1c.443.532.853.995 1.224 1.582h-8.107a15.84 15.84 0 0 0-.811 1.584h9.841c.258.544.488.956.683 1.533H19.825a15.3 15.3 0 0 0-.442 1.68h12.015c.117.55.208 1.058.27 1.576H19.144c-.052.522-.08 1.053-.08 1.588h12.693c0 .563-.04 1.083-.097 1.589H19.144c.054.538.133 1.067.238 1.588h11.996a18.73 18.73 0 0 1-.447 1.57H19.787c.169.542.374 1.07.597 1.584h9.864c-.273.579-.582 1.04-.924 1.582H21.19c.32.556.675 1.087 1.06 1.595l5.85.088c-.498.598-1.138.959-1.721 1.483.032.026-.932-.003-2.83-.033 2.887 2.98 6.923 4.838 11.4 4.838 8.773 0 15.885-7.111 15.885-15.884 0-8.772-7.11-15.884-15.884-15.884z" fill="#A6A6A6"/></g><defs><clipPath id="aua"><path fill="#fff" d="M0 0h50.833v50.833H0z"/></clipPath></defs></symbol><symbol fill="none" viewBox="0 0 98 100" id="master@mob"><path d="M3.483 22.642V51.38l16.111-19.594-16.11-9.144zm3.484-.598 18.521 11.32V16.397L6.967 22.043zM83.464 80.79l10.938-4.222-2.149-12.033-8.79 16.255z" fill="#DD2D34"/><path d="M78.433 3 37.396 0l-21.18 15L0 54l18.367 39.666h11.418v6.333l51.957-6.333 16.216-38.333-2.978-29-8.757-5.415 6.123-4.081L78.433 3z" fill="#F5F5F5"/><g clip-path="url(#ava)"><path d="M54.653 50.001c0 7.642-6.19 13.833-13.828 13.833-7.639 0-13.829-6.193-13.829-13.833 0-7.64 6.192-13.832 13.829-13.832 7.636 0 13.828 6.193 13.828 13.832z" fill="#797979"/><path d="M57.432 36.169a13.752 13.752 0 0 0-8.264 2.758l.011.002c.454.438.955.747 1.34 1.251l-2.877.046c-.45.455-.861.95-1.249 1.465h5.074c.386.463.743.866 1.066 1.378h-7.06c-.258.445-.498.903-.706 1.379h8.57c.224.474.425.833.595 1.335H44.26c-.154.477-.285.965-.385 1.463h10.463c.103.479.181.921.235 1.372H43.667c-.046.455-.07.917-.07 1.384h11.054c0 .49-.034.943-.084 1.383h-10.9c.047.469.116.93.207 1.383h10.447c-.108.448-.233.9-.389 1.367h-9.705c.147.473.325.932.52 1.38h8.59c-.238.504-.507.906-.805 1.378H45.45c.28.484.588.946.922 1.389l5.096.076c-.434.521-.992.835-1.5 1.292.028.022-.811-.003-2.464-.03a13.781 13.781 0 0 0 9.928 4.214c7.64 0 13.833-6.193 13.833-13.832 0-7.64-6.191-13.833-13.832-13.833z" fill="#A6A6A6"/></g><defs><clipPath id="ava"><path fill="#fff" transform="translate(26.996 27.867)" d="M0 0h44.268v44.268H0z"/></clipPath></defs></symbol><symbol fill="none" viewBox="0 0 113 115" id="mir"><path d="M4 26v33l18.5-22.5L4 26zm4-.687 21.268 13V18.826L8 25.312zM95.84 92.77l12.561-4.847-2.468-13.818L95.841 92.77z" fill="#DD2D34"/><path d="M90.064 3.445 42.942 0 18.62 17.224 0 62.007l21.09 45.549h13.112v7.272l59.662-7.272 18.621-44.018-3.42-33.3L99.01 24.02l7.03-4.687L90.064 3.445z" fill="#fff"/><g clip-path="url(#awa)" transform="translate(36 36)"><path d="M20.31.798c3.107 0 6.065.712 8.718 1.992.417.188.834.412 1.25.637l-1.82 1.612-2.727-2.81-4.7 4.12-2.769-2.966-8.643 7.683 5.534 6.033-2.16 1.873 5.46 6.033-2.16 1.873 7.808 8.581 4.622-4.197 4.02 4.498c-.797.6-1.668 1.2-2.614 1.724a19.986 19.986 0 0 1-9.78 2.546C9.391 40.03.484 31.226.484 20.397.445 9.641 9.354.797 20.309.797zm-3.641 18.399L21.407 15l4.247 4.684-4.74 4.197-4.245-4.684zm3.374 8.094 4.7-4.234 4.283 4.683-4.739 4.198-4.244-4.647zm-6.745-16.075 4.73-4.198 4.246 4.684-4.74 4.197-4.236-4.683zm8.679-2.256 3.531-3.14 3.185 3.485-3.526 3.185-3.19-3.53zm6.287 14.427 3.531-3.141 3.185 3.521-3.526 3.15-3.19-3.53zm3.108 7.084 3.525-3.148 3.183 3.486-3.525 3.184-3.183-3.522zm1.44-16.188 2.35-2.1 2.123 2.325-2.349 2.098-2.123-2.324zM29.78 7.35l2.35-2.135 2.124 2.36-2.352 2.098L29.78 7.35zm6.027 13.866 2.35-2.098 2.166 2.328-2.387 2.098-2.13-2.328zm-10.582-5.21 3.525-3.147 3.184 3.484-3.525 3.149-3.184-3.485z" fill="#C1C1C1"/></g><defs><clipPath id="awa"><path fill="#fff" transform="translate(.484 .494)" d="M0 0h39.838v39.838H0z"/></clipPath></defs></symbol><symbol fill="none" viewBox="0 0 98 100" id="mir@mob"><path d="M3.504 22.642V51.38l16.11-19.594-16.11-9.144zm3.483-.598 18.522 11.32V16.397L6.987 22.043zM83.484 80.79l10.938-4.222-2.148-12.033-8.79 16.255z" fill="#DD2D34"/><path d="M78.453 3 37.417 0l-21.18 15L.02 54l18.367 39.666h11.417v6.333l51.958-6.333 16.216-38.333-2.979-29-8.756-5.415 6.122-4.081L78.453 3z" fill="#F5F5F5"/><g clip-path="url(#axa)"><path d="M48.636 32.916c2.706 0 5.282.62 7.593 1.735.363.164.726.36 1.088.555l-1.584 1.404-2.376-2.448-4.093 3.589-2.41-2.583-7.528 6.69 4.82 5.254-1.882 1.632 4.755 5.254-1.881 1.63 6.8 7.474 4.025-3.656 3.5 3.917a19.645 19.645 0 0 1-2.276 1.502 17.407 17.407 0 0 1-8.517 2.217c-9.541 0-17.299-7.667-17.299-17.097-.033-9.367 7.725-17.069 17.265-17.069zm-3.17 16.024 4.126-3.656 3.698 4.08-4.127 3.654-3.698-4.078zm2.938 7.048 4.092-3.687 3.73 4.079-4.126 3.655-3.697-4.047zm-5.875-14 4.12-3.654 3.697 4.079-4.127 3.655-3.69-4.08zm7.559-1.963 3.075-2.736 2.773 3.036-3.07 2.773-2.778-3.073zm5.475 12.564 3.075-2.736 2.773 3.066-3.07 2.743-2.778-3.073zm2.706 6.169 3.07-2.742 2.772 3.035-3.07 2.774-2.771-3.067zm1.255-14.098 2.047-1.828 1.848 2.024-2.045 1.827-1.85-2.023zm-2.64-6.037 2.046-1.86 1.85 2.056-2.049 1.827-1.848-2.023zm5.248 12.075 2.046-1.827 1.887 2.027-2.08 1.827-1.853-2.028zm-9.216-4.537 3.07-2.741 2.773 3.035-3.07 2.741-2.773-3.035z" fill="#C1C1C1"/></g><defs><clipPath id="axa"><path fill="#fff" transform="translate(31.371 32.652)" d="M0 0h34.694v34.694H0z"/></clipPath></defs></symbol><symbol fill="none" viewBox="0 0 253 254" id="person"><g clip-path="url(#aya)"><path d="M231.752 192.29c10.062-17.654 15.813-38.082 15.813-59.855 0-66.863-54.202-121.066-121.065-121.066S5.435 65.572 5.435 132.435c0 21.773 5.751 42.201 15.813 59.855h210.504z" fill="#EBEBEB"/><path d="M113.892 252.849a122.208 122.208 0 0 0 25.366-.018v-66.04h-25.366v66.058z" fill="#EC4040"/><path d="M139.258 186.791h-25.366v15.255a40.016 40.016 0 0 0 12.609 2.04c4.399 0 8.699-.726 12.756-2.09v-15.205h.001z" fill="#C14040"/><path d="m154.575 175.594 11.95-18.455c-2.5-.773-5.027-1.454-7.576-2.044-5.017-5.016-6.289-14.527-6.518-21.181a55.378 55.378 0 0 1-7.99 7.638 29.233 29.233 0 0 1-17.929 6.13 29.228 29.228 0 0 1-17.928-6.13 55.382 55.382 0 0 1-7.991-7.638c-.229 6.654-1.5 16.165-6.517 21.181a108.211 108.211 0 0 0-7.593 2.049l11.943 18.447a33.443 33.443 0 0 0 56.149.003z" fill="#FFAA7B"/><path d="M108.585 141.552a55.433 55.433 0 0 1-7.991-7.638c-.229 6.654-1.5 16.165-6.517 21.181a108.194 108.194 0 0 0-7.593 2.049l8.277 12.786c5.827 2.626 12.068 3.97 17.38 1.79 11.471-4.707 13.833-18.158 14.313-24.038a29.237 29.237 0 0 1-17.869-6.13z" fill="#FC9460"/><path d="M103.886 163.9c-.569.152-1.13.332-1.681.542-4.032 1.535-9.436 5.411-12.482 15.157-2.944.05-16.393.761-25.175 9.406-4.997 4.92-7.53 11.525-7.53 19.631v22.941c17 11.935 37.208 19.611 59.077 21.473v-82.94l-12.209-6.21z" fill="#547557"/><path d="M89.08 156.37c-46.29 15.095-59.492 17.794-65.067 29.164-.99 2.019-1.91 4.291-2.766 6.756a121.65 121.65 0 0 0 36.512 39.806v-23.461c0-28.804 32.514-28.298 32.514-28.298 3.387-11.391 9.922-14.921 14.632-15.919l-15.824-8.048z" fill="#415E49"/><path d="M231.752 192.29c-.856-2.465-1.776-4.737-2.766-6.756-5.574-11.37-18.777-14.069-65.068-29.164l-15.931 8.103v87.125c35.907-6.432 66.319-28.696 83.765-59.308z" fill="#54755D"/><path d="M173.658 78.615c3.214-13.106 5.838-32.744-1.11-49.085C159.11-2.067 122.541-.12 112.849.994c-1.017.116-1.527 1.277-.949 2.121 5.809 8.48-16.95.798-29.32 26.745-7.84 16.444-5.869 35.806-3.003 48.755h94.081z" fill="#56415E"/><path d="M125.969 35.314s-3.643-8.378 5.582-15.296C140.764 13.11 127.03.697 126.995.665c-6.179-.391-11.313.004-14.147.33-1.017.116-1.527 1.277-.949 2.121 5.809 8.48-16.95.798-29.32 26.745-7.84 16.444-5.869 35.806-3.003 48.755h21.506l6.831-2.714 18.056-40.587z" fill="#45304C"/><path d="M175.547 76.954c-2.028-1.858-6.561-.916-8.307.221.381 2.392.406 4.827.074 7.226l-2.06 15.008c0 1.21-.038 2.397-.108 3.563 5.024 1.515 8.014-2.996 8.435-6.091a22.97 22.97 0 0 1 .887-3.928c1.337-4.174 6.158-11.344 1.079-16z" fill="#FFAA7B"/><path d="M77.454 76.954c2.027-1.858 6.56-.916 8.306.221a24.538 24.538 0 0 0-.073 7.226l2.06 15.008c0 1.21.038 2.397.109 3.563-5.025 1.515-8.015-2.996-8.436-6.091a23.01 23.01 0 0 0-.887-3.928c-1.337-4.174-6.159-11.344-1.08-16z" fill="#FC9460"/><path d="M164.709 68.947c-2.283-3.582-1.527-6.508-1.49-9.933 0 0 1.927-15.772-17.498-21.372-5.623-1.621-13.558-2.59-21.689-2.279-5.659 3.99-9.385 9.843-9.385 18.138 0 3.812.822 6.791-1.517 10.656-2.523 4.168-3.991 10.18-3.157 16.575l2.099 16.103c0 23.151 11.735 38.888 21.717 47.051a29.418 29.418 0 0 0 4.517 3.029 29.081 29.081 0 0 0 6.123-3.646c9.799-7.61 21.319-22.279 21.319-43.86l2.06-15.008c.812-5.913-.597-11.529-3.099-15.454z" fill="#FFC7AB"/><path d="M133.89 142.943c-9.8-8.014-21.32-23.462-21.32-46.19l-2.061-15.809c-.818-6.276.622-12.179 3.099-16.271 2.297-3.794 1.49-6.719 1.49-10.462 0-8.93 4.392-14.987 10.871-18.897-17.264.238-36.189 6.09-36.189 23.7 0 3.553.807 6.33-1.49 9.934-2.476 3.885-3.917 9.49-3.099 15.45l2.061 15.012c0 21.581 11.52 36.249 21.32 43.859a29.233 29.233 0 0 0 17.928 6.129c4.472 0 8.855-1.021 12.82-2.951a28.869 28.869 0 0 1-5.43-3.504z" fill="#FFAA7B"/><path d="M136.905 253.05a120.84 120.84 0 0 0 13.431-1.902v-86.926l-13.431 5.888v82.94z" fill="#6D9375"/><path d="M169.799 155.09a57.237 57.237 0 0 0-14.531-11.432.953.953 0 0 0-.867-.031.968.968 0 0 0-.538.682c-.798 3.908-4.111 15.747-15.933 23.574-2.443 1.618-2.893 5.022-.966 7.229l11.88 13.606c2.858 3.292 8.12 2.7 10.183-1.141 3.487-6.493 8.346-16.375 11.943-27.001a5.513 5.513 0 0 0-1.171-5.486z" fill="#8BBC99"/><path d="M115.078 167.884a36.637 36.637 0 0 1-5.561-4.522c-1.436-.115-4.189-.109-7.311 1.079-4 1.523-9.346 5.352-12.405 14.92a208.284 208.284 0 0 0 4.18 8.217c2.063 3.84 7.325 4.433 10.183 1.141l11.88-13.607c1.927-2.207 1.477-5.611-.966-7.228z" fill="#6D9375"/><path d="M110.416 164.222c-8.072-7.465-10.59-16.577-11.27-19.913a.963.963 0 0 0-1.407-.651 57.224 57.224 0 0 0-14.53 11.432 5.513 5.513 0 0 0-1.17 5.487c2.438 7.204 5.456 14.064 8.234 19.76 5.666-19.053 20.142-16.116 20.143-16.115z" fill="#54755B"/><path d="M204.625 39.958c-5.628 7.233-11.471 17.812-11.471 30.567 0 24.603-30.637 65.09 0 73.013 25.186 6.513 39.093 9.415 48.704 25.724 3.706-11.612 5.708-23.985 5.708-36.827-.001-37.086-16.681-70.27-42.941-92.477zm-156.25 0c5.628 7.233 11.471 17.812 11.471 30.567 0 24.603 30.637 65.09 0 73.013-25.186 6.513-39.093 9.415-48.704 25.724-3.705-11.612-5.707-23.985-5.707-36.827 0-37.086 16.68-70.27 42.94-92.477z" fill="#fff"/><path d="M216.24 213.681c-2.396-9.902-8.504-15.622-13.444-18.745-3.089-1.953-7.116.245-7.116 3.9v32.953a121.696 121.696 0 0 0 20.56-18.108z" fill="#415E47"/></g><defs><clipPath id="aya"><path fill="#fff" transform="translate(0 .5)" d="M0 0h253v253H0z"/></clipPath></defs></symbol><symbol viewBox="0 0 113 115" fill="none" id="phone"><path d="M90.064 3.445 42.942 0 18.62 17.224 0 62.007l21.09 45.549h13.112v7.272l59.662-7.272 18.621-44.018-3.42-33.3L99.01 24.02l7.03-4.687L90.064 3.445z" fill="#fff"/><g stroke-width="1.15" stroke-linecap="round"><path d="M21.484 34.106h16.682" stroke="#090909"/><path d="M24.36 37.558h10.93" stroke="#DD2D34"/><path d="M28.387 30.655h8.053m-2.875 10.929h4.601" stroke="#090909"/></g><g transform="translate(35 30)" clip-path="url(#aza)" fill="#090909"><path d="M15.117 43.714a.81.81 0 0 1-.797-.954c1.584-8.673-1.901-13.827-1.937-13.878a.811.811 0 0 1-.014-.905c.518-.793.893-3.09.912-5.586.024-3.088-.48-4.576-.713-4.78a2.14 2.14 0 0 0-2.008-.218 1.487 1.487 0 0 0-.933 1.2c-.157 1.024-.644 2.474-1.209 4.154-.622 1.853-1.328 3.953-1.66 5.74a35.991 35.991 0 0 0-.544 6.518.81.81 0 0 1-.205.559L2.84 39.112a.81.81 0 1 1-1.207-1.078l2.96-3.313c0-2.19.192-4.374.574-6.529.354-1.899 1.078-4.056 1.718-5.96.518-1.542 1.007-2.998 1.144-3.884A3.11 3.11 0 0 1 9.935 15.9a3.762 3.762 0 0 1 3.585.401c1.914 1.382 1.656 9.314.456 12.078.865 1.473 3.4 6.649 1.935 14.67a.809.809 0 0 1-.794.664zm-1.381 7.269a.81.81 0 0 1-.583-1.37l2.76-2.865a.808.808 0 0 1 .731-.234c.03.005 3.175.563 5.857-.778.04-.02 2.742-1.336 3.686-3.629a.81.81 0 0 1 1.496.616c-1.184 2.878-4.34 4.404-4.473 4.467-2.55 1.275-5.35 1.107-6.42.979l-2.471 2.566a.806.806 0 0 1-.583.248z"/><path d="M36.238 24.174a.809.809 0 0 1-.809-.809V3.79c0-1.072-1.033-1.943-2.304-1.943H16.16c-1.271 0-2.306.872-2.306 1.943v13.168a.81.81 0 0 1-1.618 0V3.79c0-1.963 1.76-3.56 3.924-3.56h16.966c2.163 0 3.922 1.597 3.922 3.56v19.576a.808.808 0 0 1-.809.81zM22.164 42.163h-6.525a.81.81 0 0 1 0-1.618h6.526a.809.809 0 0 1 0 1.618h-.001z"/><path d="M36.11 6.204H13.103a.809.809 0 1 1 0-1.617H36.11a.809.809 0 1 1 0 1.617zm-16.476 31.36h-3.816a.809.809 0 1 1 0-1.617h3.816a.809.809 0 1 1 0 1.617zM36.867 51.95a.809.809 0 0 1-.741-.483l-.717-1.631-4.272-1.95a.818.818 0 0 1-.249-.176l-8.159-8.512a1.685 1.685 0 0 1-.026-.028c-.11-.126-1.064-1.267-.683-2.46.245-.765.933-1.289 2.047-1.555 1.97-.47 4.383.905 5.974 2.056l-6.552-14.914a3.008 3.008 0 0 1-.073-2.266 2.862 2.862 0 0 1 1.542-1.644 2.957 2.957 0 0 1 3.873 1.563.81.81 0 0 1-1.481.651 1.34 1.34 0 0 0-1.742-.733 1.26 1.26 0 0 0-.675.725c-.126.342-.113.72.037 1.053l7.125 16.22a.809.809 0 0 1 .052.486l-.194.968a.808.808 0 0 1-1.343.435c-1.076-.994-4.283-3.479-6.168-3.025-.581.139-.836.335-.881.472-.072.22.16.662.353.895l8.034 8.382 4.413 2.014c.18.082.325.229.404.41l.841 1.914a.809.809 0 0 1-.74 1.134z"/><path d="M34.12 34.808a.809.809 0 0 1-.741-.484L27.35 20.6a.81.81 0 0 1 1.481-.651l6.03 13.724a.809.809 0 0 1-.74 1.135z"/><path d="M32.158 30.34a.81.81 0 0 1-.741-.483 3.008 3.008 0 0 1-.073-2.266 2.868 2.868 0 0 1 3.795-1.667 3.01 3.01 0 0 1 1.62 1.586.81.81 0 0 1-.722 1.144.81.81 0 0 1-.76-.493 1.398 1.398 0 0 0-.75-.74 1.25 1.25 0 0 0-1.666.732c-.125.342-.112.72.037 1.053a.81.81 0 0 1-.74 1.135z"/><path d="M38.131 33.453a.81.81 0 0 1-.741-.484l-2.112-4.808a.808.808 0 0 1 1.481-.65l2.112 4.807a.81.81 0 0 1-.74 1.135z"/><path d="M36.783 30.383a.809.809 0 0 1-.741-.483 3.008 3.008 0 0 1-.073-2.267 2.869 2.869 0 0 1 3.795-1.667 3.008 3.008 0 0 1 1.62 1.587.81.81 0 0 1-.722 1.143.808.808 0 0 1-.76-.493 1.398 1.398 0 0 0-.75-.74 1.25 1.25 0 0 0-1.666.732c-.125.343-.112.72.037 1.054a.81.81 0 0 1-.74 1.134z"/><path d="M42.371 32.622a.81.81 0 0 1-.74-.484l-1.73-3.934a.809.809 0 0 1 1.482-.651l1.729 3.934a.809.809 0 0 1-.74 1.135z"/><path d="M41.374 30.35a.81.81 0 0 1-.74-.483 2.918 2.918 0 1 1 5.341-2.346.81.81 0 1 1-1.481.651 1.3 1.3 0 1 0-2.38 1.046.808.808 0 0 1-.74 1.134v-.001z"/><path d="M50.964 46.064a.809.809 0 0 1-.742-.484l-.78-1.774a.809.809 0 0 1-.066-.377l.232-3.616-5.114-11.641a.809.809 0 1 1 1.481-.651l5.194 11.823a.808.808 0 0 1 .067.377l-.232 3.615.7 1.594a.808.808 0 0 1-.74 1.135z"/></g><defs><clipPath id="aza"><path fill="#fff" transform="translate(.715 .204)" d="M0 0h51.77v51.77H0z"/></clipPath></defs><path fill="#DD2D34" d="m54.381 100 19.118 4.38-4.381 19.118L50 119.118z"/><path d="m66.16 107.749-6.115 5.672-2.586-2.76-1.71 1.604 4.177 4.458 7.823-7.25-1.59-1.724z" fill="#fff"/></symbol><symbol fill="none" viewBox="0 0 114 125" id="protect"><path d="M91.034 3.445 43.912 0 19.59 17.224.97 62.007l21.09 45.549h13.111v7.272l59.663-7.272 18.621-44.018-3.421-33.3L99.98 24.02l7.03-4.687L91.034 3.445z" fill="#fff"/><path d="M83.694 48.031a3.685 3.685 0 0 0-4.257 2.739l-2.125 7.92a3.59 3.59 0 0 0-3.78-.114l-6.154 3.61a8.13 8.13 0 0 0-4.006 6.985v6.83h-1.8a.9.9 0 0 0-.9.9V84.1a.9.9 0 0 0 .9.9h16.2a.9.9 0 0 0 .9-.9v-7.2a.9.9 0 0 0-.9-.9h-1.8v-1.044a2.7 2.7 0 0 1 .942-2.05l4.197-3.6a4.487 4.487 0 0 0 1.418-2.25l3.905-14.572c.082-.305.123-.62.121-.937a3.615 3.615 0 0 0-2.86-3.516zm-6.822 35.17h-14.4v-5.4h14.4v5.4zm7.824-31.184L80.79 66.591c-.14.526-.437.997-.85 1.35l-4.197 3.6a4.5 4.5 0 0 0-1.571 3.415V76h-9v-6.829a6.323 6.323 0 0 1 3.112-5.434l6.147-3.606a1.81 1.81 0 0 1 .9-.24 1.776 1.776 0 0 1 1.608.99 1.89 1.89 0 0 1-.82 2.44l-5.04 2.904a.901.901 0 0 0 .9 1.56l5.04-2.904a3.675 3.675 0 0 0 1.682-4.416l2.476-9.225a1.91 1.91 0 0 1 2.148-1.44 1.806 1.806 0 0 1 1.37 2.217zM57.972 76h-1.8v-6.829a8.13 8.13 0 0 0-4.001-6.986L46.01 58.57a3.594 3.594 0 0 0-3.78.117l-2.125-7.92a3.69 3.69 0 0 0-4.259-2.739 3.605 3.605 0 0 0-2.74 4.452l3.907 14.574a4.478 4.478 0 0 0 1.417 2.25l4.197 3.6a2.699 2.699 0 0 1 .946 2.051V76h-1.8a.9.9 0 0 0-.9.9v7.2a.9.9 0 0 0 .9.9h16.2a.9.9 0 0 0 .9-.9v-7.2a.9.9 0 0 0-.9-.9zm-14.17-4.46-4.197-3.6a2.68 2.68 0 0 1-.85-1.35l-3.907-14.574a1.806 1.806 0 0 1 1.372-2.224 1.911 1.911 0 0 1 2.15 1.44l2.475 9.224a3.675 3.675 0 0 0 1.682 4.417l5.04 2.904a.9.9 0 1 0 .9-1.56l-5.04-2.904a1.89 1.89 0 0 1-.82-2.44 1.778 1.778 0 0 1 1.605-.982c.313 0 .622.08.894.236l6.154 3.611a6.32 6.32 0 0 1 3.112 5.433v6.83h-9v-1.045a4.5 4.5 0 0 0-1.57-3.417zm13.27 11.66h-14.4v-5.4h14.4v5.4zm17.1-39.959v-11.34a.9.9 0 0 0-1.35-.78l-1.283.732a9.88 9.88 0 0 1-9.337.26l-2.035-1.017a.9.9 0 0 0-.804 0l-2.02 1.014A9.877 9.877 0 0 1 48 31.852l-1.278-.731a.9.9 0 0 0-1.35.78v11.34a22.46 22.46 0 0 0 11.91 19.853l2.065 1.1a.9.9 0 0 0 .848 0l2.065-1.1A22.457 22.457 0 0 0 74.17 43.24zm-14.4 19.14-1.64-.876a20.663 20.663 0 0 1-10.96-18.264v-9.789a11.674 11.674 0 0 0 10.973.27l1.62-.81 1.633.816a11.675 11.675 0 0 0 10.974-.276v9.79a20.66 20.66 0 0 1-10.96 18.263l-1.64.876z" fill="#090909"/><path d="M70.572 37.332a.9.9 0 0 0-1.09-.88 13.61 13.61 0 0 1-8.885-1.119l-.425-.211a.9.9 0 0 0-.81 0l-.416.208a13.605 13.605 0 0 1-8.888 1.121.9.9 0 0 0-1.085.88v5.91a18.862 18.862 0 0 0 10.005 16.676l.37.198a.9.9 0 0 0 .847 0l.371-.198a18.863 18.863 0 0 0 10.006-16.676v-5.909zm-1.8 5.91a17.068 17.068 0 0 1-9 15.059 17.068 17.068 0 0 1-9-15.06v-4.835a15.425 15.425 0 0 0 8.984-1.464l.016-.01.022.012a15.407 15.407 0 0 0 8.978 1.463v4.834z" fill="#090909"/><path d="m64.864 41.737-6.891 6.892-2.81-2.81a.9.9 0 0 0-1.273 1.272l3.446 3.446a.9.9 0 0 0 1.273 0l7.527-7.527a.901.901 0 1 0-1.272-1.273zM57.351 101l19.118 4.38-4.381 19.118-19.118-4.38z" fill="#DD2D34"/><path d="m69.13 108.749-6.115 5.672-2.586-2.759-1.71 1.603 4.177 4.458 7.823-7.251-1.59-1.723z" fill="#fff"/></symbol><symbol fill="none" viewBox="0 0 79 48" id="review-icon"><mask id="bba" maskUnits="userSpaceOnUse" x="0" y="0" width="79" height="49" fill="#000"><path fill="#fff" d="M0 0h79v49H0z"/><path d="m42.673 47.056-1.18-1.73c5.241-20.491 9.88-35.192 13.915-44.101h21.855c-3.512 16.351-6.08 31.628-7.704 45.831H42.673zm-40.093 0-1.18-1.73c5.242-20.491 9.88-35.192 13.915-44.101H37.17c-3.512 16.351-6.08 31.628-7.704 45.831H2.58z"/></mask><path d="m42.673 47.056-.826.564.297.436h.529v-1zm-1.18-1.73-.968-.247-.112.438.254.373.827-.563zm13.916-44.1v-1h-.645l-.266.587.911.413zm21.855 0 .977.21.26-1.21h-1.237v1zM69.56 47.057v1h.892l.101-.886-.993-.114zm-66.979 0-.826.564.298.436h.528v-1zm-1.18-1.73-.968-.247-.112.438.255.373.826-.563zM15.316 1.226v-1h-.644l-.266.587.91.413zm21.855 0 .978.21.26-1.21H37.17v1zm-7.704 45.831v1h.892l.101-.886-.993-.114zm14.033-.563-1.18-1.73-1.652 1.127 1.18 1.73 1.652-1.127zm-1.037-.919c5.24-20.484 9.86-35.112 13.857-43.937L54.497.812c-4.074 8.995-8.73 23.768-13.972 44.267l1.938.495zm12.946-43.35h21.855v-2H55.408v2zm20.877-1.21c-3.517 16.379-6.091 31.689-7.72 45.928l1.987.228c1.62-14.166 4.183-29.41 7.688-45.735l-1.955-.42zM69.56 46.057H42.673v2h26.886v-2zm-66.153.437-1.179-1.73L.575 45.89l1.179 1.73 1.652-1.127zm-1.036-.919C7.609 25.09 12.23 10.462 16.226 1.637L14.405.812C10.33 9.807 5.675 24.58.431 45.079l1.938.495zm12.945-43.35H37.17v-2H15.315v2zm20.877-1.21c-3.517 16.379-6.09 31.689-7.72 45.928l1.987.228c1.62-14.166 4.183-29.41 7.689-45.735l-1.956-.42zm-6.726 45.042H2.58v2h26.886v-2z" fill="#DD2D34" mask="url(#bba)"/></symbol><symbol fill="none" viewBox="0 0 113 125" id="satisfy"><path d="M90.519 3.445 43.397 0 19.076 17.224.456 62.007l21.09 45.549h13.11v7.272l59.663-7.272 18.621-44.018-3.42-33.3-10.055-6.218 7.03-4.687L90.519 3.445z" fill="#fff"/><path d="M74.826 48.748v8.593c0 6.296-5.285 11.401-11.805 11.401h-8.784c-6.519 0-11.804-5.104-11.804-11.402v-8.494c6.129-.17 19.279-2.9 24.13-7.587 0 0 3.226 6.367 8.263 7.489z" stroke="#090909" stroke-width="1.792" stroke-miterlimit="10" stroke-linecap="round" stroke-linejoin="round"/><path d="M74.826 54.317c0-2.879 4.28-3.34 4.937-.531.083.355.125.718.125 1.081 0 2.7-2.267 4.889-5.062 4.889m-32.392 0c-2.796 0-5.062-2.189-5.062-4.889 0-.371.043-.733.124-1.08.657-2.81 4.938-2.349 4.938.53" stroke="#090909" stroke-width="1.792" stroke-miterlimit="10" stroke-linejoin="round"/><path d="M58.63 74.961c-2.141 0-3.877-1.676-3.877-3.745v-2.474h7.754v2.474c0 2.069-1.736 3.745-3.877 3.745zM42.433 55.865s-1.174-1.624-2.681-1.037m35.074 1.037s1.174-1.624 2.681-1.037m-37.822-2.916v-6.717C39.685 36.251 47.19 29 56.45 29h4.356c9.26 0 16.768 7.25 16.768 16.195v6.717m-20.521 3.651h3.154m-4.649 3.848c.505 1.158 1.69 1.97 3.071 1.97 1.382 0 2.567-.812 3.072-1.97" stroke="#090909" stroke-width="1.792" stroke-miterlimit="10" stroke-linecap="round" stroke-linejoin="round"/><path d="M39.685 51.912v-6.717C39.685 36.251 47.192 29 56.45 29h4.356c9.26 0 16.768 7.25 16.768 16.195v6.717m-37.889 7.06V71.66h10.268" stroke="#090909" stroke-width="1.792" stroke-miterlimit="10" stroke-linejoin="round"/><path d="M77.574 65.927v5.733H67.3m10.274-9.113v-3.574" stroke="#090909" stroke-width="1.792" stroke-miterlimit="10" stroke-linecap="round" stroke-linejoin="round"/><path d="M47.371 85h22.51m-7.374-13.784h2.212c3.549 0 6.607 2.41 7.321 5.768l.701 3.3" stroke="#090909" stroke-width="1.792" stroke-miterlimit="10" stroke-linejoin="round"/><path d="M45.76 75.38c1.207-2.495 3.821-4.164 6.774-4.164h2.21M44.86 78.64l-.35 1.643m28.232 0h6.484V85h-9.345c-1.163 0-2.106-.91-2.106-2.034v-2.683" stroke="#090909" stroke-width="1.792" stroke-miterlimit="10" stroke-linecap="round" stroke-linejoin="round"/><path d="M81.442 85h-2.215v-4.717h5.925v1.134c0 1.979-1.661 3.583-3.71 3.583z" stroke="#090909" stroke-width="1.792" stroke-miterlimit="10" stroke-linejoin="round"/><path d="M44.511 80.283h-6.485V85h9.345c1.163 0 2.106-.91 2.106-2.034v-2.683" stroke="#090909" stroke-width="1.792" stroke-miterlimit="10" stroke-linecap="round" stroke-linejoin="round"/><path d="M35.81 85h2.216v-4.717h-5.925v1.134c0 1.979 1.66 3.583 3.71 3.583z" stroke="#090909" stroke-width="1.792" stroke-miterlimit="10" stroke-linejoin="round"/><path d="M62.882 53.268c.505 1.157 1.69 1.97 3.072 1.97 1.38 0 2.566-.813 3.071-1.97m-20.793 0c.506 1.157 1.69 1.97 3.072 1.97 1.381 0 2.567-.813 3.072-1.97" stroke="#090909" stroke-width="1.792" stroke-miterlimit="10" stroke-linecap="round" stroke-linejoin="round"/><path d="M79.02 30.736v5.395m2.793-2.697h-5.586M33.248 45.465v5.396m2.793-2.698h-5.586m53.207 17.386v5.396m2.794-2.698h-5.587" stroke="#DD2D34" stroke-width="1.792" stroke-miterlimit="10" stroke-linecap="round" stroke-linejoin="round"/><path fill="#DD2D34" d="m56.836 101 19.118 4.38-4.381 19.118-19.118-4.38z"/><path d="m68.615 108.749-6.115 5.672-2.585-2.759-1.71 1.603 4.177 4.458 7.822-7.251-1.59-1.723z" fill="#fff"/></symbol><symbol fill="none" viewBox="0 0 10 10" id="small_mark"><g clip-path="url(#bda)"><path d="m.5 5.287 3.082 3.088L9.5 2.463l-.85-.838-5.068 5.063-2.244-2.245-.838.844z" fill="#244728"/></g><defs><clipPath id="bda"><path fill="#fff" transform="translate(.5 .5)" d="M0 0h9v9H0z"/></clipPath></defs></symbol><symbol fill="none" viewBox="0 0 6 4" id="switcher"><path d="M3 3.71a.419.419 0 0 1-.297-.123l-2.58-2.58A.42.42 0 1 1 .717.413L3 2.696 5.283.413a.42.42 0 0 1 .594.594l-2.58 2.58A.419.419 0 0 1 3 3.71z" fill="#fff"/></symbol><symbol fill="none" viewBox="0 0 6 4" id="switcher_(2)"><path d="M3 3.71a.419.419 0 0 1-.297-.123l-2.58-2.58A.42.42 0 1 1 .717.413L3 2.696 5.283.413a.42.42 0 0 1 .594.594l-2.58 2.58A.419.419 0 0 1 3 3.71z" fill="#fff"/></symbol><symbol fill="none" viewBox="0 0 23 22" id="tel"><path d="M15.199 12.216c-.732.733-1.875 1.877-2.833 2.841-1.138-.745-2.166-1.566-2.993-2.394-1.022-1.021-2.3-2.475-2.99-3.506.877-.87 2.023-2.014 2.864-2.855L4.195 1.25 1.674 3.726l-.004.003C.965 4.435.666 5.398.782 6.591c.372 3.818 5.04 9.347 9.166 12.116 2.39 1.603 5.823 3.087 7.854 1.056 1.475-1.474 2.038-2.075 2.062-2.1l.378-.404-5.043-5.043zm1.795 6.739c-1.538 1.537-4.587.025-6.409-1.198C6.756 15.187 2.256 9.924 1.92 6.48c-.081-.835.106-1.488.557-1.94l1.71-1.68L7.63 6.302C5.884 8.045 5.358 8.564 4.94 8.978l.222.383c.673 1.16 2.236 2.944 3.402 4.111 1.28 1.28 2.594 2.183 3.967 3.043l.322-.325c.706-.712 1.732-1.741 2.346-2.356l3.447 3.447c-.319.329-.852.874-1.652 1.674z" fill="#DD2D34"/><path d="m8.073 6.125-3.9-3.9-2.437 1.95-.488 1.95 1.95 4.874 4.875 5.85 6.337 3.413 2.438-.488 2.437-2.437-3.9-3.9-2.925 2.437-4.387-3.412-2.438-3.413 2.438-2.924z" fill="#DD2D34"/></symbol><symbol fill="none" viewBox="0 0 37 36" id="tiktok-icon"><rect x=".669" width="35.57" height="35.57" rx="17.785" fill="#DD2D34"/><g clip-path="url(#bha)"><path d="M21.729 13.88a2.852 2.852 0 0 1-.707-1.88h-2.06v8.267a1.728 1.728 0 0 1-1.727 1.666 1.738 1.738 0 0 1-1.733-1.733 1.73 1.73 0 0 1 2.247-1.653V16.44a3.802 3.802 0 0 0-4.313 3.76c0 2.22 1.84 3.8 3.793 3.8 2.093 0 3.793-1.7 3.793-3.8v-4.193a4.9 4.9 0 0 0 2.867.92v-2.06s-1.253.06-2.16-.987z" fill="#fff"/></g><defs><clipPath id="bha"><path fill="#fff" transform="translate(12.268 11.599)" d="M0 0h12.384v12.384H0z"/></clipPath></defs></symbol><symbol fill="none" viewBox="0 0 114 115" id="visa"><path d="M4.97 26v33l18.5-22.5L4.97 26zm4-.687 21.268 13V18.826L8.97 25.312zM96.81 92.77l12.56-4.847-2.467-13.818L96.81 92.77z" fill="#DD2D34"/><path d="M91.034 3.445 43.912 0 19.59 17.224.97 62.007l21.09 45.549h13.111v7.272l59.663-7.272 18.621-44.018-3.421-33.3L99.98 24.02l7.03-4.687L91.034 3.445z" fill="#fff"/><path d="M54.644 66.972h-4.842l3.026-18.599h4.843l-3.027 18.599zm-8.916-18.599-4.616 12.792-.546-2.754-1.629-8.363s-.197-1.675-2.297-1.675h-7.63l-.09.315s2.334.486 5.065 2.126l4.207 16.158h5.045l7.704-18.599h-5.212zm38.086 18.599h4.446l-3.876-18.6H80.49c-1.797 0-2.235 1.387-2.235 1.387l-7.222 17.213h5.048l1.01-2.763h6.155l.567 2.763zm-5.328-6.58 2.544-6.96 1.431 6.96h-3.975zm-7.073-7.546.69-3.994s-2.131-.811-4.354-.811c-2.403 0-8.11 1.05-8.11 6.157 0 4.805 6.698 4.864 6.698 7.388s-6.007 2.072-7.99.48l-.72 4.176s2.162 1.05 5.466 1.05c3.304 0 8.29-1.71 8.29-6.367 0-4.835-6.758-5.286-6.758-7.388 0-2.103 4.716-1.833 6.788-.691z" fill="#A6A6A6"/><path d="m40.566 58.41-1.629-8.363s-.197-1.675-2.297-1.675h-7.63l-.09.315s3.668.76 7.186 3.608c3.364 2.723 4.461 6.115 4.461 6.115z" fill="#797979"/></symbol><symbol fill="none" viewBox="0 0 98 100" id="visa@mob"><path d="M3.525 22.642V51.38l16.111-19.594-16.11-9.144zm3.484-.598 18.521 11.32V16.397L7.01 22.043zM83.506 80.79l10.938-4.222-2.149-12.033-8.79 16.255z" fill="#DD2D34"/><path d="M78.475 3 37.438 0l-21.18 15L.042 54l18.367 39.666h11.418v6.333l51.957-6.333L98 55.333l-2.978-29-8.757-5.415 6.123-4.081L78.475 3z" fill="#F5F5F5"/><path d="M46.785 58.323h-4.217l2.635-16.197h4.217l-2.636 16.197zM39.02 42.126 35 53.266l-.475-2.398-1.419-7.283s-.172-1.459-2-1.459H24.46l-.078.275s2.032.422 4.41 1.85l3.664 14.072h4.394l6.709-16.197H39.02zm33.167 16.197h3.872l-3.376-16.197h-3.39c-1.565 0-1.946 1.207-1.946 1.207l-6.289 14.99h4.396l.879-2.406h5.36l.495 2.406zm-4.64-5.73 2.216-6.06 1.246 6.06h-3.462zm-6.159-6.572.602-3.478s-1.857-.706-3.793-.706c-2.093 0-7.062.914-7.062 5.362 0 4.184 5.833 4.236 5.833 6.434 0 2.198-5.232 1.804-6.958.418l-.627 3.637s1.883.914 4.76.914 7.218-1.49 7.218-5.545c0-4.211-5.885-4.603-5.885-6.434 0-1.831 4.108-1.596 5.912-.602z" fill="#A6A6A6"/><path d="m34.525 50.867-1.419-7.283s-.172-1.459-2-1.459H24.46l-.078.275s3.194.662 6.258 3.142c2.93 2.37 3.885 5.325 3.885 5.325z" fill="#797979"/></symbol><symbol fill="none" viewBox="0 0 36 36" id="warning"><g clip-path="url(#bka)" fill="#fff"><path d="M22.314 4.008a4.964 4.964 0 0 0-8.628 0L.62 27.285a4.767 4.767 0 0 0 .043 4.783 4.896 4.896 0 0 0 4.27 2.432h26.13a4.896 4.896 0 0 0 4.271-2.432 4.767 4.767 0 0 0 .044-4.783L22.314 4.008zm10.432 26.55a1.924 1.924 0 0 1-1.681.942H4.935a1.925 1.925 0 0 1-1.682-.947 1.773 1.773 0 0 1-.016-1.8L16.302 5.475a2.033 2.033 0 0 1 3.396 0l13.065 23.277a1.773 1.773 0 0 1-.017 1.801v.005z"/><path d="M18 10.5a1.5 1.5 0 0 0-1.5 1.5v9a1.5 1.5 0 1 0 3 0v-9a1.5 1.5 0 0 0-1.5-1.5zm0 18a1.5 1.5 0 1 0 0-3 1.5 1.5 0 0 0 0 3z"/></g><defs><clipPath id="bka"><path fill="#fff" d="M0 0h36v36H0z"/></clipPath></defs></symbol><symbol fill="none" viewBox="0 0 36 36" id="yout"><rect x=".36" y=".215" width="35.57" height="35.57" rx="17.785" fill="#FF00A7"/><g clip-path="url(#bma)"><path d="M24.694 13.365c-.536-.638-1.526-.898-3.418-.898H14.41c-1.935 0-2.942.277-3.476.956-.521.662-.521 1.637-.521 2.987v2.573c0 2.615.618 3.942 3.997 3.942h6.866c1.64 0 2.55-.23 3.137-.792.603-.577.86-1.52.86-3.15V16.41c0-1.424-.04-2.405-.579-3.045zm-4.74 4.686-3.118 1.63a.48.48 0 0 1-.702-.425v-3.249a.479.479 0 0 1 .7-.425l3.118 1.619a.479.479 0 0 1 .001.85z" fill="#fff"/></g><defs><clipPath id="bma"><path fill="#fff" transform="translate(10.413 10.267)" d="M0 0h14.861v14.861H0z"/></clipPath></defs></symbol><symbol fill="none" viewBox="0 0 37 36" id="yout-icon"><rect x=".762" width="35.57" height="35.57" rx="17.785" fill="#DD2D34"/><g clip-path="url(#bla)"><path d="M25.096 13.15c-.536-.637-1.527-.898-3.418-.898h-6.866c-1.935 0-2.942.277-3.476.956-.521.662-.521 1.637-.521 2.987v2.573c0 2.615.618 3.943 3.997 3.943h6.866c1.64 0 2.55-.23 3.137-.792.603-.577.86-1.52.86-3.15v-2.574c0-1.423-.04-2.404-.579-3.045zm-4.74 4.687-3.119 1.63a.479.479 0 0 1-.701-.425v-3.249a.48.48 0 0 1 .7-.425l3.118 1.619a.48.48 0 0 1 .001.85z" fill="#fff"/></g><defs><clipPath id="bla"><path fill="#fff" transform="translate(10.815 10.052)" d="M0 0h14.861v14.861H0z"/></clipPath></defs></symbol></svg>