<svg width="37" height="36" viewBox="0 0 37 36" fill="none" xmlns="http://www.w3.org/2000/svg">
<rect x="0.668945" width="35.5698" height="35.5698" rx="17.7849" fill="#DD2D34"/>
<g clip-path="url(#clip0_580_2580)">
<path d="M21.7289 13.88C21.2732 13.3597 21.022 12.6916 21.0222 12H18.9622V20.2667C18.9463 20.714 18.7575 21.1377 18.4354 21.4486C18.1133 21.7595 17.6832 21.9333 17.2355 21.9333C16.2889 21.9333 15.5022 21.16 15.5022 20.2C15.5022 19.0533 16.6089 18.1933 17.7489 18.5467V16.44C15.4489 16.1333 13.4355 17.92 13.4355 20.2C13.4355 22.42 15.2755 24 17.2289 24C19.3222 24 21.0222 22.3 21.0222 20.2V16.0067C21.8575 16.6066 22.8605 16.9284 23.8889 16.9267V14.8667C23.8889 14.8667 22.6355 14.9267 21.7289 13.88Z" fill="white"/>
</g>
<defs>
<clipPath id="clip0_580_2580">
<rect width="12.3842" height="12.3842" fill="white" transform="translate(12.2676 11.5986)"/>
</clipPath>
</defs>
</svg>
