<svg width="98" height="100" viewBox="0 0 98 100" fill="none" xmlns="http://www.w3.org/2000/svg">
<path d="M3.52539 22.6421V51.3803L19.6362 31.7861L3.52539 22.6421Z" fill="#DD2D34"/>
<path d="M7.00879 22.0435L25.5301 33.3646L25.5301 16.3955L7.00879 22.0435Z" fill="#DD2D34"/>
<path d="M83.5059 80.7896L94.4436 76.5676L92.2951 64.5349L83.5059 80.7896Z" fill="#DD2D34"/>
<path d="M78.4747 2.99997L37.4382 0L16.258 14.9998L0.0419922 53.9994L18.4091 93.6656H29.8266L29.8266 99.9989L81.7841 93.6656L98.0001 55.3327L95.0216 26.333L86.2655 20.9181L92.3879 16.8365L78.4747 2.99997Z" fill="#F5F5F5"/>
<path d="M46.7845 58.3228H42.5678L45.2032 42.1263H49.4204L46.7845 58.3228ZM39.0203 42.1263L35.0003 53.2664L34.5246 50.8675L34.525 50.8684L33.1061 43.5846C33.1061 43.5846 32.9345 42.1263 31.1058 42.1263H24.4598L24.3818 42.4006C24.3818 42.4006 26.4142 42.8234 28.7927 44.2518L32.4562 58.3232H36.8498L43.5586 42.1263H39.0203ZM72.1875 58.3228H76.0594L72.6835 42.1259H69.2938C67.7285 42.1259 67.3473 43.3329 67.3473 43.3329L61.0583 58.3228H65.454L66.333 55.917H71.6936L72.1875 58.3228ZM67.5474 52.5935L69.763 46.5324L71.0095 52.5935H67.5474ZM61.388 46.0212L61.9897 42.5431C61.9897 42.5431 60.1328 41.8369 58.1971 41.8369C56.1045 41.8369 51.1352 42.7515 51.1352 47.1988C51.1352 51.3831 56.9676 51.435 56.9676 53.6329C56.9676 55.8308 51.7361 55.4369 50.0096 54.051L49.3827 57.6876C49.3827 57.6876 51.2656 58.6022 54.1424 58.6022C57.02 58.6022 61.3611 57.1123 61.3611 53.0571C61.3611 48.846 55.4763 48.4539 55.4763 46.623C55.4768 44.7917 59.5835 45.0269 61.388 46.0212Z" fill="#A6A6A6"/>
<path d="M34.525 50.8675L33.1061 43.5838C33.1061 43.5838 32.9345 42.1255 31.1058 42.1255H24.4598L24.3818 42.3997C24.3818 42.3997 27.5762 43.0617 30.6401 45.5421C33.5697 47.9128 34.525 50.8675 34.525 50.8675Z" fill="#797979"/>
</svg>
