<svg xmlns="http://www.w3.org/2000/svg" width="36" height="36" viewBox="0 0 36 36" fill="none">
  <g clip-path="url(#clip0_1_849)">
    <path d="M22.3139 4.00779C21.8804 3.24593 21.2529 2.61247 20.4952 2.17181C19.7374 1.73115 18.8765 1.49902 17.9999 1.49902C17.1234 1.49902 16.2625 1.73115 15.5047 2.17181C14.747 2.61247 14.1194 3.24593 13.6859 4.00779L0.620932 27.2848C0.206059 28.0153 -0.00841835 28.8424 -0.000779415 29.6824C0.00685952 30.5224 0.236343 31.3455 0.664432 32.0683C1.09881 32.814 1.72257 33.4316 2.47252 33.8586C3.22248 34.2856 4.07197 34.5068 4.93493 34.4998H31.0649C31.9279 34.5068 32.7774 34.2856 33.5273 33.8586C34.2773 33.4316 34.9011 32.814 35.3354 32.0683C35.7635 31.3455 35.993 30.5224 36.0006 29.6824C36.0083 28.8424 35.7938 28.0153 35.3789 27.2848L22.3139 4.00779ZM32.7464 30.5578C32.5737 30.8488 32.3273 31.0891 32.0321 31.2545C31.7369 31.4198 31.4033 31.5045 31.0649 31.4998H4.93493C4.59614 31.504 4.26224 31.4187 3.96699 31.2525C3.67173 31.0863 3.42559 30.8451 3.25343 30.5533C3.09025 30.282 3.00266 29.9721 2.99976 29.6555C2.99686 29.339 3.07875 29.0275 3.23693 28.7533L16.3019 5.47479C16.487 5.19349 16.739 4.96258 17.0354 4.80279C17.3318 4.64301 17.6632 4.55936 17.9999 4.55936C18.3366 4.55936 18.6681 4.64301 18.9645 4.80279C19.2608 4.96258 19.5129 5.19349 19.6979 5.47479L32.7629 28.7518C32.9214 29.0261 33.0034 29.338 33.0005 29.6548C32.9976 29.9716 32.9099 30.2819 32.7464 30.5533V30.5578Z" fill="white"/>
    <path d="M18 10.5C17.6022 10.5 17.2206 10.658 16.9393 10.9393C16.658 11.2206 16.5 11.6022 16.5 12V21C16.5 21.3978 16.658 21.7794 16.9393 22.0607C17.2206 22.342 17.6022 22.5 18 22.5C18.3978 22.5 18.7794 22.342 19.0607 22.0607C19.342 21.7794 19.5 21.3978 19.5 21V12C19.5 11.6022 19.342 11.2206 19.0607 10.9393C18.7794 10.658 18.3978 10.5 18 10.5Z" fill="white"/>
    <path d="M18 28.5C18.8284 28.5 19.5 27.8284 19.5 27C19.5 26.1716 18.8284 25.5 18 25.5C17.1716 25.5 16.5 26.1716 16.5 27C16.5 27.8284 17.1716 28.5 18 28.5Z" fill="white"/>
  </g>
  <defs>
    <clipPath id="clip0_1_849">
      <rect width="36" height="36" fill="white"/>
    </clipPath>
  </defs>
</svg>