<svg width="36" height="36" viewBox="0 0 36 36" fill="none" xmlns="http://www.w3.org/2000/svg">
<rect x="0.360352" y="0.214844" width="35.5698" height="35.5698" rx="17.7849" fill="#FF00A7"/>
<g clip-path="url(#clip0_139_248)">
<path d="M24.6944 13.3646C24.1579 12.7269 23.1675 12.4668 21.276 12.4668H14.41C12.4753 12.4668 11.4681 12.7437 10.9336 13.4226C10.4126 14.0845 10.4126 15.0599 10.4126 16.4097V18.9825C10.4126 21.5976 11.0308 22.9254 14.41 22.9254H21.2761C22.9164 22.9254 23.8253 22.6959 24.4133 22.1331C25.0163 21.556 25.2736 20.6138 25.2736 18.9825V16.4097C25.2736 14.9862 25.2333 14.0051 24.6944 13.3646ZM19.9534 18.0513L16.8356 19.6808C16.7625 19.719 16.6808 19.7378 16.5984 19.7352C16.516 19.7326 16.4356 19.7088 16.3651 19.6661C16.2946 19.6234 16.2362 19.5632 16.1958 19.4913C16.1553 19.4195 16.1341 19.3384 16.1341 19.2559V16.0074C16.1341 15.9251 16.1553 15.8441 16.1957 15.7724C16.2361 15.7006 16.2943 15.6405 16.3646 15.5977C16.435 15.555 16.5152 15.5311 16.5975 15.5283C16.6798 15.5256 16.7614 15.5441 16.8345 15.582L19.9523 17.201C20.0301 17.2414 20.0954 17.3024 20.1409 17.3773C20.1865 17.4522 20.2107 17.5381 20.2108 17.6258C20.2109 17.7135 20.187 17.7995 20.1416 17.8746C20.0962 17.9496 20.0311 18.0107 19.9534 18.0513Z" fill="white"/>
</g>
<defs>
<clipPath id="clip0_139_248">
<rect width="14.861" height="14.861" fill="white" transform="translate(10.4126 10.2666)"/>
</clipPath>
</defs>
</svg>
