<svg width="37" height="36" viewBox="0 0 37 36" fill="none" xmlns="http://www.w3.org/2000/svg">
<rect x="0.761719" width="35.5698" height="35.5698" rx="17.7849" fill="#DD2D34"/>
<g clip-path="url(#clip0_580_2554)">
<path d="M25.0962 13.1502C24.5598 12.5126 23.5694 12.2524 21.6779 12.2524H14.8119C12.8771 12.2524 11.8699 12.5293 11.3355 13.2082C10.8145 13.8702 10.8145 14.8455 10.8145 16.1954V18.7682C10.8145 21.3833 11.4327 22.711 14.8119 22.711H21.6779C23.3182 22.711 24.2271 22.4815 24.8152 21.9188C25.4182 21.3417 25.6755 20.3994 25.6755 18.7682V16.1954C25.6755 14.7718 25.6351 13.7907 25.0962 13.1502ZM20.3553 17.837L17.2374 19.4665C17.1644 19.5047 17.0827 19.5234 17.0003 19.5208C16.9178 19.5183 16.8375 19.4945 16.7669 19.4517C16.6964 19.409 16.6381 19.3488 16.5976 19.277C16.5572 19.2051 16.5359 19.124 16.536 19.0416V15.7931C16.536 15.7107 16.5572 15.6298 16.5976 15.558C16.638 15.4863 16.6961 15.4261 16.7665 15.3834C16.8369 15.3406 16.9171 15.3167 16.9994 15.314C17.0816 15.3112 17.1633 15.3297 17.2363 15.3676L20.3542 16.9866C20.432 17.027 20.4972 17.088 20.5428 17.1629C20.5884 17.2378 20.6125 17.3238 20.6126 17.4115C20.6128 17.4991 20.5888 17.5852 20.5434 17.6602C20.4981 17.7352 20.433 17.7964 20.3553 17.837Z" fill="white"/>
</g>
<defs>
<clipPath id="clip0_580_2554">
<rect width="14.861" height="14.861" fill="white" transform="translate(10.8145 10.0522)"/>
</clipPath>
</defs>
</svg>
