<svg xmlns="http://www.w3.org/2000/svg" width="680" height="727" viewBox="0 0 680 727" fill="none">
        <path d="M121.5 0L-12 127V694L320 727L680 256L384 46.5L301.5 69L121.5 0Z" fill="#F8F8F8"/>
        <path transform="translate(400,430)" d="M75.8662 15.3333L61.7558 29.4437L58.8008 26.4886L69.9561 15.3333L58.8008 4.17798L61.7558 1.22291L75.8662 15.3333Z" fill="#DD2D34"/>
        <mask id="mask0_1_1096" style="mask-type:luminance" maskUnits="userSpaceOnUse" x="52" y="0" width="31" height="31">
          <path d="M52.0005 30.667L52.0005 0.000489622L82.667 0.000488281L82.667 30.667L52.0005 30.667Z" fill="white"/>
        </mask>
        <g transform="translate(400,430)" mask="url(#mask0_1_1096)">
          <path d="M75.8662 15.3331L61.7558 29.4435L58.8008 26.4884L69.9561 15.3331L58.8008 4.17776L61.7558 1.22269L75.8662 15.3331Z" fill="#DD2D34"/>
        </g>
        <path transform="translate(400,430)" d="M6.80078 15.3333L20.9112 29.4437L23.8662 26.4886L12.7109 15.3333L23.8662 4.17798L20.9112 1.22291L6.80078 15.3333Z" fill="#DD2D34"/>
        <mask id="mask1_1_1096" style="mask-type:luminance" maskUnits="userSpaceOnUse" x="0" y="0" width="31" height="31">
          <path d="M30.6665 30.667L30.6665 0.000489622L1.34048e-06 0.000488281L0 30.667L30.6665 30.667Z" fill="white"/>
        </mask>
        <g transform="translate(400,430)" mask="url(#mask1_1_1096)">
          <path d="M6.80078 15.3331L20.9112 29.4435L23.8662 26.4884L12.7109 15.3331L23.8662 4.17776L20.9112 1.22269L6.80078 15.3331Z" fill="#DD2D34"/>
        </g>
      </svg>
