<svg width="90" height="77" viewBox="0 0 90 77" fill="none" xmlns="http://www.w3.org/2000/svg">
<path d="M61.1259 4.42678L34.252 15.6427V29.2772C34.252 46.9223 44.8739 62.8129 61.1259 69.481C77.3778 62.8129 87.9998 46.9223 87.9998 29.2772V15.6427L61.1259 4.42678Z" stroke="#090909" stroke-width="2.45095" stroke-miterlimit="10" stroke-linecap="round" stroke-linejoin="round"/>
<path d="M68.6998 32.4632V28.903C68.697 26.9782 67.935 25.133 66.581 23.7719C65.227 22.4109 63.3914 21.645 61.4766 21.6421H60.8522C58.9373 21.645 57.1017 22.4109 55.7477 23.7719C54.3937 25.133 53.6317 26.9782 53.6289 28.903V32.4632C52.7724 32.4632 51.951 32.8052 51.3453 33.414C50.7397 34.0228 50.3994 34.8485 50.3994 35.7095V45.7731C50.4023 47.408 51.0496 48.9752 52.1998 50.1313C53.3499 51.2875 54.9089 51.9382 56.5354 51.9411H65.7933C67.4198 51.9382 68.9789 51.2875 70.129 50.1313C71.2791 48.9752 71.9265 47.408 71.9293 45.7731V35.7095C71.9293 34.8485 71.5891 34.0228 70.9834 33.414C70.3778 32.8052 69.5563 32.4632 68.6998 32.4632ZM55.7819 28.903C55.7819 27.5513 56.3161 26.2549 57.2669 25.2991C58.2178 24.3433 59.5075 23.8063 60.8522 23.8063H61.4766C62.8213 23.8063 64.1109 24.3433 65.0618 25.2991C66.0127 26.2549 66.5468 27.5513 66.5468 28.903V32.4632H55.7819V28.903ZM69.7763 45.7731C69.7763 46.8349 69.3567 47.8533 68.6097 48.6042C67.8628 49.355 66.8497 49.7769 65.7933 49.7769H56.5354C55.4791 49.7769 54.466 49.355 53.719 48.6042C52.972 47.8533 52.5524 46.8349 52.5524 45.7731V35.7095C52.5524 35.4225 52.6658 35.1472 52.8677 34.9443C53.0696 34.7414 53.3434 34.6274 53.6289 34.6274H68.6998C68.9853 34.6274 69.2591 34.7414 69.461 34.9443C69.6629 35.1472 69.7763 35.4225 69.7763 35.7095V45.7731Z" fill="#090909"/>
<path d="M62.2412 41.8988V45.4481C62.2412 45.7351 62.1278 46.0104 61.9259 46.2133C61.724 46.4162 61.4502 46.5302 61.1647 46.5302C60.8792 46.5302 60.6054 46.4162 60.4035 46.2133C60.2016 46.0104 60.0882 45.7351 60.0882 45.4481V41.8988C59.6778 41.6606 59.357 41.2929 59.1756 40.8528C58.9942 40.4126 58.9624 39.9246 59.0851 39.4644C59.2077 39.0042 59.478 38.5976 59.8541 38.3076C60.2301 38.0176 60.6908 37.8604 61.1647 37.8604C61.6387 37.8604 62.0994 38.0176 62.4754 38.3076C62.8514 38.5976 63.1217 39.0042 63.2443 39.4644C63.367 39.9246 63.3352 40.4126 63.1538 40.8528C62.9724 41.2929 62.6517 41.6606 62.2412 41.8988Z" fill="#090909"/>
<ellipse cx="12.7221" cy="12.7885" rx="11.7436" ry="11.3129" fill="white"/>
<path d="M13.0435 0C5.85125 0 0 5.88174 0 13.1115C0 20.3413 5.85125 26.223 13.0435 26.223C20.226 26.223 26.0697 20.3413 26.0697 13.1115C26.0697 5.88174 20.226 0 13.0435 0ZM13.0435 23.8392C7.15921 23.8392 2.37145 19.0271 2.37145 13.1115C2.37145 7.19592 7.15921 2.38381 13.0435 2.38381C18.9186 2.38381 23.6982 7.19592 23.6982 13.1115C23.6982 19.0271 18.9186 23.8392 13.0435 23.8392Z" fill="#090909"/>
<path d="M16.5865 9.32473L11.5705 14.3663L9.48214 12.2674C9.37207 12.1567 9.24138 12.0689 9.09753 12.009C8.95368 11.949 8.7995 11.9182 8.64379 11.9182C8.48807 11.9182 8.33389 11.949 8.19004 12.009C8.0462 12.0689 7.9155 12.1567 7.80543 12.2674C7.69529 12.3781 7.60792 12.5094 7.5483 12.654C7.48869 12.7986 7.45801 12.9536 7.45801 13.1101C7.45801 13.2667 7.48869 13.4217 7.5483 13.5663C7.60792 13.7109 7.69529 13.8422 7.80543 13.9529L10.7277 16.8903C10.7292 16.8919 10.7295 16.894 10.7312 16.8956C11.188 17.355 11.9404 17.372 12.412 16.8978C12.4176 16.8924 12.4191 16.8845 12.4245 16.8787L18.2632 11.0102C18.7265 10.5445 18.7265 9.79026 18.2632 9.32473C17.8 8.8592 17.0496 8.8592 16.5865 9.32473Z" fill="#090909"/>
<path d="M18.2303 65.7598L18.0996 62.7202C18.1946 63.1135 18.2303 63.5188 18.2303 63.924V65.7598Z" fill="#090909"/>
<path d="M18.1046 28.2825L23.7317 27.7906V18.4452L20.3065 16.7236L17.6152 19.4289L18.1046 28.2825Z" fill="white"/>
<path d="M44.0567 40.609L44.5279 52.1379L40.8581 58.5321L31.8057 47.6751L31.3164 37.8737L32.5397 32.9551L36.2096 33.9388L38.4024 36.89L44.0567 40.609Z" fill="white"/>
<path d="M41.0928 35.3609C40.2777 35.3609 39.5227 35.5941 38.8589 35.9711C38.7156 33.5621 36.7393 31.6406 34.3076 31.6406C33.3844 31.6406 32.5273 31.9217 31.8074 32.3962C31.1649 30.634 29.4945 29.3661 27.5218 29.3661C26.7176 29.3661 25.9723 29.5939 25.3147 29.9616V19.9794C25.3147 17.4419 23.2609 15.377 20.7365 15.377C18.2121 15.377 16.1579 17.4419 16.1579 19.9794V40.7179L13.3463 37.2558C12.2747 35.931 10.7521 35.0532 9.07336 34.7925C7.39466 34.5319 5.67946 34.9069 4.26017 35.845C2.9966 36.6763 2.71544 38.4246 3.65692 39.6129L7.58654 44.5809C8.76827 46.0731 9.57128 47.9554 9.90998 50.0263C10.5933 54.1969 12.2653 57.3747 15.0219 59.7412C16.3103 60.846 17.049 62.372 17.049 63.9271V64.7766C15.355 65.3056 14.1135 66.8769 14.1135 68.7519V75.8082C14.1135 75.9648 14.1441 76.1198 14.2037 76.2644C14.2632 76.4091 14.3506 76.5405 14.4607 76.6512C14.5708 76.7619 14.7016 76.8497 14.8455 76.9096C14.9894 76.9695 15.1436 77.0003 15.2993 77.0002H43.0381C43.1939 77.0003 43.3481 76.9695 43.492 76.9096C43.6359 76.8497 43.7666 76.7619 43.8768 76.6512C43.9869 76.5405 44.0742 76.4091 44.1338 76.2644C44.1934 76.1198 44.224 75.9648 44.2239 75.8082V68.7521C44.2239 66.876 42.9806 65.3038 41.285 64.7757V62.6164C41.285 61.5583 41.6092 60.4653 42.223 59.4573C44.9391 54.992 45.3785 49.4443 45.6716 42.6045V39.9633C45.6714 37.4258 43.6172 35.3609 41.0928 35.3609ZM41.8525 68.7521V74.6164H16.485V68.7521C16.485 67.7694 17.2748 66.9698 18.2494 66.9572H40.0873C41.0626 66.9698 41.8525 67.7694 41.8525 68.7521ZM40.1999 58.2143C39.3581 59.596 38.9134 61.1186 38.9134 62.6166V64.571H19.4204V63.9272C19.4204 61.6736 18.3782 59.4876 16.562 57.9279C14.249 55.942 12.8385 53.231 12.2502 49.64C11.8461 47.1687 10.875 44.9059 9.44203 43.097L5.51241 38.1291C5.49534 38.1074 5.48296 38.0824 5.47605 38.0556C5.46913 38.0289 5.46785 38.001 5.47227 37.9737C5.47669 37.9464 5.48671 37.9204 5.50171 37.8972C5.51671 37.874 5.53635 37.8543 5.55937 37.8391C6.48903 37.2254 7.61219 36.9803 8.71134 37.1512C9.8105 37.3222 10.8074 37.8971 11.5091 38.7646L16.4253 44.8176C16.6477 45.094 17.0684 45.2857 17.5053 45.2224C18.1357 45.1359 18.5295 44.5149 18.5295 44.0633V19.9794C18.5295 18.756 19.5196 17.7608 20.7367 17.7608C21.9531 17.7608 22.9432 18.756 22.9432 19.9794V44.0632C22.9432 44.7221 23.4741 45.2552 24.129 45.2552C24.7839 45.2552 25.3148 44.7221 25.3148 44.0632V33.9687C25.3148 32.7453 26.3049 31.7501 27.522 31.7501C28.7391 31.7501 29.7292 32.7453 29.7292 33.9687V44.0632C29.7292 44.7221 30.2601 45.2552 30.915 45.2552C31.5699 45.2552 32.1008 44.7221 32.1008 44.0632V36.2433C32.1008 35.0199 33.0909 34.0246 34.3079 34.0246C35.525 34.0246 36.5151 35.0199 36.5151 36.2433V44.0632C36.5151 44.7221 37.046 45.2552 37.7009 45.2552C38.3558 45.2552 38.8867 44.7221 38.8867 44.0632V39.9634C38.8867 38.74 39.8768 37.7447 41.0933 37.7447C42.3103 37.7447 43.3004 38.74 43.3004 39.9634L43.3016 42.5533C43.0144 49.2081 42.6249 54.2274 40.1999 58.2143Z" fill="#DD2D34"/>
</svg>
