<svg width="113" height="115" viewBox="0 0 113 115" fill="none" xmlns="http://www.w3.org/2000/svg">
<path d="M4.48438 26V59L22.9844 36.5L4.48438 26Z" fill="#DD2D34"/>
<path d="M8.48438 25.3125L29.7523 38.3125L29.7523 18.827L8.48438 25.3125Z" fill="#DD2D34"/>
<path d="M96.3252 92.7705L108.885 87.9225L106.418 74.1053L96.3252 92.7705Z" fill="#DD2D34"/>
<path d="M90.5482 3.44485L43.4262 0L19.1052 17.2242L0.484375 62.0073L21.5753 107.556H34.6858V114.828L94.3484 107.556L112.969 63.5383L109.549 30.2381L99.4945 24.0202L106.525 19.3333L90.5482 3.44485Z" fill="white"/>
<g clip-path="url(#clip0_1_754)">
<path d="M56.3091 37.7979C59.4171 37.7979 62.3745 38.51 65.0281 39.7898C65.4451 39.9778 65.8622 40.2025 66.278 40.4272L64.4585 42.0388L61.7308 39.2283L57.0311 43.3491L54.2624 40.383L45.6193 48.0656L51.1531 54.0986L48.9931 55.9722L54.4522 62.0053L52.2922 63.8777L60.1012 72.4591L64.7231 68.2618L68.743 72.7598C67.9462 73.3592 67.0748 73.9599 66.1286 74.484C63.1404 76.1565 59.7727 77.0331 56.3483 77.0299C45.3921 77.0299 36.4845 68.2263 36.4845 57.3971C36.4459 46.6414 45.3548 37.7979 56.3091 37.7979ZM52.6688 56.197L57.4071 51.9996L61.6536 56.6837L56.9141 60.8805L52.6688 56.197ZM56.0427 64.291L60.7423 60.0569L65.0262 64.7404L60.2873 68.9378L56.0427 64.291ZM49.2975 48.2156L54.0283 44.0182L58.2736 48.7024L53.5347 52.8991L49.2975 48.2156ZM57.9767 45.9604L61.508 42.8194L64.6926 46.3052L61.1669 49.4898L57.9767 45.9604ZM64.2637 60.3875L67.795 57.2458L70.9796 60.7672L67.4539 63.9169L64.2637 60.3875ZM67.3717 67.4712L70.8974 64.3227L74.0795 67.8086L70.555 70.9932L67.3717 67.4712ZM68.8127 51.2825L71.1626 49.1835L73.2852 51.5079L70.936 53.6056L68.8127 51.2825ZM65.78 44.35L68.1299 42.2149L70.2538 44.5754L67.902 46.6731L65.78 44.35ZM71.8068 58.2156L74.1567 56.1179L76.3229 58.446L73.9357 60.5437L71.8068 58.2156ZM61.2248 53.0068L64.7505 49.8589L67.9338 53.3435L64.4093 56.492L61.2248 53.0068Z" fill="#C1C1C1"/>
</g>
<defs>
<clipPath id="clip0_1_754">
<rect width="39.8384" height="39.8384" fill="white" transform="translate(36.4844 37.4941)"/>
</clipPath>
</defs>
</svg>
