<svg width="113" height="115" viewBox="0 0 113 115" fill="none" xmlns="http://www.w3.org/2000/svg">
<path d="M4 26V59L22.5 36.5L4 26Z" fill="#DD2D34"/>
<path d="M8 25.3125L29.2679 38.3125L29.2679 18.827L8 25.3125Z" fill="#DD2D34"/>
<path d="M95.8408 92.7705L108.401 87.9225L105.933 74.1053L95.8408 92.7705Z" fill="#DD2D34"/>
<path d="M90.0639 3.44485L42.9418 0L18.6208 17.2242L0 62.0073L21.0909 107.556H34.2015V114.828L93.864 107.556L112.485 63.5383L109.065 30.2381L99.0101 24.0202L106.04 19.3333L90.0639 3.44485Z" fill="white"/>
<g clip-path="url(#clip0_1_731)">
<path d="M62.7582 57.417C62.7582 66.1913 55.6502 73.3008 46.8791 73.3008C38.1079 73.3008 31 66.1897 31 57.417C31 48.6443 38.1097 41.5332 46.8791 41.5332C55.6485 41.5332 62.7582 48.6443 62.7582 57.417Z" fill="#797979"/>
<path d="M65.95 41.5332C62.3888 41.5332 59.1103 42.7197 56.4609 44.7005L56.4736 44.7021C56.9947 45.2056 57.5696 45.5599 58.0128 46.1395L54.7089 46.1919C54.1911 46.7146 53.7194 47.2832 53.2746 47.8741H59.1007C59.5439 48.4061 59.9537 48.8685 60.3254 49.4561H52.2184C51.9214 49.9676 51.6466 50.4934 51.4067 51.0397H61.2484C61.5057 51.5844 61.736 51.9959 61.9315 52.5726H50.8238C50.6475 53.1206 50.4967 53.6812 50.3822 54.253H62.3968C62.5144 54.8026 62.6048 55.3108 62.6668 55.8287H50.1439C50.0915 56.3513 50.0645 56.8818 50.0645 57.4172H62.7572C62.7572 57.9795 62.7175 58.5004 62.6604 59.0056H50.1439C50.1979 59.5441 50.2773 60.073 50.3822 60.5941H62.3776C62.2538 61.1087 62.1107 61.6264 61.9313 62.1633H50.7873C50.9555 62.7065 51.1606 63.2339 51.3844 63.7485H61.2484C60.9752 64.3267 60.6655 64.7889 60.324 65.3305H52.19C52.5109 65.8864 52.8651 66.4169 53.2494 66.9252L59.1009 67.0125C58.6021 67.6112 57.9621 67.9719 57.379 68.4961C57.4107 68.5215 56.4466 68.4929 54.5484 68.4628C57.4362 71.4426 61.4723 73.3009 65.9498 73.3009C74.7225 73.3009 81.8336 66.1897 81.8336 57.4172C81.8336 48.6446 74.7241 41.5332 65.95 41.5332Z" fill="#A6A6A6"/>
</g>
<defs>
<clipPath id="clip0_1_731">
<rect width="50.833" height="50.833" fill="white" transform="translate(31 32)"/>
</clipPath>
</defs>
</svg>
