<svg width="28" height="29" viewBox="0 0 28 29" fill="none" xmlns="http://www.w3.org/2000/svg">
<path d="M11.4081 23.2155C13.8855 23.2155 16.1701 22.4144 18.0393 21.0793L25.071 28.1111C25.3974 28.4374 25.8276 28.6006 26.2875 28.6006C27.2518 28.6006 27.9342 27.8589 27.9342 26.9094C27.9342 26.4644 27.7858 26.0342 27.4594 25.7226L20.4722 18.7205C21.9409 16.792 22.8161 14.4036 22.8161 11.8075C22.8161 5.5323 17.6832 0.399414 11.4081 0.399414C5.14772 0.399414 0 5.51746 0 11.8075C0 18.0826 5.13288 23.2155 11.4081 23.2155ZM11.4081 20.7529C6.51253 20.7529 2.4626 16.703 2.4626 11.8075C2.4626 6.91195 6.51253 2.86201 11.4081 2.86201C16.3036 2.86201 20.3535 6.91195 20.3535 11.8075C20.3535 16.703 16.3036 20.7529 11.4081 20.7529Z" fill="#DD2D34"/>
</svg>
