<svg width="24" height="25" viewBox="0 0 24 25" fill="none" xmlns="http://www.w3.org/2000/svg">
<circle cx="12" cy="12.5" r="11.5" stroke="#C1C1C1"/>
<path d="M11.2627 14.4648V14.0273C11.2627 13.526 11.3538 13.109 11.5361 12.7764C11.7184 12.4437 12.0374 12.0996 12.4932 11.7441C13.0355 11.3158 13.3841 10.9831 13.5391 10.7461C13.6986 10.5091 13.7783 10.2266 13.7783 9.89844C13.7783 9.51562 13.6507 9.22168 13.3955 9.0166C13.1403 8.81152 12.7734 8.70898 12.2949 8.70898C11.862 8.70898 11.4609 8.77051 11.0918 8.89355C10.7227 9.0166 10.3626 9.16471 10.0117 9.33789L9.4375 8.13477C10.3626 7.61979 11.3538 7.3623 12.4111 7.3623C13.3044 7.3623 14.013 7.58105 14.5371 8.01855C15.0612 8.45605 15.3232 9.0599 15.3232 9.83008C15.3232 10.1719 15.2731 10.4772 15.1729 10.7461C15.0726 11.0104 14.9199 11.2633 14.7148 11.5049C14.5143 11.7464 14.1657 12.0609 13.6689 12.4482C13.2451 12.7809 12.9603 13.0566 12.8145 13.2754C12.6732 13.4941 12.6025 13.7881 12.6025 14.1572V14.4648H11.2627ZM10.9824 16.6455C10.9824 15.9574 11.3174 15.6133 11.9873 15.6133C12.3154 15.6133 12.5661 15.7044 12.7393 15.8867C12.9124 16.0645 12.999 16.3174 12.999 16.6455C12.999 16.9691 12.9102 17.2266 12.7324 17.418C12.5592 17.6048 12.3109 17.6982 11.9873 17.6982C11.6637 17.6982 11.4154 17.6071 11.2422 17.4248C11.069 17.238 10.9824 16.9782 10.9824 16.6455Z" fill="#C1C1C1"/>
</svg>
