<svg width="24" height="25" viewBox="0 0 24 25" fill="none" xmlns="http://www.w3.org/2000/svg">
<circle cx="12" cy="12.167" r="12" fill="white"/>
<path d="M11.2627 14.1318V13.6943C11.2627 13.193 11.3538 12.776 11.5361 12.4434C11.7184 12.1107 12.0374 11.7666 12.4932 11.4111C13.0355 10.9827 13.3841 10.6501 13.5391 10.4131C13.6986 10.1761 13.7783 9.89355 13.7783 9.56543C13.7783 9.18262 13.6507 8.88867 13.3955 8.68359C13.1403 8.47852 12.7734 8.37598 12.2949 8.37598C11.862 8.37598 11.4609 8.4375 11.0918 8.56055C10.7227 8.68359 10.3626 8.83171 10.0117 9.00488L9.4375 7.80176C10.3626 7.28678 11.3538 7.0293 12.4111 7.0293C13.3044 7.0293 14.013 7.24805 14.5371 7.68555C15.0612 8.12305 15.3232 8.72689 15.3232 9.49707C15.3232 9.83887 15.2731 10.1442 15.1729 10.4131C15.0726 10.6774 14.9199 10.9303 14.7148 11.1719C14.5143 11.4134 14.1657 11.7279 13.6689 12.1152C13.2451 12.4479 12.9603 12.7236 12.8145 12.9424C12.6732 13.1611 12.6025 13.4551 12.6025 13.8242V14.1318H11.2627ZM10.9824 16.3125C10.9824 15.6243 11.3174 15.2803 11.9873 15.2803C12.3154 15.2803 12.5661 15.3714 12.7393 15.5537C12.9124 15.7314 12.999 15.9844 12.999 16.3125C12.999 16.6361 12.9102 16.8936 12.7324 17.085C12.5592 17.2718 12.3109 17.3652 11.9873 17.3652C11.6637 17.3652 11.4154 17.2741 11.2422 17.0918C11.069 16.9049 10.9824 16.6452 10.9824 16.3125Z" fill="#090909"/>
</svg>
