<svg width="113" height="125" viewBox="0 0 113 125" fill="none" xmlns="http://www.w3.org/2000/svg">
<path d="M90.0639 3.44485L42.9418 0L18.6208 17.2242L0 62.0073L21.0909 107.556H34.2015V114.828L93.864 107.556L112.485 63.5383L109.065 30.2381L99.0101 24.0202L106.04 19.3333L90.0639 3.44485Z" fill="#F8F8F8"/>
<path d="M65.9206 72.2974C65.9206 72.2974 65.3973 74.0681 63.6024 73.6284C61.8076 73.1887 57.5566 72.165 57.5566 72.165" stroke="#090909" stroke-width="1.4" stroke-miterlimit="10" stroke-linecap="round" stroke-linejoin="round"/>
<path d="M65.9206 72.2971C65.9206 72.2971 65.3972 74.0678 63.6023 73.6281C61.8075 73.1884 57.5565 72.1647 57.5565 72.1647M52.0793 41.7029C52.0793 41.7029 52.6026 39.9322 54.3975 40.3719C56.1925 40.8116 60.4433 41.8353 60.4433 41.8353M47.902 80.9286L42.8596 69.9343C42.5446 69.2477 41.7328 68.9464 41.0463 69.2613L38.5336 70.4136C37.8181 70.7418 37.5041 71.5878 37.8322 72.3033L42.8267 83.193C43.1549 83.9085 44.0009 84.2224 44.7164 83.8943L47.229 82.7419C47.9156 82.4269 48.2169 81.6151 47.902 80.9286Z" stroke="#090909" stroke-width="1.4" stroke-miterlimit="10" stroke-linecap="round" stroke-linejoin="round"/>
<path d="M52.0793 41.7029C52.0793 41.7029 52.6027 39.9322 54.3976 40.3719C56.1925 40.8116 60.4433 41.8353 60.4433 41.8353" stroke="#090909" stroke-width="1.4" stroke-miterlimit="10" stroke-linecap="round" stroke-linejoin="round"/>
<path d="M37.9368 43.6875C39.0028 45.9136 41.4564 44.8613 41.6624 44.7842L52.0792 41.7024C52.0792 41.7024 51.3661 43.7975 53.5256 44.6595C59.5105 47.0486 60.2242 47.4528 61.7388 47.4768L61.739 47.477C66.4213 47.4613 67.2696 47.4232 69.5964 46.3817C70.8089 45.8384 71.9664 45.18 73.0531 44.4154C73.6131 44.0211 74.224 43.7045 74.8691 43.4742L70.6757 34.3306L67.8772 35.3931C65.7111 36.0991 63.4402 36.1706 61.6215 35.4448L57.7592 33.9029C56.9149 33.6119 54.9756 33.1589 52.963 34.1903C52.9625 34.1906 52.9619 34.1909 52.9613 34.1911L39.4779 40.1553C39.0699 40.3647 37.0171 41.5963 37.9368 43.6875Z" stroke="#090909" stroke-width="1.4" stroke-miterlimit="10" stroke-linecap="round" stroke-linejoin="round"/>
<path d="M61.7084 53.5606C61.7084 53.5606 60.6194 52.4298 59.1537 52.4298C57.6878 52.4298 56.6199 53.4977 56.6199 54.5971C56.6199 55.6964 58.0019 56.5759 59.7504 57.0366C61.4989 57.4972 61.8689 58.4012 61.8689 59.3644C61.8689 60.3276 61.0174 61.5701 59.021 61.5701C57.0247 61.5701 56.1313 60.1182 56.1313 60.1182M59.0001 50.7335V51.962M59.0001 62.038V63.2665M73.2522 76.1751C75.0087 75.3981 76.7653 74.6211 78.5219 73.8441C78.9302 73.6348 80.983 72.4032 80.0632 70.312C78.9972 68.0859 76.5435 69.1382 76.3376 69.2153L65.9207 72.2971C65.9207 72.2971 66.6338 70.202 64.4743 69.34C58.4894 66.9509 57.7757 66.5467 56.2611 66.5227L56.2609 66.5225C51.5786 66.5381 50.7305 66.5763 48.4035 67.6178C47.1911 68.1611 46.0335 68.8195 44.9469 69.584C44.3868 69.9783 43.7759 70.295 43.1309 70.5253L47.3244 79.6686L50.1229 78.6061C52.289 77.9001 54.5598 77.8287 56.3786 78.5545L60.2409 80.0964C61.0851 80.3874 63.0245 80.8403 65.037 79.8089L65.0388 79.8082L69.7685 77.716M70.098 33.0714L75.1404 44.0657C75.4554 44.7523 76.2672 45.0536 76.9537 44.7387L79.4663 43.5862C80.1818 43.258 80.4958 42.412 80.1677 41.6966L75.1733 30.807C74.8451 30.0915 73.9991 29.7776 73.2836 30.1057L70.771 31.2581C70.0844 31.573 69.7831 32.3849 70.098 33.0714Z" stroke="#090909" stroke-width="1.4" stroke-miterlimit="10" stroke-linecap="round" stroke-linejoin="round"/>
<path d="M69.7457 55.0698C69.1604 51.7908 67.1113 49.0189 64.298 47.4542C63.5891 47.4697 62.7546 47.4742 61.7394 47.4776L61.7392 47.4775C60.6379 47.46 59.9594 47.2414 57.371 46.2051C52.115 46.9917 48.084 51.5251 48.084 57.0003C48.084 61.1066 50.3517 64.6826 53.7026 66.5463C54.4116 66.5308 55.246 66.5263 56.2612 66.5229L56.2613 66.523C57.3626 66.5406 58.0411 66.7591 60.6295 67.7954C65.2713 67.1007 68.9555 63.4831 69.7537 58.8761" stroke="#090909" stroke-width="1.4" stroke-miterlimit="10" stroke-linecap="round" stroke-linejoin="round"/>
<rect x="56.3809" y="101" width="19.6127" height="19.6127" transform="rotate(12.906 56.3809 101)" fill="#DD2D34"/>
<path d="M68.1592 108.749L62.045 114.421L59.4592 111.662L57.7488 113.265L61.9261 117.723L69.7488 110.472L68.1592 108.749Z" fill="white"/>
</svg>
