<svg width="113" height="125" viewBox="0 0 113 125" fill="none" xmlns="http://www.w3.org/2000/svg">
<path d="M90.3214 3.44485L43.1994 0L18.8784 17.2242L0.257568 62.0073L21.3485 107.556H34.459V114.828L94.1216 107.556L112.742 63.5383L109.322 30.2381L99.2677 24.0202L106.298 19.3333L90.3214 3.44485Z" fill="#F8F8F8"/>
<path d="M71.2331 52.8349C71.2331 46.3654 65.9692 41.1016 59.4997 41.1016C53.0302 41.1016 47.7664 46.3654 47.7664 52.8349C47.7664 59.3044 53.0302 64.5683 59.4997 64.5683C65.9692 64.5683 71.2331 59.3044 71.2331 52.8349ZM59.4997 63.1016C53.8384 63.1016 49.233 58.4963 49.233 52.8349C49.233 47.1736 53.8384 42.5682 59.4997 42.5682C65.1611 42.5682 69.7664 47.1736 69.7664 52.8349C69.7664 58.4963 65.1611 63.1016 59.4997 63.1016Z" fill="#090909"/>
<path d="M81.3282 69.7777L73.7389 60.7335C73.846 60.072 73.9714 59.4523 74.1921 58.9199C74.4591 58.2753 74.9453 57.6234 75.4608 56.9348C76.3386 55.7585 77.3345 54.4268 77.3345 52.8347C77.3345 51.2427 76.3394 49.9102 75.4601 48.7339C74.9453 48.0446 74.4591 47.3934 74.1921 46.7488C73.9061 46.0609 73.78 45.2278 73.6473 44.3456C73.4207 42.8482 73.1867 41.2994 72.1109 40.2236C71.0351 39.1477 69.4856 38.9138 67.9874 38.6865C67.1059 38.553 66.2729 38.4269 65.5857 38.1423C64.9411 37.8754 64.2899 37.3885 63.6006 36.8737C62.4243 35.9959 61.0926 35 59.4998 35C57.907 35 56.5745 35.9951 55.399 36.8744C54.7096 37.3892 54.0591 37.8754 53.4145 38.1423C52.7267 38.4276 51.8936 38.5537 51.0121 38.6865C49.5139 38.9138 47.9644 39.1477 46.8886 40.2236C45.8128 41.2994 45.5789 42.8482 45.3523 44.3456C45.2188 45.2278 45.0927 46.0609 44.8074 46.7488C44.5405 47.3934 44.0543 48.0446 43.5394 48.7332C42.6609 49.9094 41.6658 51.2419 41.6658 52.8347C41.6658 54.4275 42.6609 55.7593 43.5394 56.9355C44.0543 57.6241 44.5405 58.2753 44.8074 58.9199C45.0281 59.4523 45.1535 60.072 45.2606 60.7328L37.6713 69.7777C37.5849 69.8806 37.5285 70.0053 37.5082 70.1381C37.4879 70.2709 37.5045 70.4067 37.5562 70.5307C37.6079 70.6547 37.6927 70.7621 37.8013 70.8412C37.91 70.9202 38.0383 70.9679 38.1722 70.9789L45.2628 71.5744L47.08 78.4545C47.1143 78.5845 47.1837 78.7024 47.2806 78.7956C47.3774 78.8888 47.498 78.9535 47.6291 78.9828C47.7603 79.0121 47.897 79.0048 48.0243 78.9617C48.1515 78.9186 48.2645 78.8413 48.3509 78.7383L56.2027 69.381C57.1773 70.0637 58.259 70.6694 59.5005 70.6694C60.742 70.6694 61.8237 70.0637 62.7983 69.3802L70.6501 78.7376C70.7364 78.8406 70.8493 78.9179 70.9766 78.9611C71.1038 79.0042 71.2405 79.0115 71.3716 78.9822C71.5027 78.9529 71.6232 78.8882 71.72 78.795C71.8168 78.7018 71.8861 78.5837 71.9203 78.4538L73.7382 71.5737L80.8288 70.9782C80.9625 70.9668 81.0906 70.9189 81.1989 70.8398C81.3073 70.7606 81.3919 70.6533 81.4435 70.5294C81.4951 70.4055 81.5117 70.2698 81.4915 70.1372C81.4713 70.0045 81.4151 69.8799 81.329 69.777L81.3282 69.7777ZM48.1367 76.7114L46.5483 70.6995C46.5096 70.5533 46.4266 70.4226 46.3107 70.3254C46.1947 70.2283 46.0515 70.1694 45.9008 70.1568L39.7048 69.6369L45.5774 62.638C45.7915 63.6866 46.1289 64.6854 46.8893 65.4459C47.9651 66.5217 49.5139 66.7556 51.0114 66.983C51.8936 67.1164 52.7267 67.2426 53.4145 67.5278C53.9381 67.7449 54.4676 68.1086 55.0169 68.5127L48.1367 76.7114ZM56.2775 67.621C55.5464 67.0754 54.791 66.51 53.977 66.1726C53.1234 65.8192 52.1613 65.6732 51.2314 65.5324C49.9099 65.333 48.6618 65.1438 47.927 64.409C47.1922 63.6742 47.0037 62.426 46.8035 61.1038C46.6627 60.1732 46.5175 59.2125 46.1633 58.3589C45.826 57.5449 45.2613 56.7889 44.715 56.0577C43.9017 54.9687 43.1332 53.9399 43.1332 52.8347C43.1332 51.7296 43.9017 50.7007 44.7157 49.611C45.2621 48.8798 45.826 48.1245 46.1641 47.3098C46.5175 46.4569 46.6635 45.494 46.8043 44.5649C47.0037 43.2427 47.1929 41.9946 47.9277 41.2598C48.6625 40.525 49.9114 40.3358 51.2336 40.1363C52.1635 39.9962 53.1249 39.8503 53.9785 39.4968C54.7925 39.1587 55.5478 38.5948 56.279 38.0485C57.368 37.2345 58.3976 36.4659 59.5027 36.4659C60.6078 36.4659 61.6367 37.2345 62.7257 38.0477C63.4568 38.5941 64.2129 39.1587 65.0276 39.4968C65.8805 39.8503 66.8427 39.9962 67.7718 40.1363C69.094 40.3358 70.3429 40.525 71.0777 41.2598C71.8125 41.9946 72.0009 43.2427 72.2004 44.5642C72.3412 45.4948 72.4871 46.4562 72.8406 47.3098C73.1779 48.1238 73.7426 48.8806 74.2897 49.611C75.103 50.7 75.8715 51.7296 75.8715 52.8347C75.8715 53.9399 75.103 54.968 74.2897 56.057C73.7433 56.7881 73.1779 57.5442 72.8406 58.3589C72.4871 59.2125 72.3412 60.1747 72.2004 61.1038C72.0009 62.426 71.8117 63.6742 71.0769 64.409C70.3421 65.1438 69.094 65.333 67.7725 65.5324C66.8419 65.6732 65.8805 65.8192 65.0276 66.1726C64.2136 66.51 63.4568 67.0746 62.7257 67.6217C61.6367 68.4342 60.6078 69.2028 59.5027 69.2028C58.3976 69.2028 57.3687 68.4342 56.2797 67.621H56.2775ZM73.0995 70.1568C72.9488 70.1696 72.8057 70.2286 72.6898 70.3257C72.5739 70.4228 72.4908 70.5534 72.4519 70.6995L70.8643 76.7114L63.9834 68.512C64.5326 68.1079 65.0621 67.7442 65.5865 67.5271C66.2743 67.2411 67.1074 67.115 67.9889 66.9822C69.4871 66.7549 71.0351 66.521 72.1109 65.4452C72.8714 64.6847 73.2087 63.6852 73.4229 62.6365L79.2962 69.6354L73.0995 70.1554V70.1568Z" fill="#090909"/>
<path d="M66.7978 51.1272C66.7554 50.997 66.6774 50.8813 66.5727 50.793C66.468 50.7048 66.3408 50.6475 66.2053 50.6278L62.0267 50.0198L60.1575 46.2336C59.9103 45.732 59.0897 45.732 58.8426 46.2336L56.9733 50.0198L52.794 50.6278C52.6587 50.6475 52.5317 50.7047 52.4272 50.7929C52.3227 50.8811 52.2449 50.9967 52.2026 51.1268C52.1604 51.2568 52.1553 51.3961 52.188 51.5288C52.2208 51.6616 52.2899 51.7826 52.3878 51.8781L55.4113 54.8261L54.697 58.9885C54.6739 59.1234 54.689 59.262 54.7406 59.3888C54.7922 59.5155 54.8782 59.6253 54.9889 59.7057C55.0996 59.7861 55.2306 59.834 55.367 59.8438C55.5035 59.8537 55.64 59.8251 55.7611 59.7615L59.4989 57.7961L63.2367 59.7615C63.3579 59.8251 63.4944 59.8537 63.6308 59.8438C63.7673 59.834 63.8983 59.7861 64.009 59.7057C64.1197 59.6253 64.2057 59.5155 64.2573 59.3888C64.3088 59.262 64.3239 59.1234 64.3008 58.9885L63.5865 54.8261L66.6108 51.8781C66.8103 51.683 66.8822 51.3919 66.7964 51.1272H66.7978ZM62.2885 54.0451C62.2035 54.1281 62.1399 54.2306 62.1032 54.3436C62.0666 54.4567 62.0579 54.577 62.0781 54.6941L62.6061 57.7719L59.8421 56.3192C59.737 56.2638 59.62 56.2348 59.5011 56.2348C59.3823 56.2348 59.2652 56.2638 59.1601 56.3192L56.3962 57.7719L56.9242 54.6941C56.9442 54.5769 56.9354 54.4566 56.8986 54.3436C56.8618 54.2305 56.7981 54.1281 56.713 54.0451L54.477 51.8656L57.5673 51.4161C57.6849 51.3991 57.7966 51.3537 57.8927 51.2838C57.9888 51.2139 58.0664 51.1217 58.1188 51.015L59.5011 48.2158L60.8835 51.015C60.9361 51.1216 61.0139 51.2138 61.1101 51.2837C61.2063 51.3536 61.318 51.399 61.4357 51.4161L64.5252 51.8656L62.2893 54.0451H62.2885Z" fill="#090909"/>
<rect x="56.6384" y="101" width="19.6127" height="19.6127" transform="rotate(12.906 56.6384 101)" fill="#DD2D34"/>
<path d="M68.4167 108.749L62.3026 114.421L59.7168 111.662L58.0063 113.265L62.1837 117.723L70.0063 110.472L68.4167 108.749Z" fill="white"/>
</svg>
