<svg width="113" height="125" viewBox="0 0 113 125" fill="none" xmlns="http://www.w3.org/2000/svg">
<path d="M90.579 3.44485L43.457 0L19.1359 17.2242L0.515137 62.0073L21.606 107.556H34.7166V114.828L94.3792 107.556L113 63.5383L109.58 30.2381L99.5252 24.0202L106.556 19.3333L90.579 3.44485Z" fill="#F8F8F8"/>
<g clip-path="url(#clip0_1_8493)">
<path d="M75.5573 39.6646H74.3843V38.3732C74.3843 36.8545 73.1479 35.6182 71.6292 35.6182H70.7831C69.2644 35.6182 68.028 36.8545 68.028 38.3732V39.6646H51.8913V38.3732C51.8913 36.8545 50.655 35.6182 49.1362 35.6182H48.2901C46.7714 35.6182 45.5351 36.8545 45.5351 38.3732V39.6646H44.4429C41.2249 39.6646 38.6069 42.2826 38.6069 45.5006V72.5463C38.6069 75.7643 41.2249 78.3822 44.4429 78.3822H75.5573C78.7753 78.3822 81.3933 75.7643 81.3933 72.5463V45.5006C81.3933 42.2826 78.7753 39.6646 75.5573 39.6646ZM69.4331 38.3732C69.4331 37.6291 70.0378 37.0244 70.7819 37.0244H71.628C72.3722 37.0244 72.9769 37.6291 72.9769 38.3732V42.7713C72.9769 43.5154 72.3722 44.1201 71.628 44.1201H70.7819C70.0378 44.1201 69.4331 43.5154 69.4331 42.7713V38.3732ZM46.9401 38.3732C46.9401 37.6291 47.546 37.0244 48.289 37.0244H49.1351C49.8792 37.0244 50.4839 37.6291 50.4839 38.3732V42.7713C50.4839 43.5154 49.8792 44.1201 49.1351 44.1201H48.289C47.5448 44.1201 46.9401 43.5154 46.9401 42.7713V38.3732ZM44.4417 41.0709H45.5339V42.7701C45.5339 44.2889 46.7702 45.5252 48.289 45.5252H49.1351C50.6538 45.5252 51.8901 44.2889 51.8901 42.7701V41.0709H68.0269V42.7701C68.0269 44.2889 69.2632 45.5252 70.7819 45.5252H71.628C73.1468 45.5252 74.3831 44.2889 74.3831 42.7701V41.0709H75.5562C77.9995 41.0709 79.9858 43.0584 79.9858 45.5006V51.2522H40.012V45.5006C40.012 43.0572 41.9995 41.0709 44.4417 41.0709ZM75.5573 76.9772H44.4417C41.9983 76.9772 40.012 74.9897 40.012 72.5475V52.6584H79.987V72.5463C79.987 74.9897 77.9995 76.976 75.5573 76.976V76.9772Z" fill="#090909"/>
<path d="M62.7976 65.3457H57.2007C56.8128 65.3457 56.4976 65.6609 56.4976 66.0488V71.6457C56.4976 72.0336 56.8128 72.3488 57.2007 72.3488H62.7976C63.1855 72.3488 63.5007 72.0336 63.5007 71.6457V66.0488C63.5007 65.6609 63.1855 65.3457 62.7976 65.3457ZM62.0944 70.9426H57.9038V66.752H62.0944V70.9426Z" fill="#090909"/>
<path d="M72.2995 65.3457H66.7026C66.3147 65.3457 65.9995 65.6609 65.9995 66.0488V71.6457C65.9995 72.0336 66.3147 72.3488 66.7026 72.3488H72.2995C72.6874 72.3488 73.0026 72.0336 73.0026 71.6457V66.0488C73.0026 65.6609 72.6874 65.3457 72.2995 65.3457ZM71.5964 70.9426H67.4058V66.752H71.5964V70.9426Z" fill="#090909"/>
<path d="M52.7497 58.1981L48.9294 61.9223L47.1868 60.2629C46.9056 59.9946 46.4603 60.0063 46.1931 60.2875C45.9259 60.5688 45.9364 61.0141 46.2177 61.2813L48.4501 63.4083C48.5861 63.5372 48.7607 63.6028 48.9353 63.6028C49.1099 63.6028 49.2892 63.536 49.4263 63.4036L53.7318 59.2059C54.0095 58.9352 54.0153 58.4899 53.7446 58.2122C53.6145 58.0788 53.4368 58.0025 53.2504 58.0001C53.0641 57.9976 52.8844 58.0693 52.7509 58.1993L52.7497 58.1981Z" fill="#090909"/>
<path d="M62.7497 58.1981L58.9294 61.9223L57.1868 60.2629C56.9056 59.9946 56.4603 60.0063 56.1931 60.2875C55.9259 60.5688 55.9364 61.0141 56.2177 61.2813L58.4501 63.4083C58.5861 63.5372 58.7607 63.6028 58.9353 63.6028C59.1099 63.6028 59.2892 63.536 59.4263 63.4036L63.7318 59.2059C64.0095 58.9352 64.0153 58.4899 63.7446 58.2122C63.6145 58.0788 63.4368 58.0025 63.2504 58.0001C63.0641 57.9976 62.8844 58.0693 62.7509 58.1993L62.7497 58.1981Z" fill="#090909"/>
<path d="M72.7497 58.1981L68.9294 61.9223L67.1868 60.2629C66.9056 59.9946 66.4603 60.0063 66.1931 60.2875C65.9259 60.5688 65.9364 61.0141 66.2177 61.2813L68.4501 63.4083C68.5861 63.5372 68.7607 63.6028 68.9353 63.6028C69.1099 63.6028 69.2892 63.536 69.4263 63.4036L73.7318 59.2059C74.0095 58.9352 74.0153 58.4899 73.7446 58.2122C73.6145 58.0788 73.4368 58.0025 73.2504 58.0001C73.0641 57.9976 72.8844 58.0693 72.7509 58.1993L72.7497 58.1981Z" fill="#090909"/>
<path d="M52.7497 67.1981L48.9294 70.9223L47.1868 69.2629C46.9056 68.9946 46.4603 69.0063 46.1931 69.2875C45.9259 69.5688 45.9364 70.0141 46.2177 70.2813L48.4501 72.4083C48.5861 72.5372 48.7607 72.6028 48.9353 72.6028C49.1099 72.6028 49.2892 72.536 49.4263 72.4036L53.7318 68.2059C54.0095 67.9352 54.0153 67.4899 53.7446 67.2122C53.6145 67.0788 53.4368 67.0025 53.2504 67.0001C53.0641 66.9976 52.8844 67.0693 52.7509 67.1993L52.7497 67.1981Z" fill="#090909"/>
</g>
<rect x="56.896" y="101" width="19.6127" height="19.6127" transform="rotate(12.906 56.896 101)" fill="#DD2D34"/>
<path d="M68.6743 108.749L62.5601 114.421L59.9744 111.662L58.2639 113.265L62.4413 117.723L70.2639 110.472L68.6743 108.749Z" fill="white"/>
<defs>
<clipPath id="clip0_1_8493">
<rect width="50" height="50" fill="white" transform="translate(34.5151 32)"/>
</clipPath>
</defs>
</svg>
