<svg width="18" height="17" viewBox="0 0 18 17" fill="none" xmlns="http://www.w3.org/2000/svg">
<path d="M12.1584 9.47468C11.5728 10.0616 10.6582 10.9781 9.89232 11.7502C8.98194 11.1536 8.15909 10.4954 7.49736 9.83291C6.68021 9.01488 5.65831 7.85015 5.10611 7.02508C5.80721 6.3282 6.72411 5.41153 7.3969 4.7386L3.35502 0.692383L1.33831 2.67492L1.33533 2.67791C0.770966 3.24285 0.531975 4.01409 0.625055 4.9701C0.922727 8.02709 4.65695 12.455 7.95794 14.6728C9.86911 15.9568 12.6161 17.1453 14.2409 15.5187C15.4206 14.3379 15.8715 13.8567 15.8902 13.8369L16.1928 13.5135L12.1584 9.47468ZM13.5942 14.8712C12.3642 16.1025 9.9248 14.8914 8.46758 13.9124C5.40433 11.8543 1.80401 7.63927 1.53538 4.88122C1.47018 4.21188 1.62002 3.68883 1.98064 3.32688L3.3492 1.98149L6.10287 4.73823C4.70634 6.13413 4.2856 6.55018 3.95106 6.88176L4.12851 7.18795C4.6674 8.11728 5.91729 9.54614 6.85064 10.4805C7.8744 11.5053 8.9253 12.2289 10.0242 12.9174L10.2816 12.6573C10.8465 12.0868 11.6673 11.2629 12.1587 10.7701L14.9162 13.5305C14.6608 13.7944 14.2341 14.2305 13.5942 14.8712Z" fill="#DD2D34"/>
<path d="M6.45597 4.59063L3.33604 1.4707L1.38608 3.03067L0.996094 4.59063L2.55606 8.49054L6.45597 13.1704L11.5259 15.9004L13.4758 15.5104L15.4258 13.5604L12.3058 10.4405L9.96589 12.3905L6.45597 9.66051L4.50601 6.93058L6.45597 4.59063Z" fill="#DD2D34"/>
</svg>
