<svg width="14" height="11" viewBox="0 0 14 11" fill="none" xmlns="http://www.w3.org/2000/svg">
<path fill-rule="evenodd" clip-rule="evenodd" d="M1.1244 0.705188L5.3319 4.91452C6.24957 5.83042 7.74964 5.83122 8.66807 4.91452L12.8756 0.705188C12.8855 0.695297 12.8932 0.683339 12.898 0.670161C12.9028 0.656982 12.9046 0.642907 12.9034 0.628933C12.9022 0.614959 12.8979 0.601428 12.8908 0.589299C12.8838 0.577171 12.8741 0.566742 12.8626 0.558752C12.4335 0.259463 11.9113 0.0820312 11.3489 0.0820312H2.65111C2.08864 0.0820312 1.5665 0.259494 1.13735 0.558752C1.12582 0.566742 1.11619 0.577171 1.10914 0.589299C1.10209 0.601428 1.09779 0.614959 1.09656 0.628933C1.09532 0.642907 1.09717 0.656982 1.10198 0.670161C1.1068 0.683339 1.11445 0.695297 1.1244 0.705188ZM8.44083e-07 2.73311C-0.000341734 2.30541 0.103599 1.88409 0.302818 1.50562C0.309773 1.49228 0.319778 1.48077 0.33202 1.47202C0.344261 1.46327 0.358394 1.45754 0.37327 1.45528C0.388145 1.45302 0.403344 1.4543 0.417631 1.45902C0.431917 1.46374 0.444888 1.47177 0.45549 1.48244L4.60973 5.63669C5.92525 6.95412 8.07396 6.95488 9.39027 5.63669L13.5445 1.48244C13.5551 1.47177 13.5681 1.46374 13.5824 1.45902C13.5967 1.4543 13.6119 1.45302 13.6267 1.45528C13.6416 1.45754 13.6557 1.46327 13.668 1.47202C13.6802 1.48077 13.6902 1.49228 13.6972 1.50562C13.8964 1.88409 14.0003 2.30542 14 2.73311V8.26738C14 9.73031 12.81 10.9185 11.3489 10.9185H2.65111C1.19004 10.9185 8.44083e-07 9.73031 8.44083e-07 8.26738V2.73311Z" fill="#DD2D34"/>
</svg>
