<svg width="60" height="60" viewBox="0 0 60 60" fill="none" xmlns="http://www.w3.org/2000/svg">
<g clip-path="url(#clip0_1_8451)">
<path d="M28.2001 9.59535C27.9582 9.59535 27.7263 9.69143 27.5552 9.86246C27.3842 10.0335 27.2881 10.2654 27.2881 10.5073C27.2881 10.7492 27.3842 10.9811 27.5552 11.1522C27.7263 11.3232 27.9582 11.4193 28.2001 11.4193H32.3074C33.1892 11.4193 33.9066 10.7018 33.9066 9.82012V6.6598C33.9066 5.77797 33.1892 5.06055 32.3074 5.06055H13.4451C12.5633 5.06055 11.8459 5.77797 11.8459 6.6598V9.82023C11.8459 10.702 12.5633 11.4194 13.4451 11.4194H23.9136C24.1555 11.4194 24.3874 11.3233 24.5584 11.1523C24.7295 10.9812 24.8255 10.7493 24.8255 10.5074C24.8255 10.2656 24.7295 10.0336 24.5584 9.86257C24.3874 9.69155 24.1555 9.59547 23.9136 9.59547H13.6699V6.88457H32.0826V9.59523L28.2001 9.59535ZM7.76973 16.1015C7.76971 16.2212 7.79329 16.3398 7.83911 16.4505C7.88494 16.5611 7.95211 16.6617 8.0368 16.7464C8.12148 16.8311 8.22202 16.8982 8.33267 16.944C8.44332 16.9899 8.56192 17.0135 8.68168 17.0134H37.2639C37.3837 17.0135 37.5023 16.9899 37.613 16.944C37.7236 16.8982 37.8241 16.8311 37.9088 16.7464C37.9935 16.6617 38.0607 16.5611 38.1065 16.4505C38.1523 16.3398 38.1759 16.2212 38.1759 16.1015C38.1759 15.9817 38.1523 15.8631 38.1065 15.7525C38.0607 15.6418 37.9935 15.5413 37.9088 15.4566C37.8241 15.3719 37.7236 15.3047 37.613 15.2589C37.5023 15.2131 37.3837 15.1895 37.2639 15.1895H8.68168C8.56191 15.1895 8.44331 15.2131 8.33265 15.2589C8.222 15.3047 8.12145 15.3719 8.03676 15.4566C7.95207 15.5413 7.8849 15.6418 7.83908 15.7525C7.79326 15.8631 7.7697 15.9817 7.76973 16.1015ZM8.68168 22.7516H37.2639C37.3837 22.7517 37.5023 22.7281 37.613 22.6823C37.7236 22.6364 37.8241 22.5693 37.9088 22.4846C37.9935 22.3999 38.0607 22.2993 38.1065 22.1887C38.1523 22.078 38.1759 21.9595 38.1759 21.8397C38.1759 21.7199 38.1523 21.6013 38.1065 21.4907C38.0607 21.38 37.9935 21.2795 37.9088 21.1948C37.8241 21.1101 37.7236 21.0429 37.613 20.9971C37.5023 20.9513 37.3837 20.9277 37.2639 20.9277H8.68168C8.43981 20.9277 8.20786 21.0238 8.03683 21.1948C7.86581 21.3659 7.76973 21.5978 7.76973 21.8397C7.76973 22.0816 7.86581 22.3135 8.03683 22.4845C8.20786 22.6556 8.43981 22.7516 8.68168 22.7516ZM31.6262 27.578C31.6262 27.4582 31.6026 27.3396 31.5568 27.229C31.511 27.1183 31.4438 27.0178 31.3591 26.9331C31.2744 26.8484 31.1739 26.7813 31.0632 26.7354C30.9526 26.6896 30.834 26.666 30.7142 26.6661H8.68168C8.43981 26.6661 8.20786 26.7621 8.03683 26.9332C7.86581 27.1042 7.76973 27.3361 7.76973 27.578C7.76973 27.8199 7.86581 28.0518 8.03683 28.2229C8.20786 28.3939 8.43981 28.49 8.68168 28.49H30.7141C30.956 28.49 31.1879 28.3939 31.359 28.2229C31.53 28.0518 31.6261 27.8199 31.6262 27.578ZM20.0731 34.2282C20.315 34.2282 20.5469 34.1321 20.718 33.9611C20.889 33.79 20.9851 33.5581 20.9851 33.3162C20.9851 33.0743 20.889 32.8424 20.718 32.6714C20.5469 32.5003 20.315 32.4043 20.0731 32.4043H8.68168C8.43981 32.4043 8.20786 32.5003 8.03683 32.6714C7.86581 32.8424 7.76973 33.0743 7.76973 33.3162C7.76973 33.5581 7.86581 33.79 8.03683 33.9611C8.20786 34.1321 8.43981 34.2282 8.68168 34.2282H20.0731ZM7.58211 51.9614C8.0668 52.1003 8.57105 51.8187 8.7091 51.3343C8.71496 51.314 9.3132 49.3078 11.6422 49.3078C12.7918 49.3078 13.3374 49.7595 14.0927 50.3847C14.9605 51.103 16.0406 51.9969 18.1275 51.9969C20.7296 51.9969 22.1284 49.2457 22.1867 49.1287C22.4105 48.679 22.2276 48.1344 21.7788 47.9091C21.33 47.6836 20.7825 47.8652 20.5552 48.313C20.5457 48.3317 19.5951 50.1729 18.1275 50.1729C16.6975 50.1729 16.0612 49.6463 15.2557 48.9795C14.4086 48.2784 13.4488 47.4838 11.6421 47.4838C8.68941 47.4838 7.28492 49.6756 6.9548 50.8344C6.88855 51.0671 6.91742 51.3165 7.03506 51.5279C7.1527 51.7392 7.34948 51.8952 7.58211 51.9614Z" fill="#DD2D34"/>
<path d="M59.5199 9.36422C59.4752 9.25278 59.409 9.15126 59.325 9.06547C59.241 8.97968 59.1409 8.91132 59.0304 8.8643L56.9113 7.96266C57.0891 7.51336 56.8656 6.98004 56.4257 6.78996L56.0032 6.6075L56.6888 5.01984C57.4632 3.22301 56.6066 1.0691 54.8117 0.293672C53.018 -0.481172 50.8621 0.375586 50.087 2.16867L49.3806 3.80402C48.5725 3.66316 47.7551 4.10719 47.4307 4.85836L45.531 9.25746V4.58871C45.531 2.0584 43.4725 0 40.9423 0H5.00148C2.47199 0 0.414062 2.05793 0.414062 4.58742V55.4126C0.414062 57.9421 2.47199 60 5.00148 60H40.9436C43.4731 60 45.5309 57.9421 45.5309 55.4126V42.6441C45.5309 42.4022 45.4348 42.1702 45.2638 41.9992C45.0928 41.8282 44.8608 41.7321 44.6189 41.7321C44.3771 41.7321 44.1451 41.8282 43.9741 41.9992C43.8031 42.1702 43.707 42.4022 43.707 42.6441V55.4126C43.707 56.9364 42.4674 58.176 40.9437 58.176H5.00148C3.4777 58.176 2.23809 56.9364 2.23809 55.4126V4.58742C2.23809 3.06363 3.47781 1.82402 5.00148 1.82402H40.9423C42.4667 1.82402 43.707 3.06422 43.707 4.58871V13.4811L29.7282 45.8568C29.6788 45.9711 29.6532 46.0943 29.6527 46.2189L29.6634 53.9012C29.6648 55.6154 31.7846 56.5385 33.0393 55.3588L38.6371 50.0986C38.7148 50.0253 38.7789 49.9388 38.8265 49.8431C38.8314 49.8334 38.8363 49.8238 38.8409 49.8138C38.8438 49.8076 38.8472 49.8016 38.8499 49.7953L56.1894 9.63773L57.4738 10.1842L50.6905 25.9579C50.595 26.18 50.5916 26.4311 50.6812 26.6558C50.7707 26.8805 50.9458 27.0604 51.168 27.1559C51.3902 27.2515 51.6413 27.2549 51.8659 27.1653C52.0906 27.0758 52.2705 26.9006 52.3661 26.6784L59.511 10.0638C59.5585 9.95354 59.5837 9.83497 59.5852 9.71491C59.5867 9.59486 59.5646 9.47568 59.5199 9.36422ZM53.4911 1.82719C54.7007 1.8893 55.4891 3.19547 55.0139 4.29715L54.3288 5.8841L51.0756 4.47973L51.7614 2.89219C52.0551 2.21273 52.7488 1.78617 53.4911 1.82719ZM49.0928 5.61047L54.8655 8.10293L47.5307 25.0898L41.7571 22.5968L49.0928 5.61047ZM37.5369 48.2352L31.7644 45.7424L41.0342 24.2715L46.8078 26.7646L37.5369 48.2352ZM31.79 54.0296C31.6776 54.1351 31.4873 54.0543 31.4873 53.8995L31.4787 47.6059L36.3757 49.7204L31.79 54.0296Z" fill="#090909"/>
</g>
<defs>
<clipPath id="clip0_1_8451">
<rect width="60" height="60" fill="white"/>
</clipPath>
</defs>
</svg>
