<svg width="12" height="13" viewBox="0 0 12 13" fill="none" xmlns="http://www.w3.org/2000/svg">
<path d="M8.10624 7.14938C7.71584 7.54022 7.1061 8.1506 6.59553 8.66476C5.98861 8.26747 5.44004 7.82912 4.99889 7.38794C4.45412 6.84318 3.77286 6.06752 3.40472 5.51806C3.87212 5.05397 4.48339 4.44352 4.93192 3.99537L2.23733 1.30078L0.892858 2.62106L0.890868 2.62305C0.514629 2.99927 0.355301 3.51288 0.417354 4.14954C0.615803 6.18535 3.10528 9.13415 5.30595 10.6111C6.58006 11.4661 8.41139 12.2577 9.49458 11.1744C10.281 10.388 10.5817 10.0676 10.5941 10.0544L10.7958 9.83903L8.10624 7.14938ZM9.06344 10.7432C8.24343 11.5632 6.61719 10.7566 5.6457 10.1047C3.60353 8.7341 1.20333 5.92708 1.02424 4.09035C0.980769 3.6446 1.08066 3.29627 1.32108 3.05523L2.23345 2.15927L4.06923 3.99513C3.13821 4.92473 2.85772 5.2018 2.63469 5.42261L2.75299 5.62653C3.11225 6.24541 3.94551 7.19697 4.56775 7.81921C5.25025 8.50169 5.95085 8.98355 6.68344 9.44208L6.85506 9.26888C7.23162 8.8889 7.77885 8.34023 8.10648 8.01207L9.94478 9.85039C9.7745 10.0261 9.49005 10.3165 9.06344 10.7432Z" fill="#DD2D34"/>
<path d="M4.30593 3.90124L2.22598 1.82129L0.92601 2.86127L0.666016 3.90124L1.70599 6.50118L4.30593 9.62111L7.68585 11.4411L8.98582 11.1811L10.2858 9.8811L8.20584 7.80115L6.64588 9.10112L4.30593 7.28116L3.00596 5.46121L4.30593 3.90124Z" fill="#DD2D34"/>
</svg>
