<svg width="15" height="15" viewBox="0 0 15 15" fill="none" xmlns="http://www.w3.org/2000/svg">
<path d="M10.1333 8.31075C9.64529 8.7993 8.88311 9.56227 8.2449 10.205C7.48625 9.70836 6.80054 9.16042 6.2491 8.60895C5.56814 7.92799 4.71656 6.95842 4.25639 6.2716C4.84064 5.69149 5.60473 4.92842 6.16539 4.36824L2.79715 1L1.11656 2.65035L1.11407 2.65284C0.643774 3.12311 0.444615 3.76512 0.522181 4.56095C0.770242 7.10571 3.88209 10.7917 6.63292 12.6378C8.22556 13.7067 10.5147 14.6961 11.8687 13.342C12.8518 12.3591 13.2276 11.9586 13.2432 11.942L13.4953 11.6728L10.1333 8.31075ZM11.3298 12.8031C10.3048 13.828 8.27197 12.8198 7.05762 12.0049C4.50491 10.2916 1.50465 6.78288 1.28078 4.48696C1.22645 3.92978 1.35132 3.49436 1.65183 3.19306L2.7923 2.07311L5.08702 4.36793C3.92325 5.52993 3.57264 5.87628 3.29386 6.15229L3.44173 6.40718C3.8908 7.18079 4.93237 8.37024 5.71017 9.14803C6.5633 10.0011 7.43905 10.6035 8.35479 11.1766L8.56931 10.9601C9.04002 10.4851 9.72405 9.79931 10.1336 9.38911L12.4315 11.687C12.2186 11.9067 11.8631 12.2697 11.3298 12.8031Z" fill="white"/>
<path d="M5.45396 4.3134L2.82904 1.68848L1.18847 3.00094L0.860352 4.3134L2.17281 7.59455L5.45396 11.5319L9.71946 13.8287L11.36 13.5006L13.0006 11.86L10.0006 8.99951L8.407 10.8757L5.45396 8.57889L3.81339 6.28209L5.45396 4.3134Z" fill="white"/>
</svg>
