<svg width="16" height="17" viewBox="0 0 16 17" fill="none" xmlns="http://www.w3.org/2000/svg">
<path d="M15.3849 0.215332H0.622652C0.459519 0.215332 0.303068 0.280136 0.187715 0.395489C0.0723627 0.510841 0.00755838 0.667293 0.00755838 0.830426C0.00755838 0.993559 0.0723627 1.15001 0.187715 1.26536C0.303068 1.38072 0.459519 1.44552 0.622652 1.44552H13.8998L0.187781 15.1578C0.129033 15.2145 0.082174 15.2824 0.0499375 15.3575C0.0177011 15.4325 0.000732929 15.5132 2.32239e-05 15.5949C-0.000686481 15.6766 0.0148765 15.7576 0.0458039 15.8332C0.0767314 15.9087 0.122404 15.9774 0.180157 16.0352C0.23791 16.0929 0.306586 16.1386 0.382179 16.1695C0.457772 16.2005 0.538767 16.216 0.620439 16.2153C0.702111 16.2146 0.782823 16.1976 0.857867 16.1654C0.932911 16.1332 1.00078 16.0863 1.05752 16.0276L14.7698 2.31526V15.5927C14.7698 15.7558 14.8346 15.9123 14.95 16.0276C15.0653 16.143 15.2218 16.2078 15.3849 16.2078C15.548 16.2078 15.7045 16.143 15.8198 16.0276C15.9352 15.9123 16 15.7558 16 15.5927V0.830426C16 0.667293 15.9352 0.510841 15.8198 0.395489C15.7045 0.280136 15.548 0.215332 15.3849 0.215332Z" fill="#DD2D34"/>
</svg>
