<svg width="23" height="23" viewBox="0 0 23 23" fill="none" xmlns="http://www.w3.org/2000/svg">
<g clip-path="url(#clip0_1_874)">
<path d="M9.25678 18.5078C11.3125 18.5078 13.3095 17.8219 14.9314 16.5587L21.0501 22.6774C21.5072 23.1189 22.2356 23.1062 22.677 22.6491C23.1076 22.2032 23.1076 21.4964 22.677 21.0505L16.5583 14.9318C19.6929 10.8967 18.9629 5.0845 14.9278 1.94988C10.8927 -1.18474 5.08059 -0.454795 1.94597 3.58031C-1.18865 7.61541 -0.458702 13.4276 3.5764 16.5622C5.2009 17.8242 7.19968 18.5088 9.25678 18.5078ZM4.34043 4.3408C7.05568 1.6255 11.458 1.62545 14.1733 4.3407C16.8886 7.05595 16.8886 11.4582 14.1734 14.1735C11.4581 16.8888 7.05583 16.8889 4.34053 14.1736L4.34043 14.1735C1.62518 11.4781 1.60918 7.09183 4.30465 4.37658L4.34043 4.3408Z" fill="#DD2D34"/>
</g>
<defs>
<clipPath id="clip0_1_874">
<rect width="23" height="23" fill="white" transform="translate(0 0.00195312)"/>
</clipPath>
</defs>
</svg>
