<svg width="47" height="33" viewBox="0 0 47 33" fill="none" xmlns="http://www.w3.org/2000/svg">
<path d="M1 16H30" stroke="#090909" stroke-width="2" stroke-linecap="round"/>
<path d="M6 22H25" stroke="#DD2D34" stroke-width="2" stroke-linecap="round"/>
<path d="M13 10L27 10" stroke="#090909" stroke-width="2" stroke-linecap="round"/>
<path d="M22 29L30 29" stroke="#090909" stroke-width="2" stroke-linecap="round"/>
<path d="M44.1094 21.2773H42.8789L42.2812 8.86719H44.707L44.1094 21.2773ZM42.0703 24.7578C42.0703 23.6953 42.5391 23.1641 43.4766 23.1641C43.9297 23.1641 44.2773 23.3008 44.5195 23.5742C44.7695 23.8477 44.8945 24.2422 44.8945 24.7578C44.8945 25.2578 44.7695 25.6484 44.5195 25.9297C44.2695 26.2031 43.9219 26.3398 43.4766 26.3398C43.0703 26.3398 42.7344 26.2188 42.4688 25.9766C42.2031 25.7266 42.0703 25.3203 42.0703 24.7578Z" fill="#090909"/>
</svg>
