<svg width="23" height="22" viewBox="0 0 23 22" fill="none" xmlns="http://www.w3.org/2000/svg">
<path d="M15.199 12.2161C14.467 12.949 13.3237 14.0934 12.3664 15.0575C11.2284 14.3125 10.1998 13.4906 9.37267 12.6634C8.35123 11.642 7.07386 10.1876 6.38361 9.1574C7.25998 8.28723 8.40611 7.14263 9.24711 6.30236L4.19475 1.25L1.67387 3.72553L1.67013 3.72926C0.964684 4.43467 0.665946 5.39769 0.782295 6.59142C1.15439 10.4086 5.82216 15.9376 9.9484 18.7068C12.3374 20.3101 15.7711 21.7942 17.8021 19.763C19.2767 18.2886 19.8404 17.6878 19.8638 17.663L20.2419 17.2592L15.199 12.2161ZM16.9937 18.9546C15.4562 20.492 12.407 18.9797 10.5854 17.7573C6.75638 15.1875 2.25599 9.92432 1.9202 6.48044C1.8387 5.64467 2.026 4.99155 2.47677 4.53959L4.18748 2.85966L7.62956 6.3019C5.8839 8.0449 5.35798 8.56441 4.93981 8.97844L5.16161 9.36077C5.83522 10.5212 7.39758 12.3054 8.56428 13.472C9.84397 14.7517 11.1576 15.6552 12.5312 16.5149L12.853 16.1902C13.5591 15.4777 14.5851 14.449 15.1994 13.8337L18.6462 17.2805C18.3269 17.61 17.7936 18.1546 16.9937 18.9546Z" fill="#DD2D34"/>
<path d="M8.07289 6.12452L4.17298 2.22461L1.73554 4.17456L1.24805 6.12452L3.198 10.9994L8.07289 16.8493L14.4102 20.2617L16.8477 19.7742L19.2851 17.3368L15.3852 13.4369L12.4603 15.8743L8.07289 12.4619L5.63545 9.04945L8.07289 6.12452Z" fill="#DD2D34"/>
</svg>
