<svg width="16" height="15" viewBox="0 0 16 15" fill="none" xmlns="http://www.w3.org/2000/svg">
<path d="M1.4375 4.6875V3.28125C1.4375 2.50594 2.06844 1.875 2.84375 1.875H3.3125V1.40625C3.3125 1.28193 3.36189 1.1627 3.44979 1.07479C3.5377 0.986886 3.65693 0.9375 3.78125 0.9375C3.90557 0.9375 4.0248 0.986886 4.11271 1.07479C4.20061 1.1627 4.25 1.28193 4.25 1.40625V1.875H6.125V1.40625C6.125 1.28193 6.17439 1.1627 6.26229 1.07479C6.3502 0.986886 6.46943 0.9375 6.59375 0.9375C6.71807 0.9375 6.8373 0.986886 6.92521 1.07479C7.01311 1.1627 7.0625 1.28193 7.0625 1.40625V1.875H8.9375V1.40625C8.9375 1.28193 8.98689 1.1627 9.07479 1.07479C9.1627 0.986886 9.28193 0.9375 9.40625 0.9375C9.53057 0.9375 9.6498 0.986886 9.73771 1.07479C9.82561 1.1627 9.875 1.28193 9.875 1.40625V1.875H11.75V1.40625C11.75 1.28193 11.7994 1.1627 11.8873 1.07479C11.9752 0.986886 12.0944 0.9375 12.2188 0.9375C12.3431 0.9375 12.4623 0.986886 12.5502 1.07479C12.6381 1.1627 12.6875 1.28193 12.6875 1.40625V1.875H13.1562C13.9316 1.875 14.5625 2.50594 14.5625 3.28125V4.6875H1.4375ZM1.4375 6.625V12.6562C1.4375 13.4316 2.06844 14.0625 2.84375 14.0625H13.1562C13.9316 14.0625 14.5625 13.4316 14.5625 12.6562V6.625H1.4375Z" fill="#DD2D34"/>
</svg>
