<svg width="114" height="115" viewBox="0 0 114 115" fill="none" xmlns="http://www.w3.org/2000/svg">
<path d="M4.96973 26V59L23.4697 36.5L4.96973 26Z" fill="#DD2D34"/>
<path d="M8.96973 25.313L30.2377 38.313L30.2377 18.8275L8.96973 25.313Z" fill="#DD2D34"/>
<path d="M96.8105 92.7705L109.37 87.9225L106.903 74.1053L96.8105 92.7705Z" fill="#DD2D34"/>
<path d="M91.0336 3.44485L43.9116 0L19.5905 17.2242L0.969727 62.0073L22.0606 107.556H35.1712V114.828L94.8338 107.556L113.455 63.5383L110.034 30.2381L99.9798 24.0202L107.01 19.3333L91.0336 3.44485Z" fill="#F8F8F8"/>
<path d="M54.6439 66.9717H49.8018L52.828 48.3733H57.6706L54.6439 66.9717ZM45.7283 48.3733L41.112 61.1654L40.5658 58.4108L40.5663 58.4118L38.937 50.0479C38.937 50.0479 38.74 48.3733 36.6401 48.3733H29.0085L28.9189 48.6883C28.9189 48.6883 31.2527 49.1738 33.9839 50.814L38.1907 66.9722H43.2358L50.9395 48.3733H45.7283ZM83.8139 66.9717H88.2601L84.3836 48.3728H80.4912C78.6937 48.3728 78.2559 49.7589 78.2559 49.7589L71.0343 66.9717H76.0819L77.0913 64.2091H83.2468L83.8139 66.9717ZM78.4858 60.3928L81.03 53.4329L82.4613 60.3928H78.4858ZM71.4129 52.8458L72.1039 48.8519C72.1039 48.8519 69.9717 48.041 67.7489 48.041C65.346 48.041 59.6397 49.0912 59.6397 54.198C59.6397 59.0028 66.337 59.0625 66.337 61.5863C66.337 64.1101 60.3297 63.6579 58.3472 62.0664L57.6273 66.2423C57.6273 66.2423 59.7895 67.2926 63.0928 67.2926C66.3972 67.2926 71.3821 65.5817 71.3821 60.9251C71.3821 56.0895 64.6246 55.6392 64.6246 53.5368C64.6251 51.4339 69.3408 51.7041 71.4129 52.8458Z" fill="#A6A6A6"/>
<path d="M40.5663 58.411L38.937 50.0471C38.937 50.0471 38.74 48.3726 36.6401 48.3726H29.0085L28.9189 48.6875C28.9189 48.6875 32.587 49.4476 36.1052 52.2958C39.4693 55.0181 40.5663 58.411 40.5663 58.411Z" fill="#797979"/>
</svg>
