<svg width="79" height="48" viewBox="0 0 79 48" fill="none" xmlns="http://www.w3.org/2000/svg">
<mask id="path-1-outside-1_660_2455" maskUnits="userSpaceOnUse" x="0" y="0" width="80" height="49" fill="black">
<rect fill="white" width="80" height="49"/>
<path d="M43.1729 47.0562L41.9937 45.3267C47.2345 24.8348 51.8727 10.1341 55.9082 1.22461H77.7627C74.2513 17.5762 71.6833 32.8534 70.0586 47.0562H43.1729ZM3.08008 47.0562L1.90088 45.3267C7.14176 24.8348 11.7799 10.1341 15.8154 1.22461H37.6699C34.1585 17.5762 31.5905 32.8534 29.9658 47.0562H3.08008Z"/>
</mask>
<path d="M43.1729 47.0562L42.3466 47.6195L42.6443 48.0562H43.1729V47.0562ZM41.9937 45.3267L41.0248 45.0789L40.9129 45.5167L41.1674 45.89L41.9937 45.3267ZM55.9082 1.22461V0.224609H55.2633L54.9973 0.812019L55.9082 1.22461ZM77.7627 1.22461L78.7404 1.43457L79.0002 0.224609H77.7627V1.22461ZM70.0586 47.0562V48.0562H70.9507L71.0521 47.1698L70.0586 47.0562ZM3.08008 47.0562L2.25385 47.6195L2.55158 48.0562H3.08008V47.0562ZM1.90088 45.3267L0.932062 45.0789L0.8201 45.5167L1.07465 45.89L1.90088 45.3267ZM15.8154 1.22461V0.224609H15.1706L14.9045 0.812019L15.8154 1.22461ZM37.6699 1.22461L38.6476 1.43457L38.9075 0.224609H37.6699V1.22461ZM29.9658 47.0562V48.0562H30.858L30.9593 47.1698L29.9658 47.0562ZM43.9991 46.4928L42.8199 44.7633L41.1674 45.89L42.3466 47.6195L43.9991 46.4928ZM42.9625 45.5744C48.2015 25.0896 52.8222 10.4615 56.8191 1.6372L54.9973 0.812019C50.9232 9.80672 46.2675 24.5799 41.0248 45.0789L42.9625 45.5744ZM55.9082 2.22461H77.7627V0.224609H55.9082V2.22461ZM76.785 1.01465C73.2679 17.3929 70.694 32.7025 69.0651 46.9425L71.0521 47.1698C72.6725 33.0042 75.2347 17.7595 78.7404 1.43457L76.785 1.01465ZM70.0586 46.0562H43.1729V48.0562H70.0586V46.0562ZM3.90631 46.4928L2.72711 44.7633L1.07465 45.89L2.25385 47.6195L3.90631 46.4928ZM2.8697 45.5744C8.10877 25.0896 12.7295 10.4615 16.7263 1.6372L14.9045 0.812019C10.8304 9.80672 6.17476 24.5799 0.932062 45.0789L2.8697 45.5744ZM15.8154 2.22461H37.6699V0.224609H15.8154V2.22461ZM36.6922 1.01465C33.1751 17.3929 30.6012 32.7025 28.9723 46.9425L30.9593 47.1698C32.5798 33.0042 35.142 17.7595 38.6476 1.43457L36.6922 1.01465ZM29.9658 46.0562H3.08008V48.0562H29.9658V46.0562Z" fill="#DD2D34" mask="url(#path-1-outside-1_660_2455)"/>
</svg>
