<svg width="88" height="88" viewBox="0 0 88 88" fill="none" xmlns="http://www.w3.org/2000/svg">
<g clip-path="url(#clip0_1_4825)">
<path d="M83.3711 81.2879C82.7033 76.7966 81.1798 72.4381 78.9119 68.505C79.4385 67.8424 79.9195 67.1448 80.3516 66.417C85.2865 58.0929 81.527 49.1086 81.3646 48.7301C81.2556 48.4761 81.0679 48.2638 80.8291 48.1246C80.5904 47.9853 80.3132 47.9265 80.0384 47.9568C79.6698 47.9972 71.3496 48.983 66.2522 55.5315C62.3646 53.1648 58.0314 51.5208 53.5472 50.7402V44.2161L75.0854 44.206C75.4275 44.2058 75.7554 44.0698 75.9972 43.8279C76.239 43.586 76.3748 43.258 76.3748 42.9159V1.29006C76.3748 0.57743 75.7974 1.14713e-08 75.0848 1.14713e-08H19.3543C19.1848 -2.25823e-05 19.0171 0.0333303 18.8605 0.0981538C18.704 0.162977 18.5618 0.258001 18.442 0.377799C18.3222 0.497596 18.2272 0.63982 18.1624 0.796347C18.0975 0.952875 18.0642 1.12064 18.0642 1.29006C18.0642 6.67098 18.0578 7.34335 18.0566 7.42196C17.9975 9.07736 20.6232 9.15219 20.6373 7.37844C20.6381 7.28109 20.6443 2.58012 20.6443 2.58012H73.7947V41.6266L22.0563 41.6508C21.5921 41.378 21.1186 41.1211 20.6369 40.8806C20.6438 32.1613 20.6364 16.2626 20.6362 16.0979C20.6355 14.4786 18.0553 14.3984 18.0561 16.0992C18.0563 16.2571 18.0632 30.8812 18.0577 39.7692C16.2253 39.0998 14.9208 38.8676 14.7727 38.8424C14.5002 38.7967 14.2202 38.8395 13.9738 38.9646C13.7274 39.0897 13.5277 39.2905 13.4038 39.5375C13.2144 39.9163 8.96774 48.603 12.6762 57.2677C8.55303 56.7815 5.18392 58.1952 5.01225 58.2688C4.75829 58.3779 4.54607 58.5656 4.40684 58.8044C4.26761 59.0431 4.20875 59.3203 4.23891 59.595C4.27176 59.8953 5.1146 66.992 11.0606 70.517C11.9364 71.0363 12.8764 71.445 13.8676 71.7432C11.7649 76.4239 10.6701 81.5616 10.6701 86.6919C10.6701 88.3599 13.2502 88.3599 13.2502 86.6919C13.2502 83.3868 13.7444 80.0717 14.6942 76.9071C16.7262 76.5541 19.2894 76.9848 20.5726 78.7739C22.6004 81.601 24.1001 83.1805 27.7362 83.4265C29.9883 83.5786 32.2129 85.1206 33.2721 87.2635C34.0709 88.8795 36.2838 87.5342 35.5851 86.1203C34.1099 83.1353 31.0972 81.0676 27.9103 80.8522C25.0974 80.6622 24.2539 79.4796 22.669 77.2702C21.2152 75.2438 18.5257 74.1042 15.6251 74.2208C20.086 62.9153 30.6689 54.6589 42.716 53.0689C42.0099 54.1446 41.3764 55.2662 40.8196 56.4263C39.3811 59.4328 39.1876 61.9525 40.2444 63.9153C41.4074 66.0745 43.698 66.9542 45.7189 67.7305C48.3909 68.7577 50.6929 70.0126 49.2404 73.2436C48.1812 75.6007 47.0919 79.2132 48.5717 81.6197C50.7249 85.1216 55.2879 83.2192 57.8415 81.4887C59.8927 80.0982 61.7807 79.0802 63.9676 80.763C66.2565 82.5238 68.5866 82.4706 71.2244 81.4414C74.1769 80.4413 77.3733 79.9614 80.5305 80.035C80.9679 82.2269 81.1883 84.4566 81.1888 86.6917C81.1888 88.3597 83.7689 88.3597 83.7689 86.6917C83.769 84.8831 83.6361 83.077 83.3711 81.2879ZM47.3069 50.1958C46.0832 50.1134 44.6733 50.2605 43.4723 50.3826V44.2311H50.9667V50.3843C49.7506 50.2611 48.5292 50.1981 47.3069 50.1958ZM6.99361 60.3161C8.43899 59.8996 11.3122 59.3325 14.279 60.2232C15.338 61.8039 16.6553 63.2316 18.2157 64.4924C17.0264 66.0381 15.9622 67.6762 15.0334 69.3912C14.0846 69.148 13.1938 68.7823 12.3762 68.2976C8.74603 66.1454 7.42655 62.1712 6.99361 60.3161ZM24.1055 58.4159C22.5817 59.6613 21.1609 61.0275 19.8567 62.5012C13.5143 57.3887 12.47 48.9114 15.3172 41.6159C17.8021 42.2864 24.3912 44.6147 27.5891 51.0263C28.2261 52.3034 28.6994 53.6558 28.9977 55.0514C27.2782 56.0381 25.6421 57.1633 24.1055 58.4159ZM38.3475 51.2746C35.9458 51.8727 33.5986 52.7288 31.3564 53.8099C31.0127 52.4497 30.5236 51.1303 29.8978 49.8747C28.7378 47.549 27.2179 45.6985 25.5894 44.2292L40.8922 44.222V50.7411C40.0379 50.8884 39.1891 51.0664 38.3475 51.2746ZM70.3969 78.9978C68.6174 79.8654 67.1119 79.9268 65.5413 78.7183C62.4074 76.3064 59.4696 77.2688 56.3941 79.3528C55.2201 80.1486 52.0024 82.2727 50.7697 80.2681C49.8074 78.703 50.9247 75.7894 51.594 74.3013C53.6294 69.7724 50.7747 66.9067 46.6443 65.322C44.8862 64.6467 43.2257 64.0089 42.5165 62.692C41.872 61.4952 42.0842 59.7618 43.1474 57.54C43.9529 55.86 44.9331 54.2696 46.0719 52.795C54.4799 52.515 62.8141 55.4006 69.2286 60.8532C70.4997 61.9333 72.1706 59.9676 70.8996 58.8872C70.1017 58.207 69.2735 57.5631 68.4177 56.9573C71.8932 52.6359 77.1587 51.1427 79.3306 50.6933C80.0771 53.0375 81.5461 59.3428 78.1322 65.1013C77.9156 65.4642 77.6849 65.8184 77.4406 66.1631C77.0572 65.5994 76.6581 65.0465 76.2437 64.5051C75.2284 63.1817 73.1815 64.753 74.1972 66.0761C76.7952 69.4608 78.7501 73.3413 79.9122 77.4479C76.6779 77.4466 73.4208 77.9735 70.3969 78.9978Z" fill="#090909"/>
<path d="M44.3567 9.13171C44.2422 8.85156 44.0467 8.61195 43.7953 8.44351C43.5439 8.27508 43.2479 8.18548 42.9452 8.18618H42.9437C42.6408 8.18576 42.3446 8.27579 42.0932 8.44473C41.8417 8.61368 41.6465 8.85384 41.5324 9.13446C41.5284 9.14443 41.5243 9.15407 41.5207 9.16422L37.6034 19.4501C37.4816 19.7698 37.4919 20.1249 37.6319 20.4371C37.7719 20.7492 38.0301 20.993 38.3499 21.1148C39.0147 21.3687 39.7609 21.0341 40.0146 20.3683L40.6737 18.6374H45.187L45.8389 20.3647C45.9315 20.61 46.0966 20.8213 46.3123 20.9704C46.5279 21.1196 46.7839 21.1995 47.0461 21.1996C47.2548 21.1996 47.4604 21.149 47.6452 21.052C47.83 20.9551 47.9886 20.8148 48.1072 20.6431C48.2259 20.4714 48.3011 20.2735 48.3265 20.0663C48.3518 19.8592 48.3265 19.6489 48.2527 19.4537L44.3708 9.16731C44.3663 9.15537 44.3616 9.1435 44.3567 9.13171ZM41.6562 16.0573L42.9406 12.685L44.2133 16.0573H41.6562ZM64.9225 10.8139C65.6351 10.8139 66.2125 10.2365 66.2125 9.52388C66.2125 8.81126 65.6351 8.23383 64.9225 8.23383H60.5666C60.3972 8.2338 60.2294 8.26716 60.0729 8.33198C59.9163 8.3968 59.7741 8.49183 59.6543 8.61162C59.5345 8.73142 59.4395 8.87365 59.3747 9.03017C59.3098 9.1867 59.2765 9.35446 59.2765 9.52388V19.8614C59.2765 20.574 59.8539 21.1514 60.5666 21.1514H64.9225C65.6351 21.1514 66.2125 20.574 66.2125 19.8614C66.2125 19.1487 65.6351 18.5713 64.9225 18.5713H61.8566V15.9826H64.6014C65.314 15.9826 65.8914 15.4052 65.8914 14.6925C65.8914 13.9799 65.314 13.4025 64.6014 13.4025H61.8566V10.8139H64.9225ZM32.1208 18.619C31.0798 18.619 30.0782 18.1993 29.4411 17.4963C29.2113 17.2427 28.8903 17.0909 28.5485 17.0741C28.2068 17.0573 27.8724 17.1769 27.6188 17.4067C27.3653 17.6364 27.2134 17.9575 27.1966 18.2992C27.1798 18.641 27.2995 18.9754 27.5292 19.2289C28.6473 20.4627 30.3637 21.1992 32.1208 21.1992C34.3125 21.1992 36.153 19.8012 36.497 17.8749C36.7557 16.4259 36.0973 14.5326 33.4731 13.5647C32.1893 13.091 30.9943 12.5753 30.6298 12.4157C30.339 12.1828 30.3486 11.858 30.3682 11.7228C30.3949 11.536 30.5304 11.0795 31.2078 10.8755C32.6874 10.4295 34.0566 11.5137 34.092 11.5419C34.3551 11.7575 34.6926 11.8606 35.0313 11.8286C35.3699 11.7966 35.6822 11.6321 35.9002 11.371C36.1182 11.1099 36.2242 10.7733 36.1953 10.4344C36.1663 10.0955 36.0047 9.78171 35.7455 9.56138C35.6473 9.47882 33.3063 7.54872 30.4637 8.40497C29.0286 8.8374 28.0136 9.96801 27.8142 11.3561C27.6274 12.658 28.1916 13.9108 29.2871 14.6248C29.3442 14.6621 29.4041 14.6946 29.4662 14.7223C29.5266 14.7491 30.9628 15.3885 32.5804 15.9852C33.0412 16.1551 34.0975 16.6352 33.9573 17.4213C33.8521 18.0099 33.1365 18.619 32.1208 18.619ZM56.7874 8.27115C56.6266 8.2177 56.4569 8.19644 56.2879 8.2086C56.119 8.22077 55.954 8.2661 55.8026 8.34203C55.6511 8.41795 55.5161 8.52297 55.4053 8.65109C55.2945 8.77921 55.2099 8.92791 55.1566 9.0887L52.7296 16.3944L50.1814 9.05327C49.9478 8.38003 49.2122 8.02312 48.5398 8.25756C48.2166 8.36976 47.9512 8.60574 47.802 8.9136C47.6527 9.22146 47.6319 9.57599 47.7441 9.8992L51.3139 20.1835C51.4194 20.4805 51.6142 20.7375 51.8716 20.9193C52.1289 21.1011 52.4363 21.1988 52.7514 21.1989H52.7614C53.4102 21.1948 53.9868 20.7792 54.1987 20.156L57.6051 9.90213C57.7129 9.57741 57.6873 9.22318 57.5339 8.91734C57.3806 8.61149 57.1121 8.37906 56.7874 8.27115ZM50.7522 36.7529C51.4648 36.7529 52.0422 36.1754 52.0422 35.4628V25.03C52.0422 24.3174 51.4648 23.74 50.7522 23.74C50.0395 23.74 49.4621 24.3174 49.4621 25.03V28.7774H44.8227V25.03C44.8227 24.3174 44.2453 23.74 43.5326 23.74C42.82 23.74 42.2426 24.3174 42.2426 25.03V35.4628C42.2426 36.1754 42.82 36.7529 43.5326 36.7529C44.2453 36.7529 44.8227 36.1754 44.8227 35.4628V31.3575H49.4621V35.4628C49.4621 35.805 49.598 36.1331 49.8399 36.375C50.0819 36.617 50.41 36.7529 50.7522 36.7529ZM54.5599 25.1252V35.4628C54.5599 36.1754 55.1373 36.7529 55.8499 36.7529H60.2057C60.9183 36.7529 61.4958 36.1754 61.4958 35.4628C61.4958 34.7502 60.9183 34.1728 60.2057 34.1728H57.14V31.584H59.8846C60.5972 31.584 61.1746 31.0066 61.1746 30.294C61.1746 29.5814 60.5972 29.0039 59.8846 29.0039H57.14V26.4152H60.2057C60.9183 26.4152 61.4958 25.8378 61.4958 25.1252C61.4958 24.4125 60.9183 23.8351 60.2057 23.8351H55.8499C55.5078 23.8351 55.1797 23.971 54.9377 24.2129C54.6958 24.4549 54.5599 24.783 54.5599 25.1252ZM31.9118 25.03C31.9118 25.7427 32.4892 26.3201 33.2019 26.3201H34.7811V35.4628C34.7811 36.1754 35.3585 36.7529 36.0711 36.7529C36.7838 36.7529 37.3612 36.1754 37.3612 35.4628V26.3201H38.9634C39.6761 26.3201 40.2535 25.7427 40.2535 25.03C40.2535 24.3174 39.6761 23.74 38.9634 23.74H33.2019C32.8597 23.74 32.5316 23.8759 32.2897 24.1178C32.0477 24.3598 31.9118 24.6879 31.9118 25.03Z" fill="#DD2D34"/>
</g>
<defs>
<clipPath id="clip0_1_4825">
<rect width="88" height="88" fill="white"/>
</clipPath>
</defs>
</svg>
