<svg width="88" height="88" viewBox="0 0 88 88" fill="none" xmlns="http://www.w3.org/2000/svg">
<path d="M2.16521 56.5904L8.22552 59.4407C8.74935 59.6875 9.32123 59.8155 9.90027 59.8156C10.4437 59.815 10.9813 59.703 11.4797 59.4863C11.9781 59.2697 12.4268 58.9531 12.7979 58.5561L15.1456 60.2425C15.7753 60.9697 16.1656 62.2548 16.5778 63.6123C16.9652 64.888 17.3638 66.198 18.0344 67.3331L17.283 68.6166C16.8019 69.437 16.5762 70.3822 16.6349 71.3315C16.6935 72.2807 17.0338 73.191 17.6123 73.9459C18.1908 74.7008 18.9812 75.2662 19.8825 75.5697C20.7838 75.8733 21.7552 75.9013 22.6725 75.6501C22.9315 76.6814 23.5267 77.5969 24.3641 78.2521C25.2016 78.9073 26.2335 79.2648 27.2968 79.2681C27.7106 79.2677 28.1227 79.2143 28.5229 79.1091C28.5365 79.1055 28.5499 79.101 28.5635 79.0974C28.8206 80.1301 29.4158 81.047 30.2544 81.7022C31.093 82.3575 32.1267 82.7132 33.1909 82.713C34.2403 82.7125 35.261 82.3703 36.0987 81.7383C36.5123 82.4744 37.1145 83.0871 37.8434 83.5133C38.5723 83.9395 39.4016 84.1638 40.246 84.1632C41.3548 84.1622 42.4296 83.7805 43.2906 83.082L47.1611 85.3801C47.9546 85.8531 48.8611 86.1029 49.7849 86.103C50.223 86.1027 50.6594 86.0474 51.0838 85.9384C52.1884 85.6586 53.1695 85.0211 53.874 84.1254C54.5785 83.2298 54.9669 82.1261 54.9786 80.9866C55.8203 81.2417 56.7132 81.2777 57.5727 81.0911C58.4323 80.9046 59.2299 80.5016 59.8901 79.9205C60.5503 79.3394 61.0512 78.5993 61.3453 77.7704C61.6394 76.9415 61.717 76.0512 61.5707 75.184C62.313 75.1393 63.0369 74.9347 63.6928 74.5843C64.3487 74.2339 64.9212 73.7459 65.371 73.1537C65.8208 72.5616 66.1374 71.8792 66.299 71.1533C66.4607 70.4275 66.4636 69.6753 66.3076 68.9482C66.5335 68.921 66.7574 68.8792 66.9779 68.823C67.6368 68.6559 68.2562 68.3604 68.8006 67.9533C69.3449 67.5462 69.8036 67.0357 70.1503 66.451C70.4969 65.8663 70.7247 65.2189 70.8206 64.546C70.9164 63.873 70.8785 63.1878 70.709 62.5295C70.6359 62.2442 70.5392 61.9655 70.4199 61.6963C72.5477 61.0823 74.3329 60.2205 75.8198 59.0923C76.4865 59.5633 77.2826 59.8164 78.0989 59.817C78.6785 59.8165 79.2508 59.6879 79.7748 59.4404L85.834 56.5904C85.9985 56.5142 86.1463 56.4063 86.269 56.2729C86.3916 56.1394 86.4867 55.983 86.5487 55.8126C86.6107 55.6422 86.6384 55.4613 86.6301 55.2802C86.6219 55.0991 86.578 54.9215 86.5009 54.7574C86.4237 54.5933 86.3149 54.4462 86.1807 54.3243C86.0465 54.2025 85.8895 54.1084 85.7187 54.0475C85.548 53.9865 85.3669 53.96 85.1859 53.9693C85.0048 53.9786 84.8274 54.0236 84.6638 54.1018L78.6037 56.9516C78.3148 57.0861 77.9844 57.1009 77.6846 56.9928C77.3848 56.8846 77.1399 56.6623 77.0034 56.3743L67.6205 36.4239C67.485 36.1355 67.4693 35.8052 67.5767 35.5052C67.6841 35.2052 67.906 34.9599 68.1937 34.8231L74.2542 31.9729C74.582 31.8163 74.8344 31.5364 74.9565 31.1944C75.0786 30.8523 75.0604 30.4758 74.9058 30.1471C74.7513 29.8184 74.473 29.5642 74.1316 29.4401C73.7903 29.3159 73.4137 29.3318 73.0841 29.4843L67.0222 32.335C66.3398 32.658 65.764 33.1694 65.3628 33.8089C64.9616 34.4485 64.7516 35.1894 64.7578 35.9444C63.1365 36.5308 61.431 37.0404 59.7047 37.2042C57.9574 37.3746 55.5982 37.0686 53.1007 36.745C48.5737 36.1582 43.8927 35.5515 40.7589 37.3981L39.0379 38.411C36.1585 36.3313 33.4339 36.6578 30.5645 37.0043C28.7103 37.2278 26.7928 37.4595 24.5145 37.1209C24.0494 37.0508 23.5879 36.9586 23.1316 36.8445C23.3448 35.9596 23.2468 35.0282 22.8541 34.2071C22.4614 33.3859 21.7979 32.725 20.9752 32.3355L14.9151 29.4843C14.5854 29.3318 14.2088 29.3159 13.8675 29.4401C13.5262 29.5642 13.2479 29.8184 13.0934 30.1471C12.9388 30.4758 12.9206 30.8523 13.0427 31.1944C13.1647 31.5364 13.4172 31.8163 13.7449 31.9729L19.8041 34.8224C20.0921 34.959 20.3142 35.2041 20.4219 35.5041C20.5297 35.8042 20.5141 36.1346 20.3788 36.4232L10.9955 56.3743C10.8595 56.6628 10.6147 56.8857 10.3147 56.994C10.0147 57.1023 9.68401 57.0872 9.39513 56.952L3.33396 54.1018C3.0053 53.956 2.63261 53.9447 2.29574 54.0704C1.95887 54.1961 1.68463 54.4487 1.53179 54.7741C1.37895 55.0996 1.35966 55.472 1.47806 55.8114C1.59646 56.1509 1.84313 56.4305 2.16521 56.5904ZM20.3883 72.7939C19.9226 72.5196 19.5845 72.0721 19.4477 71.5493C19.3109 71.0264 19.3866 70.4707 19.6583 70.0035L20.8198 68.0194C20.8401 67.9874 20.8595 67.9551 20.8769 67.9217L23.0979 64.1281C23.3727 63.6657 23.8191 63.3306 24.3399 63.1959C24.8607 63.0612 25.4136 63.1377 25.8782 63.4089C26.3428 63.68 26.6814 64.1238 26.8202 64.6435C26.959 65.1632 26.8869 65.7167 26.6194 66.1834L23.1804 72.0631C22.9059 72.5292 22.4581 72.8677 21.9347 73.0047C21.4114 73.1416 20.8552 73.0658 20.3876 72.7939H20.3883ZM26.2836 76.2383C25.8179 75.9651 25.4796 75.5184 25.3428 74.9961C25.206 74.4739 25.2819 73.9187 25.5538 73.4523L28.9937 67.5716C29.267 67.1053 29.7143 66.7667 30.2372 66.6302C30.4962 66.5627 30.7659 66.5468 31.031 66.5834C31.296 66.6201 31.5513 66.7086 31.7822 66.8439C32.0131 66.9792 32.215 67.1587 32.3766 67.372C32.5381 67.5854 32.656 67.8285 32.7236 68.0874C32.7911 68.3464 32.8071 68.6161 32.7704 68.8812C32.7337 69.1463 32.6452 69.4015 32.5099 69.6324L29.069 75.5105C28.795 75.9751 28.3482 76.3125 27.8264 76.4488C27.3045 76.5852 26.7499 76.5096 26.2836 76.2384V76.2383ZM32.1736 79.6874C31.708 79.4131 31.3698 78.9657 31.2331 78.4429C31.0963 77.9201 31.172 77.3644 31.4436 76.8972L34.8832 71.0218C35.1569 70.5551 35.6046 70.2161 36.128 70.0791C36.6515 69.9422 37.2079 70.0185 37.6751 70.2914C38.1384 70.5667 38.4746 71.0133 38.6112 71.5346C38.7477 72.056 38.6735 72.6101 38.4047 73.0771L36.6825 76.0212L36.1308 76.9579C36.105 77.0015 36.0815 77.0461 36.0572 77.0904L34.9664 78.9553C34.6916 79.4214 34.2437 79.7599 33.7203 79.8971C33.1969 80.0343 32.6406 79.9589 32.1725 79.6874H32.1736ZM39.2356 81.1408C39.0042 81.0049 38.802 80.8246 38.6406 80.6102C38.4792 80.3958 38.3618 80.1517 38.2951 79.8918C38.1618 79.3959 38.2233 78.8679 38.4669 78.4159L39.0513 77.4168L40.7847 74.4748C40.9876 74.1252 41.29 73.8439 41.6534 73.6669C42.0168 73.4898 42.4247 73.425 42.8251 73.4807C43.2255 73.5363 43.6002 73.71 43.9015 73.9794C44.2028 74.2489 44.4171 74.602 44.5169 74.9937C44.5853 75.2508 44.6017 75.519 44.5654 75.7825C44.529 76.046 44.4406 76.2997 44.3052 76.5287L42.0263 80.4047C41.7516 80.8702 41.3044 81.2086 40.7818 81.3466C40.2591 81.4845 39.7032 81.4108 39.2345 81.1415L39.2356 81.1408ZM42.1554 39.7667C44.4757 38.3996 48.8709 38.969 52.7482 39.4716C55.4052 39.8154 57.9146 40.1419 59.9688 39.9412C61.9433 39.7538 63.8235 39.2021 65.5907 38.5674L74.198 56.8707C72.6988 58.0183 70.7837 58.8448 68.3823 59.3801C68.3677 59.3713 68.3538 59.3617 68.3391 59.3531L60.2521 54.5524C60.0099 54.4089 59.7297 54.3429 59.4489 54.3634C53.7171 54.7879 47.6641 54.2259 42.2313 47.3005C42.0521 47.072 41.8051 46.9062 41.5257 46.8267C41.2464 46.7473 40.9491 46.7583 40.6764 46.8583L37.3936 48.0614C37.1402 48.1542 36.9198 48.3196 36.7597 48.5368L34.5325 51.5601C33.2846 53.2123 31.5823 53.7539 29.9789 53.0083C29.756 52.9039 29.5587 52.7519 29.4009 52.563C29.243 52.3741 29.1285 52.1529 29.0654 51.915C29.0023 51.6771 28.9921 51.4283 29.0355 51.186C29.0789 50.9437 29.1749 50.7139 29.3166 50.5127L33.1151 45.0866L39.612 41.2632L39.614 41.2619L42.1554 39.7667ZM30.8945 39.7335C33.0804 39.4697 34.7137 39.2733 36.3355 40.0012L31.4644 42.8682C31.2945 42.9681 31.1479 43.1032 31.0347 43.2645L27.0678 48.9302C26.6945 49.4604 26.4421 50.0661 26.3282 50.7044C26.2143 51.3428 26.2419 51.9984 26.4088 52.6249C26.5758 53.2515 26.8782 53.8338 27.2946 54.3309C27.711 54.8279 28.2314 55.2276 28.8191 55.5017C31.599 56.7942 34.7029 55.897 36.737 53.2044L38.7277 50.5024L40.702 49.779C46.647 56.8258 53.3491 57.5188 59.2179 57.1373L66.9372 61.7177C67.482 62.0511 67.8737 62.5856 68.0273 63.2056C68.1809 63.8256 68.0841 64.4812 67.7579 65.0303C67.4317 65.5795 66.9023 65.9781 66.2844 66.1398C65.6665 66.3015 65.0097 66.2133 64.4563 65.8943L58.2106 62.1916C58.0552 62.0981 57.8829 62.0363 57.7035 62.0097C57.5242 61.9831 57.3413 61.9923 57.1655 62.0366C56.9897 62.0809 56.8244 62.1596 56.6791 62.2681C56.5339 62.3766 56.4115 62.5127 56.319 62.6687C56.2266 62.8246 56.1659 62.9973 56.1404 63.1769C56.115 63.3564 56.1253 63.5392 56.1707 63.7147C56.2162 63.8902 56.2959 64.055 56.4053 64.1996C56.5147 64.3441 56.6517 64.4657 56.8082 64.5571L62.4363 67.8937C62.4535 67.9052 62.4706 67.9178 62.4892 67.9281C63.0393 68.2603 63.4366 68.7956 63.5953 69.4183C63.7541 70.041 63.6615 70.7011 63.3376 71.2561C63.0079 71.8091 62.4725 72.2089 61.8487 72.3681C61.2249 72.5273 60.5635 72.433 60.0091 72.1057L53.7965 68.419C53.6411 68.3245 53.4686 68.2618 53.2889 68.2344C53.1092 68.2071 52.9258 68.2156 52.7494 68.2596C52.573 68.3036 52.4071 68.3821 52.2612 68.4906C52.1154 68.5991 51.9925 68.7355 51.8997 68.8918C51.8069 69.0481 51.746 69.2213 51.7205 69.4013C51.6951 69.5813 51.7056 69.7646 51.7514 69.9405C51.7973 70.1164 51.8775 70.2815 51.9876 70.4262C52.0976 70.5709 52.2353 70.6923 52.3926 70.7835L57.6917 73.9296C57.6977 73.9332 57.703 73.9375 57.7089 73.9411C58.259 74.2733 58.6564 74.8086 58.8152 75.4314C58.9739 76.0541 58.8813 76.7143 58.5574 77.2693C58.2276 77.8223 57.6923 78.2221 57.0685 78.3812C56.4447 78.5404 55.7832 78.4459 55.2289 78.1186L52.4536 76.4711L52.4483 76.4679L49.8949 74.9519C49.5813 74.7658 49.2066 74.7118 48.8532 74.802C48.4999 74.8921 48.1968 75.1189 48.0106 75.4325C47.8245 75.7461 47.7705 76.1208 47.8607 76.4742C47.9508 76.8275 48.1776 77.1306 48.4912 77.3168L51.0453 78.8327C51.5916 79.1686 51.9856 79.7041 52.1438 80.3256C52.3021 80.9471 52.212 81.6058 51.8928 82.1621C51.5625 82.7142 51.0275 83.1135 50.4043 83.2732C49.7811 83.4329 49.1201 83.3401 48.5649 83.0149L44.9449 80.8665L46.674 77.9254C47.1575 77.105 47.385 76.1588 47.3273 75.2083C47.2695 74.2577 46.9292 73.346 46.3499 72.5902C45.7706 71.8344 44.9787 71.2688 44.0758 70.966C43.1729 70.6632 42.2001 70.637 41.2822 70.8907C41.2779 70.8735 41.2745 70.8563 41.2699 70.8381C41.111 70.226 40.832 69.6516 40.4493 69.1483C40.0666 68.6449 39.5876 68.2225 39.0403 67.9058C38.493 67.589 37.8883 67.3841 37.2611 67.303C36.634 67.2219 35.997 67.2662 35.3871 67.4333C35.3833 67.4185 35.3804 67.4035 35.3764 67.3888C35.2175 66.7772 34.9388 66.2032 34.5564 65.7002C34.1739 65.1972 33.6955 64.7751 33.1487 64.4583C32.6019 64.1416 31.9977 63.9366 31.3711 63.8552C30.7444 63.7737 30.1079 63.8175 29.4983 63.9839C29.2659 63.0621 28.7643 62.2305 28.0574 61.5949C27.3505 60.9593 26.4704 60.5486 25.5293 60.4151C24.5881 60.2816 23.6284 60.4313 22.7727 60.8453C21.917 61.2592 21.2039 61.9186 20.7243 62.7394L19.7308 64.4352C19.5431 63.9115 19.3747 63.3591 19.2092 62.8136C18.7059 61.1566 18.1857 59.4433 17.0608 58.2613L16.9719 58.168L14.1449 56.1382L22.0202 39.3948C22.7074 39.5847 23.4053 39.7333 24.1102 39.8399C26.754 40.233 28.9531 39.9676 30.8934 39.7335H30.8945ZM43.4797 32.2946C43.8129 32.4307 44.1863 32.4307 44.5195 32.2946C50.8846 29.6943 57.6851 21.7884 57.6851 7.39802C57.6852 7.03589 57.5423 6.68837 57.2876 6.43093C57.033 6.17349 56.687 6.02691 56.3249 6.02302C51.7359 5.97352 47.9862 4.72364 44.8629 2.20172C44.6183 2.00421 44.3134 1.89648 43.9991 1.89648C43.6847 1.89648 43.3798 2.00421 43.1352 2.20172C40.0121 4.72312 36.263 5.973 31.6736 6.0225C31.3115 6.02639 30.9655 6.17297 30.7108 6.43042C30.4562 6.68786 30.3133 7.03537 30.3134 7.3975C30.3134 21.7877 37.1146 29.6936 43.4797 32.2946ZM43.9996 4.99916C47.0786 7.21187 50.7407 8.46072 54.9148 8.72214C54.5412 20.5122 49.1902 27.1269 43.9996 29.5219C38.809 27.1269 33.4578 20.5122 33.0841 8.72214C37.2583 8.46072 40.9204 7.21187 43.9996 4.99916ZM42.0084 20.9478L39.6797 18.7067C39.4188 18.4534 39.2689 18.1071 39.2628 17.7436C39.2566 17.38 39.3947 17.0289 39.6468 16.7669C39.8989 16.5049 40.2445 16.3534 40.608 16.3456C40.9715 16.3378 41.3233 16.4742 41.5865 16.7252L42.8977 17.9871L46.3501 14.2024C46.5959 13.9329 46.9387 13.7721 47.303 13.7553C47.6674 13.7385 48.0234 13.8671 48.2929 14.1129C48.5624 14.3587 48.7233 14.7014 48.74 15.0658C48.7568 15.4301 48.6282 15.7862 48.3824 16.0557L43.9783 20.8837C43.8545 21.0192 43.7048 21.1286 43.538 21.2053C43.3713 21.2821 43.1908 21.3246 43.0074 21.3305H42.9625C42.6069 21.3311 42.265 21.1939 42.0084 20.9478Z" fill="#090909"/>
</svg>
